<svg xmlns="http://www.w3.org/2000/svg" viewBox="0 0 88.98 100.18" xmlns:v="https://vecta.io/nano"><style><![CDATA[.c{fill:#aec4da}.d{fill:#b9cbdc}.e{fill:#a8c2d8}.f{fill:#75e3ce}.g{fill:#31dfbb}.h{fill:#479781}.i{fill:#c7e1f6}.j{fill:#a2bed6}.k{fill:#039876}.l{fill:#d2e8f6}.m{fill:#1dad8a}.n{fill:#07f9d7}.o{fill:#e5f3f9}.p{fill:#28deb7}.q{fill:#2cdfb9}.r{fill:#a4bed7}.s{fill:#9cbad3}.t{fill:#a0bcd6}]]></style><g class="o"><path d="M59.32 42.93c.35.12.12.81.7.71l.02.49c-.04.04-.09.08 0 0-.08.08-.04.04 0 0 .35-.24.45-.6.48-.99 0-.19.02-.37.24-.45.44.45.67-.04.95-.23 1.29-.89 2.64-1.43 4.23-.81.24.1.54.04.82.06.71.41 1.39.85 1.95 1.46.12.53.63.92.53 1.52l-.02.01c-.13-.07-.22-.02-.28.11-.35.2-.62.48-.84.8-.51.73-.47 1.48.11 2.24.42.73.85 1.45 1.89 1.03.15.04.32.03.46.27-.5.83-.38 1.84-.56 2.79-.25 1.33.18 2.58.32 3.86.04.39.17.78.53 1.02.33.46.54.95.48 1.55-.03.31-.02.65.06.95.41 1.53.4 3.13.09 4.6-.4 1.95-.59 4-1.6 5.78-.88 1.55-1.53 3.32-3.36 4.1-.06.03-.1.12-.13.15-.21.31.25.53-.05.91-3.85 3.78-8.51 6.15-14.18 6.84-.25.21-.67.35-1.18.36-1.85.04-3.52.8-5.21 1.43-1.16.43-2.14 1.24-3.25 1.76-1.35.64-2.52 1.52-3.48 2.6-.62.7-1.8 1.07-1.63 2.26l-.84.92a.92.92 0 0 1-.19.9c-.6.78-1.11 1.63-1.69 2.43-.78 1.09-2.57 1.57-4.12.98-.62-.97-.88-2.08-.72-3.18.08-.54 0-1-.07-1.49.04-.03.08-.07.05-.05.02-.03-.01.01-.04.06-.28-.01-.56-.04-.79.23-.31.73-.49 1.61-.99 2.22-.51.62-.93 1.31-1.48 1.91-.4.44-.91.92-.82 1.64l.01-.01c-.6.07-.93.5-1.32.9-.57.59-1.16 1.23-2.09.92-1.44-.61-1.23-2.22-1.99-3.13-.02-.64.51-1.18.01-1.75.27-.16.55-.3.54-.62-.05-.98.43-1.66 1.18-2.2.37-.26.61-.58.44-.98.75-.5 1.16-1.07 1.2-2-.97.27-1.88.38-2.59 1.1-.88.89-2.03 1.31-3.18 1.67-.32-.25-.29-.69-.61-.9l-.39-1.24c-.39-1.33.1-2.49.87-3.49.71-.93 1.44-1.89 2.51-2.39-.03-.47.12-.88-.27-1.16-2.05.14-3.85.94-5.58 2.08-.28-.22-.68-.21-.92-.6-.09-.28-.07-.65-.23-.98-.24-.52-.11-1.07.25-1.45.8-.84 1.47-1.81 2.6-2.31.84-.37 1.6-.93 2.32-1.36-.01-.38-.18-.47-.36-.57-1.28-.72-2.61-.43-3.93-.19v-.66c.26-.19.11-.33-.08-.43l-2.27-1.21c-.08-1.27 1.87-2.92 3.06-2.97.33-.01.73.15.97-.25 1.55-.05 3.09-.22 4.63-.3.9-.05 1.82-.07 2.72-.2 2.06-.31 4.15-.42 6.19-.92.53-.13 1.12.21 1.6-.22.43-.03.8.3 1.27.17 2.87-.81 5.91-.9 8.7-2.09 1.42-.61 2.82-1.22 4.2-1.92 1.16-.45 2.29-.94 3.11-1.94a5.96 5.96 0 0 0 2.05-1.54c1.57-1.81 2.94-3.79 4.29-5.76.43-.63 1-1.24 1.09-2.07.28-.16.31-.49.49-.71.22-.1.21-.32.24-.51.33-2.06 1.12-3.98 2.02-5.83.61-1.21.98-2.39.86-3.73zm4.81 6.25c1.05-.81 1.15-1.7.55-2.79-.6-.13-1.04-.66-1.52-1.05-.49-.01-.93-.1-1.49.14-.01.43-.44.75-.66 1.2.6 1.44 1.4 2.53 3.12 2.5zM22.82 72.66c1.19-.54 2.69-.21 3.65-1.53-1.85-.41-3.42-.06-5.07.65.46.49.92.63 1.42.88zm40.84-28.13c.09.32.33.64.57.96.53.09 1.07.32 1.47-.17.34-.82-.14-1.31-.56-1.82-.34-.11-.68-.21-1.14 0-.05.24-.38.45-.34 1.03zM27.74 70.12c-.28.27-.46.51-.44.91 1.36.65 2.28-.11 3.26-1.06-1.08-.87-1.95.08-2.82.15zM23 92.85c-1.15.7-1.37 1.88-.52 2.9 1.28-.28.58-1.53 1.1-2.13-.18-.3-.22-.59-.58-.77zm-5.51-21.08c-.34.24-.61.41-.59.78.84.83 1.52.85 2.67.08-.48-.78-1.37-.57-2.08-.86zm11.14 1.88c-.56-.94-.85-.95-2.05-.22-.15.29-.2.58.05.86.36.1.71.08 1.09.01a22.29 22.29 0 0 0 .91-.65zm23.05-8.86c-.84.43-2.02.32-2.4 1.53 1.35.18 2.25-.35 2.4-1.53zM18.93 87.24c1.06-.62 1.6-1.76 1.3-2.71-.97.65-1.48 1.73-1.3 2.71zM55.72 63.7c-.06-.56.57-1.01-.1-1.6-.07.79-.6 1.02-1.13 1.14-.34.66-.34.66-.26 1.24.68.13.86-.64 1.49-.78zM21.16 75.82c.51-.37 1.23-.36 1.3-1.13-1.25-.31-1.64-.19-2.19.68.21.28.58.22.89.45zm31.5-14.39c-.55-.07-.82.41-1.19.6-.2.6-.21.72-.11 1.22 1.29-.53 1.48-.78 1.3-1.82zm4.52-5.46c-.58.63-1.22 1.24-.83 2.34 1.01-.56 1.15-1.36.83-2.34zm-3.13 5.94c1.12-.69 1.4-1.2 1.16-1.97-.8.36-1.1.98-1.16 1.97zM32.1 93.11c.58-.3.7-.69.78-1.06-.15-.23-.28-.37-.56-.34-.53.33-.4.8-.22 1.4zm25.87-33.8c-.29.28-.51.59-.47 1.02.33.12.59.16.81-.07.09-.36.1-.69-.34-.95z"/><path d="M2.92 29.73h.24c.61.35 1.35.37 1.92.82.57.44 1.22.61 1.91.59.36-.06.12-.57.61-.64-.1.31-.14.63.29.85.7-.4 1.73.15 2.44-.63 0-.16.02-.28-.01-.4-.04-.15-.12-.29-.19-.46-2.97-.83-5.75-2.01-7.88-4.25l-.2-1.77c.3-.17.5.21.76-.02l.32-.59c1.79 1.25 3.35 1.31 4.32.18-.27-.41-1.52-1.35-2.13-1.55-1.49-.5-2.72-1.26-3.25-2.86-.12-.37-.37-.69-.59-1.07.32-.48.18-1.06.24-1.61.32-.48.88-.81.95-1.46 1.15-.04 1.7.84 2.33 1.56.23.27.35.62.79.56.4 1 1.01 1.77 2.15 1.96.13.03.22.11.25.25 0 .25.07.47.28.61.98.68 1.87 1.51 3.09 1.79l-.01-.01c.23.52.63.78 1.21.73l-.01-.01c.01.16.01.32.15.43 1.04.72 2.16 1.26 3.4 1.52 2.28 1.28 4.78 1.79 7.33 2.14.34.05.66 0 .64-.47l.21-.01.25.26h0c.26.55.75.47 1.22.43 1.54.13 2.98.74 4.41 1.17 1.39.42 2.7 1.25 4.18 1.85.34.5 1.16.65 1.53 1.25 1.85.26 2.83 1.93 4.47 2.57.01.38.37.55.72.76.8.47 1.45 1.11 2.01 1.84 1.43 1.85 2.49 3.95 4.03 5.72.1.12.16.28.21.43.41 1.16 1.09 2.18 1.69 3.23a39.08 39.08 0 0 0 2.83 4.24c.66.86 1.21 1.87 2.21 2.44.03.33.14.59.5.66l.25.3-1.89 3.37c-.7 1.06-1.63 1.93-2.27 3.04-.77 1.35-1.92 2.39-3.05 3.43-.84.76-1.84 1.26-2.88 1.67h0l-.12-.16-.13.15h-.22l-.13-.15-.12.16h0c-.29-.04-.49.15-.73.25-.7-.01-1.3.27-1.87.67l-.74-.21c-.85.91-2.44.11-3.12 1.42-.35-.21-.41-.62-.84-.65l-1.44.32.02-.23c-1.02-.04-2.06.22-3.16.06-.61-.61-1.41-1.09-2.31-1.26-1.23-.23-2.31-.88-3.58-1.04-.98-.12-1.91-.43-2.82-.05-.39-.18-.22-.8-.76-.72.04-.37.48-.37.61-.65-.52-.86-1.61-.34-2.26-1-.2-.92.32-1.6 1.01-2.08l2-1.51c.62-.15 1.2.12 1.71-.21.03-.63-.39-.97-.78-1.15-.7-.33-1.46-.52-2.2-.75-.98-.3-2.05-.41-2.89-1.43.8-.86 1.45-1.81 2.79-1.77.24.33.48.34.72 0l.77-.05c.27-.31.15-.64.21-.94l.46.27c.07.36-.07.67-.24.96-.26.02-.55-.07-.77.14.27.04.58.24.77-.15.38.01.77.03.94-.48l-.22-.48c.01-.81-.95-1.16-.85-2.04-.64.03-.75-.55-1.12-.77-1.44-.86-2.99-1.33-4.7-1.27-1.5.05-2.83-.83-4.46-.74.14-.64.52-1.07.15-1.5.37-.28.73-.47.89-.86l.09-.23c.35-.05.85.16.87-.48.54-.41.85-.9.55-1.76-1.16.31-2.43.09-3.43.73-1.08.7-2.38.81-3.34 1.5-1.11-.19-1.77-.79-2.16-1.74.47-.12.39-.65.72-.98 1.49.04 3.06.17 4.44-.74.13-.26.16-.52.07-.68-1.1-.8-2.35-.56-3.48-.84-1.16-.29-2.26-.66-3.42-1.23-.02-.85-.12-1.75-.73-2.49l-.01.01a4.96 4.96 0 0 0 1.91-.25l.29-.02c.52 0 1.04.08 1.54-.01.86-.15 1.8-.23 2.21-1.31-.56.42-.99-.99-1.53.07-.21-.5-.7-.56-.94-.53-1.21.14-2.29-.35-3.45-.49.03-.69-.6-.83-.91-1.22-.57-.75-1.37-1.33-1.74-2.25zm22.33.23c.16.33.46.21.72.21l6.81 2.47c.18.22.69.44 1.13.78.23.18.5.25.7-.09.26.61.75 1.01 1.29 1.36l.86.56c2.66 2.46 5.01 5.23 7.75 7.78.05-.74-.17-1.39-.68-1.76-1.25-.92-1.98-2.3-3.17-3.31-1.09-.93-2.06-2.02-3.17-2.96-.8-.93-1.8-1.6-2.89-2.15-.08-.21-.29-.26-.46-.35-2.59-1.37-5.3-2.41-8.18-3l-.48-.03c-.25-.44-.48-.01-.73.02-.76-.92-1.82-.68-2.8-.77.76.84 1.91.74 2.81 1.22.17.01.33.02.49.02zm-1.21 30c-.41-.41-.64-.29-.71.25.54 1.05 1.56.99 2.55 1.03-.51-.58-1.03-1.13-1.84-1.28zm22.08-12.47l.06-.06c-.04-.04-.08-.09-.11-.13l-.07.07.13.13c.2 1.07 1.23 2.22 2.05 2.28-.21-.83-.21-.83-.84-1.13.03-.46-.15-.83-.47-1.15-.28 0-.51 0-.75-.01zm-30.24-7.21h0c.73.67 1.68.62 2.64 1.03-.56-1.62-2.66-2.4-4.01-1.7.25.64.78.72 1.37.67zm-6.61-2.71c1.69.47 3.31.57 4.83-.47-.53.09-1.17.28-1.56.01-.97-.67-2-.34-3.01-.4-.1-.01-.21.09-.29.12-.09.23-.09.42.03.74zm14.07 16.55c.44 1.17 2.17 1.92 3.5 1.6-.47-1.08-2.04-1.83-3.5-1.6zm-4.45-9.33c-.44.23-.71.46-1.18.34-.39-.09-.87.11-.83.72 1.09.29 3.05.27 4.01-.05-.48-.73-1.36-.56-2-1.01zM4.68 25.06c.02 1.46 1.2 2.3 2.71 2.17-.46-1.24-1.63-1.48-2.71-2.17zM29.4 62.79c.92.53 1.57 1.72 3 1.38-.56-.95-2.25-2.11-2.79-1.93-.06.07-.15.15-.2.25-.03.07-.01.16-.01.3zM9.12 22.22c-.23-.84-1.6-1.89-2.48-1.98.37 1.23 1.04 1.78 2.48 1.98zm41.87 29.04c-.05-.46-.2-.8-.54-1.07-.3.18-.41.44-.44.81.53.63.89 1.52 2.07 1.48-.14-.64-.29-1.14-1.09-1.22zM4.27 16.85c-.92.82-.54 1.48 1.05 2.22-.03-.93-1.09-1.21-1.05-2.22z"/></g><path d="M54.26 52.05c-1-.57-1.55-1.58-2.21-2.44a36.36 36.36 0 0 1-2.83-4.24c-.6-1.05-1.28-2.07-1.69-3.23-.05-.15-.11-.31-.21-.43-1.54-1.77-2.61-3.87-4.03-5.72-.56-.73-1.21-1.37-2.01-1.84-.35-.2-.71-.38-.72-.76-1.63-.64-2.62-2.3-4.47-2.57-.37-.59-1.2-.74-1.53-1.25-1.48-.59-2.79-1.43-4.18-1.85-1.44-.43-2.88-1.04-4.41-1.17-.18-.78-.8-.32-1.22-.43h0c0-.26.11-.54-.17-.73-.52-.61-.5-1.41-.71-2.12-.21-.7.7-1.22.29-1.9.55-.69 1.23-.98 1.94-1.1.1-1.28-.53-2.38-.39-3.63.19-1.76.96-2.57 2.85-2.65.3-.6.21-1.4.85-1.95.49-.24 1.1-.38 1.73-.37.26-.77.19-1.52.19-2.2 0-1.03.53-1.8 1.03-2.52.8-1.15 2-1.45 3.37-.83.38-1.38.61-2.78 1.81-3.72.57-.45 1.15-.84 1.85-1.02.41-.05.63.34.98.47.72-.79 1.55-1.37 2.39-1.86.63-.07 1.13.35 1.69.18.4.46.57 1.03 1.08 1.26l.25 1.07c-.51 2.47-1.68 4.7-2.4 7.07-.68 2.22-1.52 4.43-1.34 6.83.28 3.74.88 7.4 2.77 10.72.39 2.01 2.14 2.91 3.48 4.1 1 .89 1.96 1.85 2.99 2.72.33.28.78.22 1.04.63.29.46.78.79 1.16 1.2.36.39.83.61 1.24.91.6.44 1.18.95 1.61 1.54.28.38.6.6.89.71.92 1.29 1.57 2.6 2.1 3.97.11 1.34-.25 2.53-.85 3.75-.91 1.84-1.7 3.76-2.02 5.83-.03.19-.01.41-.24.51-.34-.03-.5.13-.5.47-.4.1-.44-.35-.7-.47-.08-.1-.17-.2-.25-.3 0-.32.01-.67-.5-.64zM37.7 11.72c.34-.83 1.06-1.53.78-2.59-.7.56-1.47 1.05-1.5 2.09l-.72 1.02c.08.5-.16.99.37 1.48.36-.73 1.02-1.18 1.07-2zm12.74 24.49c-.04-.24.12-.56-.28-.66-.27.25-.21.5-.14.79.21-.06.32-.1.42-.13.01 1.09 1.22.97 1.59 1.66.46-.02.9.16 1.24-.19-.06-.22-.14-.4-.29-.41-.21-.01-.29-.03-.42-.25-.55-.93-1.01-1.08-2.12-.81zm7.28 4.99c-.77-.29-.85-.96-1.26-1.38-.44-.45-.93-.8-1.78-.96.74 1.41 1.41 2.63 2.17 3.77.29.05.53.11.63.01.44-.52-.57-.92.24-1.44zM38.57 4.34c-1.08 2.17-1.09 2.24-.37 3.23.68-.63 1.41-2.88 1.09-3.39l-.72.16zm6.79 27.98c.8 1.49 1.88 2.23 3.46 2.71-.82-1.45-1.57-2.61-3.46-2.71zM30.07 15.53c.04 1.33.49 2.16 1.42 2.38-.11-1.19-.15-2.32-.6-3.58l-.82 1.2zm3.9-2.84c.4-1.19.8-2.3.49-3.66-1.19 1.2-1.39 2.79-.49 3.66zm-5.42 4.35c-.89.24-1.13.84-.99 2.17.31.11.63.15.99.07v-2.24zm4.77 1.31c.48-1.19.23-2.42-.52-2.95-.34 1.01 0 1.88.52 2.95zm-3.31 2.08c.28.74.4 1.55 1.41 1.84-.11-.91-.31-1.69-.84-2.33-.33.03-.42.21-.57.49zM41.25 4.85c-.33-.12-.55-.13-.78.02-.46.61-.42 1.27-.22 2.16l.82-1c-.02-.42-.25-.84.18-1.18zM27.98 20.03c.1.16.2.32.44.28.22-.16.25-.33.06-.54-.2.04-.37.09-.5.26z" fill="#97b6d4"/><path d="M29.79 90.68c.07.49.15.95.07 1.49-.16 1.1.09 2.2.72 3.18 1.55.59 3.34.11 4.12-.98l1.69-2.43c.25-.33.27-.61.19-.9l.84-.92c-.17-1.19 1.01-1.56 1.63-2.26a10.7 10.7 0 0 1 3.48-2.6c1.11-.52 2.08-1.33 3.25-1.76 1.69-.63 3.36-1.38 5.21-1.43.51-.01.93-.15 1.18-.36 5.66-.69 10.33-3.06 14.18-6.84.3-.38-.17-.6.05-.91.02-.03.06-.12.13-.15 1.83-.79 2.48-2.55 3.36-4.1 1.01-1.78 1.2-3.84 1.6-5.78.3-1.47.31-3.07-.09-4.6-.08-.3-.09-.64-.06-.95.06-.59-.16-1.08-.48-1.55.12-.33.36-.48.71-.46.44.28.71.72 1 1.14a14.48 14.48 0 0 1 2.28 5.52c.21 1.13-.09 2.27-.07 3.4 0 .26-.11.55-.08.82.2 1.91-.54 3.64-.95 5.44-.17.74-.45 1.35-.9 1.93-.65.84-1.02 1.85-1.66 2.73-1.2 1.66-2.8 2.75-4.36 3.98-1.8 1.42-3.93 1.93-6.01 2.62-.94.31-1.93.5-2.93.48-1.44-.03-2.85.27-4.28.31-1.63.04-3.25.3-4.92.01-1.94-.33-3.74.26-5.3 1.54-1.29 1.06-2.42 2.26-3.48 3.53-.31.37-.6.74-1.05.89-1.86 3.21-4.26 5.92-7.28 8.1-1.1-.09-2.18.71-3.26-.08-.97-.78-1.27-1.91-1.44-3.1-.56.23-.68.84-1.16 1.07-.08-.72.42-1.19.82-1.64.55-.6.97-1.29 1.48-1.91.51-.61.68-1.49.99-2.22.23-.28.52-.24.79-.23l-.01-.02zm40.89-19.51c1.13.31 1.13-.71 1.6-1.11-.1-.53.26-1.19-.68-1.44-.3.82-1.23 1.38-.92 2.55zm-6.11 10c.04-.34.08-.58-.17-.76-.38-.05-.78-.09-1.18.04l-1 .92c.39.19.43.66.94.62.43-.23.9-.51 1.41-.82zm3.28-2.44c.26-.66 1.31-.58 1.29-1.51-.26-.28-.55-.45-.96-.41l-.91.84c.16.58.16.58.58 1.08zm5.1-10.99c.89-.78.83-1.54-.04-2.21-.78.72-.22 1.39.04 2.21zm-5.38 8.25c.42-.39 1.05-.68 1.08-1.46-.54-.37-.93-.05-1.34.2-.03.34-.34.63-.24.98.12.16.22.28.5.28zm2.88-1.22c.64.16.84-.26 1.08-.6-.13-.33-.37-.35-.62-.46-.24.28-.64.46-.46 1.06zm1.52-2.28c-.71-.03-.94.22-.83.85.67.11.91-.14.83-.85z" class="s"/><path d="M14.19 76.03c1.32-.24 2.65-.53 3.93.19.18.1.35.19.36.57-.72.43-1.48.98-2.32 1.36-1.13.5-1.8 1.47-2.6 2.31-.36.38-.48.93-.25 1.45.15.34.13.7.23.98.24.39.64.38.92.6 1.73-1.14 3.54-1.94 5.58-2.08.39.28.24.7.27 1.16-1.06.5-1.79 1.46-2.51 2.39-.77 1-1.25 2.16-.87 3.49l.39 1.24c-.06.37.09.77-.13 1.13-.37-.09-.62.12-.86.35-.32.06-.71-.16-.93.25-.46.04-.74-.18-.83-.64-.28.08-.54.25-.81.03-1.49-1.83-1.46-4.39 1.1-6.83-.02-.13-.09-.25-.21-.24-1.19.12-2.24-.31-3.32-.7-.56-.2-.98-.47-1.24-.99.35-.58.24-.87-.45-1.21-.54-.92.08-1.62.57-2.21 1-1.2 1.09-1.08 1.75-1.43.74-.39 1.36-1.02 2.23-1.17z" fill="#9dbad4"/><path d="M22.84 63.08c.54-.08.37.54.76.72.91-.38 1.84-.07 2.82.05 1.27.16 2.35.81 3.58 1.04.9.17 1.7.64 2.31 1.26 1.1.16 2.14-.1 3.16-.06l-.02.23 1.44-.32c.43.03.48.44.84.65.68-1.3 2.27-.51 3.12-1.42l.74.21c.57-.4 1.17-.68 1.87-.67l.1.39c.31-.16.66-.19.63-.64h0l.24-.01h.22l.25.01h0l.27.51-4.2 1.92c-2.79 1.2-5.83 1.28-8.7 2.09-.48.13-.84-.2-1.27-.17l-.48-.51c-1.12-.93-2.1-2.04-3.4-2.87-.52-.06-1.1-.06-1.68.1-.85.24-1.74.2-2.6.11-1.51-.16-2.09-1.57-1.21-2.84.29-.18.59-.31.94-.27.03.21.03.42.27.49z" fill="#9ebbd5"/><path d="M16.34 91.18c.24-.23.49-.44.86-.35.23-.36.07-.76.13-1.13.32.2.29.65.61.9 1.15-.37 2.3-.78 3.18-1.67.71-.72 1.63-.83 2.59-1.1-.05.92-.45 1.5-1.2 2 .17.4-.08.72-.44.98-.75.54-1.24 1.22-1.18 2.2.02.33-.27.46-.54.62.5.58-.04 1.12-.01 1.75.76.91.54 2.53 1.99 3.13.92.3 1.51-.33 2.09-.92.39-.4.72-.83 1.32-.9-.95 1.53-2.02 2.9-3.9 3.34-2.54.6-4.28-.6-4.64-2.37-.34-1.7-.33-3.51.8-5.05.33-.46.55-.95.79-1.54-.91-.35-1.62.31-2.41.33-.02-.08-.03-.15-.04-.22zm3.98.3l-.04.06.06.01-.02-.07zm-.23.48l-.04.06.06.01-.02-.07z" class="t"/><path d="M15.39 44.61c-.16.39-.52.58-.89.86.36.43-.01.86-.15 1.5 1.63-.09 2.95.79 4.46.74 1.71-.06 3.26.41 4.7 1.27.37.22.48.81 1.12.77-.11.88.86 1.23.85 2.04h-.47l-.46-.27c-.25-.51-.84-.74-1.01-1.25-1.15-.14-2.09-.81-3.19-.98-.56-.09-1.07-.13-1.64-.02-1.3.26-2.62.17-3.92.07-.98-.08-1.84-.53-2.12-1.52-.46-.57.35-1.11-.11-1.63.11-.17.28-.15.44-.16.47-.01.73-.23.73-.71.01-.37.18-.66.49-.97.32.31.75.25 1.17.26zM3.15 23.22l-.32.59c-.27.22-.47-.15-.76.02l.2 1.77c2.13 2.24 4.91 3.41 7.88 4.25.07.18.15.31.19.46.03.11.01.24.01.4-.7.78-1.73.23-2.44.63-.43-.22-.38-.54-.29-.85-.49.08-.25.58-.61.64-.69.03-1.34-.14-1.91-.59s-1.32-.46-1.92-.82c-.1-.35.3-.56.22-1.06-1.09-.56-1.94-1.53-2.79-2.78l-.27-1.06c.56-1.6.74-1.75 2.22-1.81.21 0 .45-.06.59.21z" class="j"/><path d="M87.89 32.36l-1.22 2.38c-.9 1.67-2.31 2.85-4.38 2.9-.11 0-.26-.09-.33-.04-1.49.93-2.69-.05-4.04-.55.04-.56-.35-.85-.67-1.2-.39-.43-.93-.79-.88-1.49-.01-.04-.01-.08.01-.12.2.04.37.02.47-.19l.92-.02.25.25c1.51 1.55 3.03 1.74 4.99.69.71-.38 1.48-.44 2.26-.2.15.32.33.37.56.07-.18-.14-.38-.06-.58-.06-.04-.32-.08-.68.23-.86.84-.47 1.45-1.28 2.41-1.56z" fill="#1cab88"/><path d="M85.27 34.78c-.78-.23-1.56-.18-2.26.2-1.96 1.05-3.48.86-4.99-.69l-.25-.25.03-.46c.8.12 1.4-.44 1.82-.57 1.39.08 2.49.18 3.69-.09l-.47-.55h1.21a.7.7 0 0 0 .69-.45c.28.05.28.51.73.41.25-.17.51-.47.92-.58l-.92-1.71c.42-.04.64.48 1.23.36.33-.2.77-.58 1.43-.36l.72.61c.25.36-.11.75.12 1.1-.28.37-.63.58-1.08.62-.96.28-1.58 1.09-2.41 1.57-.31.18-.27.54-.23.86l.02-.02z" class="p"/><path d="M15.39 44.61c-.42-.01-.85.06-1.19-.25-.31.31-.48.6-.49.97-.3.18-.73.22-.73.71-.16 0-.34-.01-.44.16l-1.6.48c-2.08.54-4.27-.96-4.42-3.07.36-.38.54-1 1.19-1.17.03.13.11.21.24.24.38.95 1.04 1.56 2.19 1.68.96-.7 2.26-.81 3.34-1.5 1-.64 2.27-.42 3.43-.73.3.86-.01 1.35-.55 1.76-.48.06-.62-.38-.93-.66-.12.22-.46.15-.49.72 0 .13.22.32.55.42-.04.08-.07.16-.1.24z" fill="#9dbad4"/><path d="M73.03 18.43c-.58-.95-1.17-1.9-1.96-2.71-.14-.15-.14-.36-.06-.55-2.18-1.02-1.21-6.31.77-7.48.21-.03.39-.03.47.18-.15.88-.51 1.75-.41 2.56.22 1.75.65 3.47 1.56 5.02.06.1.19.56.57.34.58.98.17 2.11.46 3.13-.24-.04-.39-.2-.48-.42-.21-.11-.37.04-.54.11-.05-.02-.09-.01-.14.02h-.01c-.01-.13-.1-.18-.23-.2zm-2.16-6.13c.04.28.11.37.29.29.04-.18-.08-.23-.29-.29z" class="m"/><path d="M7.95 42.69c-.13-.03-.21-.11-.24-.24.38-.25.23-.61.21-.95-.12-.35-.44-.21-.68-.27-.94-.48-1.91-.88-2.61-1.74-1-1.24-.56-3.12.92-3.76.61.74.71 1.64.73 2.49a16.18 16.18 0 0 0 3.42 1.23c1.13.28 2.38.04 3.48.84.09.16.06.42-.07.68-1.38.91-2.95.79-4.44.74-.33.32-.24.86-.72.98z" class="j"/><path d="M68.2 30.98c-.01.19-.08.33-.25.42-1.29-.36-2.56-.78-3.82-.74-.47-.2-.66-.63-1.08-.68-1.12-.15-1.58-1.07-1.94-1.89l-.58-1.46c.74-1 2.47-1.36 3.84-.76.37.16.72.34 1.17.36l-.2.34c.62.04 1.1.36 1.59.63.83.45 1.43 1.73 1.26 2.53-.91-.52-1.88-.92-2.9-1.15.19-.07.48-.01.43-.36-.09-.15-.25-.15-.39-.16.01-.49-.49-.58-.71-.94-.72.1-1.38-.22-2.06-.37-.32.36-.85.59-.45 1.26.46-.06.79.32 1.11.53h1.65l.26.04c.02.65.61.73 1.01.95.75.4 1.5.78 2.06 1.45zm-4.15-1.89c-.21.07-.32.14-.27.32.25.09.34.01.27-.32z" class="q"/><path d="M3.15 23.22c-.13-.27-.37-.21-.6-.2-.52-.67-1.36-1.14-1.33-2.15l.02-.02c.18-.03.4-.01.41-.35-.17-.07-.3-.27-.58-.2-.03.09-.05.2-.07.31l-.01.01c-.62.03-.51-.55-.61-.85-.46-1.41-.61-2.83.17-4.2.34 0 .48-.18.43-.51h0 .6c.18-.24.1-.6.41-.72h.18a.8.8 0 0 1 .52.51c-.07.64-.63.97-.95 1.46-.07.55.08 1.12-.24 1.61.22.39.47.71.59 1.07.53 1.6 1.76 2.36 3.25 2.86.62.21 1.86 1.14 2.13 1.55-.97 1.13-2.54 1.07-4.32-.18z" class="t"/><path d="M22.84 63.08c-.25-.08-.24-.29-.25-.49-.23-.4-.63-.19-.95-.24-.95-.32-.95-.32-1.62-1.12-.25-1.08.25-1.83 1.1-2.42l2.43-1.65c-.79-.5-1.6-.73-2.47-.8-.28-.02-.57.01-.84-.04-.78-.15-1.49-.45-1.66-1.33-.16-.81.27-1.35.94-1.76.54-.33 1.03-.74 1.52-1.11.63-.09 1.23-.14 1.78.19v.22c-1.34-.04-1.99.91-2.79 1.77.83 1.02 1.91 1.13 2.89 1.43.74.23 1.5.42 2.2.75.4.19.81.52.78 1.15-.51.33-1.09.06-1.71.21l-2 1.51c-.69.48-1.21 1.16-1.01 2.08.65.65 1.74.14 2.26 1-.12.28-.56.28-.6.65z" class="r"/><path d="M68.2 30.98c-.55-.67-1.31-1.05-2.05-1.47-.41-.23-.99-.31-1.01-.95l.07-.01h.07v.01a10.71 10.71 0 0 1 2.9 1.15c1.17 1.03 2.5 1.9 3.08 3.46.09.24.36.41.55.62.09.31-.35.74.22.95.38.32.38.78.48 1.21l.05.65c.38-.46.66-.94 1.06-1.27.41-.34.73-.81 1.29-.95.03.19.07.37.34.3.17-.21.05-.32-.14-.41l1.71-1.42.01.21c.14.49.79.05.95.51l-.03.46-.92.02c-.07-.14-.16-.23-.33-.19-.14.09-.15.23-.13.38-.02.04-.02.08-.01.12-2.08 1.25-3.55 3.04-4.59 5.2-.54.3.11 1.09-.59 1.4-.16-.54-.2-1.02.06-1.49-.53-1.09.04-2.09.31-3.07-.51-2.21-1.53-4.06-3.35-5.42z" fill="#1d9377"/><path d="M60.52 26.62l.58 1.46c.36.82.82 1.75 1.94 1.89.42.06.61.49 1.08.68 1.26-.04 2.53.38 3.82.74-.89 1.65-1.09 1.59-2.97 1.56-1.14-.02-2.08-.21-2.99-.85-.94-.66-1.33-1.7-1.89-2.62-.15-.25-.34-.52-.42-.8 0-.57-.02-1.12.33-1.59l.29-.48c.08-.01.15-.01.23.01z" fill="#1cab88"/><path d="M88.35 21c.18.6-.23.92-.64 1.12-.57.27-.93.71-1.27 1.2-1.06 1.51-2.65 2.36-4.19 3.2-.75.41-1.75.14-2.69.5-.3-.54-1.36-.35-1.28-1.36-.03-.28.15-.49.24-.73.28-.1.33-.58.75-.45.17.31.32.22.47-.02h.09l.09.01h1.98c.46-.31.95-.78 1.64-.44.04-.08.06-.18.12-.21l3.97-2.68c.18-.16.43-.44.72-.14zm-8.04 4.52c.29.2.46.13.55-.2-.34-.23-.44 0-.55.2z" class="m"/><path d="M71.78 24.61c-.22-.12-.44-.25-.71-.21-.2-.79-.84-1.14-1.51-1.3-.53-.12-.99-.34-1.31-.71-.57-.66-1.31-1.12-1.89-1.74-.07-1.24-1.18-2.09-1.22-3.34.71-.62 1.55-.41 2.25-.14 1 .38 1.93.84 2.82 1.6 1.38 1.18 1.39 2.51 1.3 4.01-.87-.53-1.53-1.32-2.35-1.92.23-.03.48.05.71-.24-.21-.29-.18-.7-.24-.89-.59-.98-1.63-1.06-2.2-1.78-.38.08-.75-.09-1.1.2-.01.13-.09.34-.02.43.62.79 1.18 1.69 2.32 1.79.33.03.53.13.52.49-.3.05-.56-.35-1 0 1.02 1.03 2.05 2 3.19 2.85.04.35.53.48.44.9z" class="g"/><path d="M88.35 21c-.3-.29-.54-.02-.73.12l-3.97 2.68c-.06.04-.08.13-.12.21-.69-.34-1.18.13-1.64.44h-1.98c.34-.43.86-.5 1.33-.62.49-.13.96-.24 1.34-.59.21-.02.49.05.4-.33-.07-.03-.16-.09-.2-.07-.09.05-.16.14-.24.21-1.52-.24-2.91.52-4.34.51-.2.22-.1.55-.41.61l.48-2.2c.07-.33.22-.59.61-.61l.84-.01c-.01.47-.86.72-.28 1.4 1.46.21 2.83-.57 4.3-.69.23-.02.42-.21.5-.55l-.29-.56c-.39-.18-.93-.03-1.12-.56 1.35-.41 2.72-.47 4.12-.45.76.01 1.29.28 1.73.81-.01.25-.17.24-.33.25z" class="q"/><path d="M65.13 17.31c.04 1.25 1.15 2.11 1.22 3.34.59.63 1.32 1.09 1.89 1.74.32.37.78.58 1.31.71.68.16 1.32.51 1.51 1.3l-.02.04c-.12.02-.18.09-.2.21-.51.72-1.33.5-1.9.36-1.4-.33-2.65-1.06-3.51-2.29-.34-.48-.58-1-.51-1.65.06-.58-.2-1.13-.42-1.67-.39-.98-.21-1.48.63-2.09zm3.93 7.07c.17.03.25-.05.26-.17 0-.06-.04-.16-.09-.18-.11-.05-.23-.01-.27.11s.02.21.1.24z" class="m"/><path d="M2.92 29.73c.37.92 1.17 1.5 1.76 2.25.31.39.94.52.91 1.22 1.16.14 2.24.63 3.45.49.24-.03.73.04.94.53.53-1.06.97.36 1.53-.07-.4 1.08-1.35 1.16-2.21 1.31-.5.09-1.03.01-1.54.01l-.09-.67c-.72.35-1.2-.36-1.86-.27-.86-.55-1.82-.92-2.57-1.64-.68-.66-1.14-1.38-1.03-2.38.05-.48.21-.77.71-.78z" class="j"/><path d="M73.97 15.8c-.38.22-.51-.24-.57-.34-.91-1.55-1.34-3.28-1.56-5.02-.1-.82.25-1.69.41-2.56-.08-.21-.26-.22-.47-.18.27-.41.84-.33 1.06-.67h1.17c.66 1.06 1.24 2.14 2.31 2.87.36.25.66.76.55 1.32l-.47.51-.25-.02c-.51-1.62-1.46-2.82-3.2-3.34-.14.25-.43.43-.31.86.72.34.76 1.24 1.32 1.77-.29.33-.35.76-.46 1.16-.37.27-.18.61-.15.95.08.94.73 1.73.62 2.69z" class="q"/><path d="M84.06 32.36h-1.21c-.22-.04-.4-.16-.65-.18-1.16-.12-2.28.32-3.44.19.01-.44.57-.76.26-1.19.7-.83 1.81-.57 2.51-1.22h3l.73-.02c.08.01.15.04.21.09l.92 1.71c-.41.11-.67.41-.92.58-.45.1-.45-.36-.73-.41-.33-.02-.7-.09-.68.45z" class="n"/><path d="M74.92 24.93c-.03.4.13.79 0 1.19l.21.92.01.05c-.12.02-.21.07-.23.21l-.02.02c-.3.14-.25.41-.25.66-.23 1.03-.37 2.09-.72 3.07-.38 1.05-.36 2.22-1 3.19l-.41-.25-.01-.9c.01-1.31.6-2.5.87-3.76.19-.92.17-1.69-.27-2.48-.07-.13-.08-.3-.12-.45.15-.26.3-.31.5-.03.09.14.19.37.41.11.3-.56.15-1.26.55-1.79.04-.13.13-.2.25-.24h.1.1l.03.48z" fill="#229277"/><path d="M15.87 70.51c-.24.4-.64.24-.97.25-1.18.05-3.14 1.69-3.06 2.97l2.27 1.21c.18.1.33.24.08.43-.53-.01-1.11.19-1.5-.38-1.21.61-2.35-.75-2.29-2.77.2-.32.54-.53.78-.86.65-.87 1.69-.95 2.66-1.06.67-.08 1.36 0 2.04 0-.01.08-.01.15-.01.21z" class="e"/><path d="M70.1 48.88c-1.05.42-1.47-.3-1.89-1.03.03-.61.56-.64.95-.7.95-.16 1.72-.7 2.62-1.02l-.27-.71h0c.03-.04.06-.07.1-.1l.55-.04c.57 0 .99.22 1.22.77-.01.59-.63.78-.81 1.25-.23.31-.59.45-.9.65l-.23.23c-.56.02-.96.34-1.34.7z" fill="#99250b"/><path d="M76.38 11.74l.47-.51c1.01 1.03.91 2.33.68 3.55-.15.81-.53 1.65-1.23 2.23-.18.06-.2.21-.23.36-.01.07-.04.11-.11.13-.04.02-.06.06-.07.1-.02.07-.07.1-.15.09-.12-.09-.22-.23-.4-.19-.27-.37-.31-.78-.2-1.21l.88-1.34c-.37-.63.01-1.12.17-1.63.23-.03.45.16.56-.19-.64-.3.04-.98-.37-1.39z" class="m"/><path d="M71.51 45.42l.27.71c-.9.32-1.68.85-2.62 1.02-.39.07-.91.1-.95.7-.58-.76-.63-1.52-.11-2.24.23-.32.49-.61.84-.8.12.04.22.02.28-.11l.02-.01c.31-.04.62-.05.86-.3l.74.24c-.01.17-.05.36.17.44.17.02.26-.08.35-.19.23.06.2.27.25.44-.04.02-.07.06-.1.1z" fill="#d63711"/><path d="M73.69 49.18c.43.38.88.75 1.22 1.22.08.17-.12.45.19.56l.05-.24c1 1.17 1.93 2.39 2.2 3.96l.15 1.07c-.14.35-.37.34-.61.35-.59-2.03-1.7-3.78-2.95-5.46l.18-.5h-.66c-.3-.15-.28-.5-.45-.73.22-.1.41-.28.68-.23z" fill="#229277"/><path d="M82.84 20.39c.19.53.73.38 1.12.56l.29.56c-.07.34-.27.53-.5.55-1.47.12-2.84.89-4.3.69-.58-.68.27-.93.28-1.4.5-.26.96-.62 1.59-.53.23.03.29-.21.33-.41l.48-.03c.16-.01.32.3.48-.01.08-.01.15-.01.23.02z" class="n"/><path d="M15.87 70.51v-.2c1.98-.35 3.94-.79 6-.58 1.14.11 2.33-.26 3.49-.47 1.17-.21 2.33-.43 3.51-.41.61.01 1.17-.09 1.65-.48l.48.51c-.49.43-1.08.09-1.6.22-2.03.5-4.12.61-6.19.92-.9.13-1.82.15-2.72.2l-4.62.29z" class="d"/><path d="M75.16 16.29c-.1.43-.07.84.2 1.21l.03.44-.03.03c-.06-.01-.13 0-.19.02-.48.39-.2.93-.26 1.39-.04.33.09.73-.45.75-.2-.39-.15-.79-.04-1.19-.3-1.02.12-2.15-.46-3.13.12-.97-.53-1.76-.63-2.68-.04-.35-.23-.68.15-.95.56.33 1.01.76 1.26 1.39-.1.16-.43.16-.39.49l.31.11c.08.31-.14.7.25.92.26.36.27.78.25 1.2z" class="k"/><path d="M84.53 29.96h-3c-.7.65-1.81.39-2.51 1.22.31.42-.25.74-.26 1.19-.57.41-1.26.51-1.91.69-.01-.07-.01-.14-.01-.21a5.01 5.01 0 0 1 1.7-2.4c.33-.01.69.03.72-.46a.33.33 0 0 1 .19-.06c.56.07 1.05-.11 1.48-.47a1.77 1.77 0 0 0 .23.01c.7-.02 1.39.15 2.1.01.47-.08.93.09 1.27.48z" class="g"/><path d="M71.61 45.31c-.05-.16-.02-.37-.25-.44-.19-.07-.24-.23-.27-.41-.36-1.47-.37-2.96-.29-4.45.01-.22-.12-.73.46-.54-.27.47-.23.95-.06 1.49.7-.31.05-1.1.59-1.4l.15 4.93c.02.29.15.52.23.77l-.56.05z" class="h"/><path d="M70.1 48.88c.38-.36.78-.68 1.34-.72.01.85-.36 1.62-.66 2.35-.49 1.18-.42 2.36-.28 3.53.09.75.5 1.48 1.05 2.06.1.11.15.16.02.26-.35-.01-.59.13-.71.46-.36-.24-.49-.63-.53-1.02-.14-1.28-.56-2.53-.32-3.86.18-.95.06-1.96.56-2.79-.15-.24-.32-.22-.47-.27zM24.28 25.89c.02.47-.3.52-.64.47-2.55-.35-5.05-.85-7.33-2.14l.55-.03c.69 0 1.29.34 1.92.53 1.81.53 3.69.66 5.5 1.17z" class="e"/><path d="M82.58 23.23c-.38.34-.85.46-1.34.59-.47.12-.99.19-1.33.62l-.09-.01h-.09l-.47.02c-.42-.13-.47.35-.75.45-.32-.34-.83-.14-1.17-.42.01-.3.26-.28.45-.34.31-.06.21-.39.41-.61 1.43.01 2.82-.75 4.34-.51.03.09.04.15.04.21z" class="k"/><path d="M66.76 41.7c-.27-.02-.58.04-.82-.06-1.59-.62-2.94-.08-4.23.81-.28.19-.5.68-.95.23.57-.73 1.34-1.21 2.18-1.64 1.09-.08 2.21-.5 3.36-.05.25.1.43.17.47.45l-.01.26z" class="c"/><path d="M77.35 24.5c.34.28.85.08 1.17.42-.09.24-.27.45-.24.73-.35-.03-.36-.51-.75-.53-.73.71-1.67 1.16-2.38 1.93l-.21-.92c.12.01.32.05.34.01.37-.95 1.21-1.3 2.07-1.64z" class="h"/><path d="M2.68 14.85c-.09-.26-.27-.41-.52-.51.02-.19-.01-.4.22-.63 1.06-.13 1.7.61 2.29 1.36.38.48.6 1.09 1.12 1.47l.01.42c-.44.06-.56-.29-.79-.56-.63-.71-1.18-1.59-2.33-1.55z" class="c"/><path d="M69.15 20.86c.81.6 1.48 1.39 2.35 1.92l.05.27c-.03.23.11.52-.2.66-1.14-.85-2.17-1.83-3.19-2.85.43-.36.69.05.99 0h0z" class="k"/><path d="M71.34 23.7c.32-.14.17-.43.2-.66.96 1.02 1.84 2.1 2.34 3.43-.22.26-.32.02-.41-.11-.19-.28-.35-.23-.5.03-.48-.54-.65-1.29-1.2-1.78.1-.42-.39-.55-.43-.91zm3.13-3.58c.54-.02.41-.42.45-.75.06-.47-.22-1 .26-1.39l-.05 6.46c-.01.19-.05.37-.21.49l-.04-.49.04-1.19c.02-.3-.13-.44-.41-.48-.17-.88-.03-1.76-.04-2.65z" class="h"/><path d="M16.87 24.19l-.55.03c-1.25-.26-2.36-.8-3.4-1.52-.15-.1-.14-.27-.15-.43 1.46.43 2.79 1.14 4.1 1.92z" class="d"/><path d="M73.69 49.18c-.27-.05-.45.13-.67.22-.69-.27-.77-1.1-1.35-1.47.31-.2.67-.34.9-.65.19.74.79 1.24 1.12 1.9z" class="h"/><path d="M84.53 29.96c-.34-.39-.8-.56-1.29-.47-.71.13-1.4-.03-2.1-.01.93-.8 2.03-.31 3.12-.46.17.48.78.47 1 .92l-.73.02z" class="f"/><path d="M11.57 21.57c-1.21-.28-2.11-1.11-3.09-1.79-.21-.14-.28-.36-.28-.61.16.01.38-.04.46.05.85.92 2.15 1.3 2.91 2.35z" class="c"/><path d="M81.65 20.41c-.03.2-.09.44-.33.41-.63-.09-1.09.27-1.59.53l-.84.01c.02-.72.93-.41.95-.94l1.81-.01z" class="p"/><path d="M75.13 24.44l.05-6.46a.4.4 0 0 1 .19-.02c-.2 1.99-.02 4-.13 5.99-.01.16.16.39-.11.49z" class="g"/><path d="M5.8 16.97l-.01-.42c.49.5.9 1.06 1.48 1.49.28.2.7.4.68.89-1.14-.19-1.75-.96-2.15-1.96z" class="d"/><path d="M66.76 41.7l.01-.26c1.09.16 1.83.83 2.41 1.71h-.47c-.56-.59-1.24-1.03-1.95-1.45z" class="e"/><path d="M76.89 56.09c.24 0 .47 0 .61-.35l-.15-1.07c.76.72.35 1.43.12 2.17-.68-.02-.58-.42-.58-.75z" fill="#97b6d4"/><path d="M68.71 43.16h.47c.53.24.5.89.92 1.22-.23.25-.55.27-.86.3.1-.6-.41-.99-.53-1.52z" class="c"/><path d="M5.8 34.52c.66-.09 1.14.62 1.86.27l.09.67-.29.02c-.32-.45-.81-.13-1.2-.26.1-.4-.37-.42-.46-.7z" class="l"/><path d="M72.51 35.95c-.1-.43-.1-.89-.48-1.21v-.45h.25c.11.31.41.19.63.27-.2.45-.05.99-.4 1.39z" class="h"/><path d="M74.52 22.77c.28.04.42.18.41.48l-.04 1.19h-.1-.1c-.07-.25-.33-.44-.21-.74-.02-.31-.11-.62.04-.93z" fill="#1d9377"/><path d="M6.26 35.22c.39.13.88-.19 1.2.26a4.96 4.96 0 0 1-1.91.25l-.01-.24c.14-.02.22-.1.28-.22l.44-.05z" class="j"/><path d="M9.64 80.85c.7.33.81.63.45 1.21-.56-.25-.44-.76-.45-1.21z" class="d"/><path d="M1.99 14.34c-.31.11-.24.48-.41.72h-.6c.23-.38.12-1.26 1.01-.72z" class="c"/><path d="M80.92 29.47c-.43.36-.91.54-1.48.47.41-.44.87-.69 1.48-.47z" class="f"/><path d="M12.77 22.29c-.58.05-.98-.21-1.21-.73.5.07.93.27 1.21.73z" class="c"/><path d="M74.48 23.7c-.12.3.13.5.21.74-.12.03-.21.11-.25.24-.35-.34-.39-.67.04-.98z" class="h"/><path d="M16.34 91.18l.03.22c-.33-.15-.63.51-.96.03.22-.42.61-.19.93-.25z" class="l"/><path d="M72.51 33.08l.01.9-.25.3.01.01-.1-.55.33-.66z" class="h"/><path d="M60.04 44.13l-.02-.49c.11-.22.26-.41.5-.5-.03.39-.14.75-.48.99h0z" class="d"/><path d="M79.25 30c-.03.49-.39.45-.72.46.14-.31.34-.53.72-.46z" class="f"/><path d="M22.84 52.53v-.22c.28-.06.48.15.72.22-.24.34-.48.33-.72 0z" class="d"/><path d="M21.64 62.35c.32.05.71-.16.95.24-.35-.04-.66.09-.94.27l-.01-.51z" class="o"/><path d="M73.46 50.13h.66l-.18.5c-.24-.09-.36-.29-.48-.5z" class="h"/><path d="M72.04 34.3v.45c-.57-.2-.13-.63-.22-.95a.67.67 0 0 0 .2 0l.02.5z" class="e"/><path d="M71.09 44.47c.03.18.08.34.27.41-.09.12-.19.22-.35.19-.22-.08-.18-.27-.17-.44s.13-.17.25-.16z" fill="#f9a383"/><path d="M75.13 34.27c.19.09.3.2.14.41-.26.07-.31-.11-.34-.3.04-.07.11-.11.2-.11z" class="k"/><path d="M72.27 34.28l.25-.3.41.25-.02.33c-.22-.08-.52.04-.64-.28z" class="f"/><path d="M.97 15.06c.05.33-.09.5-.43.51-.03-.32.11-.49.43-.51z" class="c"/><path d="M24.57 25.41c.28.19.17.47.17.73l-.25-.26.08-.47z" class="e"/><path d="M60.29 26.62l-.29.48a.29.29 0 0 1-.12-.39c.11-.11.25-.12.41-.09z" class="f"/><path d="M75.4 17.93l-.03-.44c.18-.04.28.1.4.19-.05.21-.21.23-.37.25z" class="g"/><path d="M7.25 41.23c.24.06.56-.08.68.27-.25-.04-.56.08-.68-.27z" class="o"/><path d="M74.65 27.98c-.01-.25-.05-.52.25-.66-.03.24.05.52-.25.66z" class="f"/><path d="M75.14 50.72c-.01.07-.03.14-.05.24-.3-.11-.11-.39-.19-.56.2.02.25.15.24.32z" class="h"/><path d="M82.61 20.37c-.15.31-.32 0-.48.01.16-.2.32-.18.48-.01z" class="q"/><path d="M76.08 17.37c.02-.15.05-.3.23-.36-.04.14.05.36-.23.36z" class="g"/><path d="M5.81 35.26a.34.34 0 0 1-.28.22c-.17-.41.19-.15.28-.22z" class="l"/><path d="M72.04 34.3l-.02-.5a.44.44 0 0 1 .16-.06l.1.55-.24.01z" class="f"/><path d="M1.21 20.87c-.13-.03-.21-.11-.22-.25l.01-.01.24.24-.03.02z" class="t"/><path d="M70.85 24.65c.02-.12.09-.19.2-.21.03.17-.07.21-.2.21z" class="g"/><path d="M73.28 18.65c.04-.03.09-.03.14-.02.03.09.06.19-.09.19-.02-.01-.03-.12-.05-.17zm-.25-.22c.13.01.22.07.24.21-.17.03-.24-.05-.24-.21z" class="s"/><path d="M75.91 17.6c.01-.04.03-.08.07-.1.01.02.04.05.04.07-.02.08-.06.09-.11.03z" class="g"/><path d="M74.91 27.3c.02-.14.12-.18.23-.21-.01.14-.09.21-.23.21z" class="f"/><path d="M64.13 49.18c-1.72.03-2.53-1.07-3.13-2.5.22-.44.66-.76.66-1.2.56-.24 1-.15 1.49-.14.48.39.92.92 1.52 1.05.61 1.09.51 1.98-.54 2.79z" fill="#f9a383"/><path d="M55.01 53.01c.26.11.29.56.7.47l.01.25c-.09.83-.66 1.44-1.09 2.07l-4.29 5.76c-.57.66-1.25 1.18-2.05 1.54-.2-.02-.4-.01-.49-.25 1.13-1.04 2.28-2.08 3.05-3.43.63-1.11 1.57-1.97 2.27-3.04.71-1.09 1.31-2.22 1.89-3.37zM22.82 72.66c-.5-.25-.96-.39-1.42-.88 1.64-.71 3.22-1.06 5.07-.65-.96 1.32-2.46.99-3.65 1.53z" class="j"/><path d="M63.66 44.53c-.04-.58.29-.79.34-1.03.46-.22.8-.11 1.14 0 .42.52.9 1 .56 1.82-.4.5-.94.27-1.47.17-.25-.32-.48-.64-.57-.96z" fill="#0c3c33"/><path d="M27.74 70.12c.87-.06 1.74-1.02 2.82-.14-.99.95-1.9 1.7-3.26 1.06-.01-.41.16-.66.44-.92z" class="e"/><path d="M23 92.85c.36.18.4.47.58.78-.52.59.19 1.85-1.1 2.13-.86-1.03-.64-2.21.52-2.91z" class="r"/><path d="M17.49 71.77c.72.29 1.61.08 2.08.87-1.14.77-1.83.75-2.67-.08-.02-.38.25-.55.59-.79zm11.14 1.88l-.9.65c-.38.07-.73.08-1.09-.01-.25-.28-.21-.57-.05-.86 1.19-.73 1.48-.71 2.04.22z" class="e"/><path d="M51.68 64.79c-.15 1.18-1.05 1.71-2.4 1.53.39-1.21 1.56-1.1 2.4-1.53zM18.93 87.24c-.18-.97.34-2.05 1.3-2.71.3.95-.25 2.08-1.3 2.71zM55.72 63.7c-.62.15-.8.91-1.49.79-.08-.58-.08-.58.26-1.24.53-.12 1.06-.35 1.13-1.14.66.58.04 1.02.1 1.59z" class="c"/><path d="M21.16 75.82c-.31-.23-.68-.17-.88-.45.55-.87.94-.99 2.19-.68-.07.77-.8.76-1.31 1.13z" class="e"/><path d="M47.8 62.85c.09.23.29.23.49.25-.81 1-1.95 1.49-3.11 1.94l-.27-.51c1.06-.42 2.05-.92 2.89-1.68z" class="d"/><path d="M52.66 61.43c.18 1.03-.01 1.29-1.31 1.82-.09-.5-.08-.61.11-1.22.39-.19.65-.66 1.2-.6zm4.52-5.46c.32.98.18 1.78-.83 2.34-.39-1.11.24-1.71.83-2.34z" class="c"/><path d="M54.05 61.91c.06-.99.36-1.61 1.16-1.97.24.77-.04 1.28-1.16 1.97zM32.1 93.11c-.18-.61-.3-1.07.22-1.4.28-.04.41.1.56.34-.08.38-.2.76-.78 1.06zm25.87-33.8c.45.26.44.59.33.95-.22.23-.47.2-.81.07-.03-.43.18-.74.48-1.02z" class="d"/><path d="M55.72 53.73l-.01-.25c0-.33.16-.49.5-.47-.18.23-.21.56-.49.72z" class="e"/><path d="M29.8 90.69c.03-.04.07-.08.04-.06.03-.02-.01.01-.05.05z" class="s"/><path d="M69.22 44.69c-.06.13-.16.15-.28.11.05-.13.14-.17.28-.11z" class="c"/><path d="M60.04 44.13c-.04.04-.08.08 0 0-.09.07-.05.03 0 0h0z" class="d"/><path d="M37.49 35l3.17 2.96c1.19 1.01 1.92 2.39 3.17 3.31.51.38.73 1.03.68 1.76-2.74-2.55-5.09-5.32-7.75-7.78.15-.33.46-.22.73-.25z" class="c"/><path d="M34.6 33.33c-.19.34-.47.26-.7.09-.44-.33-.95-.56-1.13-.78l-6.81-2.47v-.66c2.87.59 5.58 1.63 8.18 3 .17.09.38.14.46.35v.47z" class="e"/><path d="M9.27 37.57c-.12-.32-.11-.52-.03-.74.08-.04.19-.13.29-.12 1.01.06 2.04-.27 3.01.4.39.27 1.03.08 1.56-.01-1.53 1.04-3.14.95-4.83.47z" class="r"/><path d="M23.34 54.12c1.46-.22 3.03.52 3.5 1.6-1.34.32-3.06-.43-3.5-1.6zm-7.46-13.84c-.59.04-1.12-.04-1.37-.67 1.36-.7 3.45.08 4.01 1.7-.96-.41-1.91-.36-2.64-1.03.06-.04.22-.02.09-.17-.03.07-.06.12-.09.17zm.07-.6l.06.04.01-.06-.07.02z" class="c"/><path d="M18.89 44.79c.63.45 1.52.27 1.99 1.01-.95.32-2.92.34-4.01.05-.04-.61.45-.81.83-.72.48.12.76-.11 1.19-.34z" class="r"/><path d="M4.68 25.06c1.08.69 2.25.93 2.71 2.17-1.51.13-2.69-.71-2.71-2.17z" class="c"/><path d="M29.4 62.79c0-.14-.03-.23.01-.29.05-.1.14-.18.2-.25.54-.18 2.23.98 2.79 1.93-1.43.33-2.07-.86-3-1.39z" class="e"/><path d="M9.12 22.22c-1.45-.2-2.12-.75-2.48-1.98.88.09 2.25 1.14 2.48 1.98z" class="c"/><path d="M34.6 33.33l-.01-.48c1.09.55 2.09 1.21 2.89 2.15-.26.03-.58-.09-.73.25l-.86-.56c-.54-.35-1.03-.75-1.29-1.36z" class="d"/><path d="M50.99 51.26c.8.08.95.58 1.1 1.22-1.18.04-1.54-.85-2.07-1.48.02-.37.13-.63.44-.81.33.27.48.61.53 1.07zm-4.87-3.76h.73c.33.31.5.69.47 1.15.63.3.63.3.84 1.13-.81-.06-1.84-1.21-2.04-2.28z" class="c"/><path d="M24.76 29.94c-.9-.48-2.04-.38-2.81-1.22.98.09 2.04-.15 2.8.77l.01.45z" class="d"/><path d="M24.04 59.96c.82.15 1.34.7 1.84 1.29-1-.05-2.02.02-2.55-1.03l.46.14.25-.4zM4.27 16.85c-.04 1.02 1.02 1.29 1.05 2.22-1.6-.74-1.98-1.4-1.05-2.22z" class="c"/><path d="M15.49 44.38c-.33-.1-.55-.29-.55-.42.03-.57.37-.5.49-.72.32.28.46.72.93.66-.02.64-.52.42-.87.48z" class="i"/><path d="M25 51.81h.47l.22.48c-.17.5-.55.49-.94.48l.01.01c.17-.31.31-.61.24-.97z" class="d"/><path d="M24.75 26.14c.42.11 1.04-.36 1.22.43-.48.04-.96.12-1.22-.43zm.01 3.8l-.01-.45c.24-.03.47-.46.73-.02-.01.2-.01.4-.24.49-.15 0-.31-.01-.48-.02z" class="e"/><path d="M24.04 59.96l-.26.4-.46-.14c.08-.55.3-.67.72-.26z" class="i"/><path d="M25.25 29.96c.23-.09.23-.29.24-.49l.48.03v.66c-.27.01-.56.13-.72-.2z" class="c"/><path d="M44.2 64.53c.02.46-.32.49-.63.64l-.1-.39c.24-.1.44-.29.73-.25z" class="d"/><path d="M54.26 52.05c.51-.04.5.31.5.66-.36-.07-.47-.33-.5-.66z" class="j"/><path d="M24.75 52.76c-.19.39-.49.19-.77.15.23-.21.52-.12.77-.15h0z" class="c"/><g class="d"><path d="M44.92 64.52c-.08 0-.17 0-.25-.01l.13-.15a2.22 2.22 0 0 0 .12.16z"/><path d="M44.44 64.52l-.24.01.12-.16.12.15z"/></g><path d="M46.12 47.49l-.12-.12.07-.07c.04.04.08.09.11.13-.03.02-.04.04-.06.06z" class="c"/><path d="M57.72 41.2c-.8.52.21.92-.25 1.44-.1.1-.33.04-.63-.01-.76-1.14-1.44-2.36-2.17-3.77a3.06 3.06 0 0 1 1.78.96c.42.42.5 1.1 1.27 1.38zM38.57 4.34l.72-.16c.32.51-.4 2.76-1.09 3.39-.72-.99-.71-1.06.37-3.23zm6.79 27.98c1.89.11 2.63 1.26 3.46 2.71-1.58-.49-2.65-1.22-3.46-2.71zM30.07 15.53l.82-1.2c.45 1.26.5 2.4.6 3.58-.93-.23-1.38-1.06-1.42-2.38zm3.9-2.84c-.9-.87-.7-2.46.49-3.66.31 1.36-.09 2.47-.49 3.66zm16.47 23.52c1.11-.27 1.57-.12 2.12.81.13.22.21.24.42.25.15.01.24.19.29.41-.33.35-.77.17-1.24.19-.37-.68-1.58-.57-1.59-1.66h0zM36.98 11.22c.03-1.04.8-1.53 1.5-2.09.28 1.06-.45 1.77-.78 2.59-.2.05-.36.29-.66.09l-.06-.59z" class="l"/><path d="M28.55 17.04v2.23c-.36.09-.68.04-.99-.07-.14-1.32.1-1.92.99-2.16z" class="i"/><path d="M33.32 18.35c-.52-1.07-.86-1.94-.52-2.95.75.53 1 1.76.52 2.95z" class="l"/><path d="M30.01 20.43c.15-.29.24-.46.57-.49.53.64.73 1.42.84 2.33-1.01-.28-1.13-1.09-1.41-1.84zm6.97-9.21l.06.6c.3.2.46-.05.66-.09-.06.82-.71 1.27-1.07 2-.53-.5-.3-.99-.37-1.48l.72-1.03zm4.27-6.37c-.42.34-.2.75-.17 1.17l-.82 1c-.21-.89-.24-1.55.22-2.16.21-.13.44-.13.77-.01z" class="i"/><path d="M50.44 36.21l-.42.14c-.07-.29-.13-.54.14-.79.4.09.24.41.28.65h0z" class="d"/><path d="M27.98 20.03c.13-.17.31-.22.5-.27.19.21.16.38-.06.54-.24.05-.34-.12-.44-.27z" class="i"/><path d="M70.68 71.17c-.32-1.16.62-1.73.93-2.56.94.25.58.91.68 1.44-.48.41-.48 1.43-1.61 1.12zm-6.11 10l-1.4.83c-.51.04-.55-.43-.94-.62l1-.92c.4-.14.79-.1 1.18-.04.25.18.2.42.16.75zm3.28-2.44c-.43-.5-.43-.5-.58-1.08l.91-.84c.41-.04.7.13.96.41.03.93-1.02.85-1.29 1.51zm5.1-10.99c-.25-.83-.82-1.5-.04-2.21.87.67.92 1.43.04 2.21zm-5.38 8.25c-.28 0-.38-.12-.5-.28-.1-.35.21-.63.24-.98.41-.26.8-.58 1.34-.2-.02.78-.66 1.07-1.08 1.46z" class="l"/><path d="M70.45 74.77c-.18-.6.22-.78.46-1.06.24.11.49.13.62.46-.24.34-.44.76-1.08.6zm1.52-2.28c.07.71-.17.96-.83.85-.1-.63.13-.88.83-.85zM20.32 91.48l.03.07-.07-.01zm-.23.48l.02.07-.06-.01z" class="i"/><path d="M12.99 46.05c0-.49.42-.54.73-.71-.01.48-.26.7-.73.71z" class="d"/><path d="M76.39 34.24c-.02-.15 0-.29.13-.38.17-.04.27.05.33.19-.09.21-.27.23-.46.19z" class="k"/><path d="M85.26 34.79c.19 0 .4-.07.58.06-.23.29-.41.24-.56-.07l-.02.01z" class="i"/><path d="M76.85 33.06c.65-.19 1.34-.29 1.91-.69 1.15.13 2.28-.3 3.44-.19.25.02.43.14.65.18l.47.55c-1.2.27-2.3.17-3.69.09-.42.13-1.02.69-1.82.57-.17-.46-.82-.02-.96-.51z" class="k"/><path d="M84.06 32.36c-.03-.54.35-.47.69-.45-.13.3-.36.45-.69.45z" class="f"/><path d="M70.87 12.3c.22.06.33.12.29.29-.18.07-.25-.02-.29-.29z" class="g"/><g class="n"><path d="M64.88 28.52h-1.65c-.31-.21-.64-.59-1.11-.53-.41-.67.13-.9.45-1.26.68.15 1.34.47 2.06.37.22.36.72.46.71.94l-.03.03c-.33-.02-.47.14-.43.45z"/><path d="M65.33 28.04c.15.02.3.01.39.16.05.35-.25.29-.43.36v-.01l.02-.48.02-.03z"/></g><path d="M65.3 28.07l-.02.48h-.07l-.07.01-.26-.04c-.04-.31.1-.47.42-.45zm-1.25 1.02c.07.33-.02.42-.27.32-.05-.19.06-.25.27-.32z" class="f"/><path d="M1.24 20.85L1 20.61l.07-.31c.29-.07.42.13.58.2-.01.34-.23.32-.41.35z" class="i"/><path d="M80.31 25.52c.11-.2.2-.43.55-.2-.09.33-.25.4-.55.2z" class="g"/><path d="M79.27 24.46l.47-.02c-.15.24-.3.33-.47.02z" class="p"/><path d="M69.15 20.85c.01-.36-.18-.46-.52-.49-1.14-.1-1.7-1-2.32-1.79-.07-.09.01-.3.02-.43.34-.29.71-.12 1.1-.2.57.72 1.61.79 2.2 1.78.06.19.03.59.24.89-.24.3-.49.22-.72.24h0z" class="n"/><path d="M82.58 23.23a.58.58 0 0 0-.03-.19c.08-.07.15-.17.24-.21.04-.02.13.04.2.07.08.38-.2.31-.41.33z" class="f"/><path d="M69.06 24.38c-.09-.03-.14-.13-.1-.24.04-.12.16-.16.27-.11.05.02.1.12.09.18-.01.12-.08.2-.26.17z" class="i"/><path d="M73.94 11.01c-.56-.52-.6-1.43-1.32-1.77-.12-.43.17-.61.31-.86 1.74.52 2.69 1.72 3.2 3.34-.03.37-.19.66-.43.91-.72.2-1.07-.32-1.21-.79-.11-.38-.37-.55-.55-.83z" class="n"/><path d="M73.94 11.01c.18.27.44.45.55.83.14.47.49.99 1.21.79a1.47 1.47 0 0 0 .43-.91l.25.02c.4.41-.28 1.09.38 1.39-.11.35-.33.16-.56.19-.16.51-.54 1-.17 1.63l-.88 1.34c.02-.42.01-.84-.25-1.2.39-.62.36-.74-.25-.92l-.31-.11c-.04-.33.29-.33.39-.49-.24-.63-.7-1.06-1.26-1.39.12-.41.18-.83.47-1.17z" class="p"/><path d="M74.66 14.16c.61.18.64.31.25.92-.39-.22-.17-.61-.25-.92z" class="m"/><g class="o"><path d="M15.88 40.28c.03-.05.06-.11.09-.17.13.15-.03.14-.09.17z"/><path d="M15.95 39.68l.07-.02-.01.06z"/></g></svg>