<?xml version="1.0" encoding="utf-8"?>
<!-- Generator: Adobe Illustrator 24.2.3, SVG Export Plug-In . SVG Version: 6.00 Build 0)  -->
<svg version="1.1" id="Layer_1" xmlns="http://www.w3.org/2000/svg" xmlns:xlink="http://www.w3.org/1999/xlink" x="0px" y="0px"
	 viewBox="0 0 88.98 100.18" style="enable-background:new 0 0 88.98 100.18;" xml:space="preserve">
<style type="text/css">
	.st0{fill:#E5F3F9;}
	.st1{fill:#97B6D4;}
	.st2{fill:#9CBAD3;}
	.st3{fill:#9DBAD4;}
	.st4{fill:#9EBBD5;}
	.st5{fill:#A0BCD6;}
	.st6{fill:#A2BED6;}
	.st7{fill:#1CAB88;}
	.st8{fill:#28DEB7;}
	.st9{fill:#1DAD8A;}
	.st10{fill:#2CDFB9;}
	.st11{fill:#A4BED7;}
	.st12{fill:#1D9377;}
	.st13{fill:#31DFBB;}
	.st14{fill:#07F9D7;}
	.st15{fill:#229277;}
	.st16{fill:#A8C2D8;}
	.st17{fill:#99250B;}
	.st18{fill:#D63711;}
	.st19{fill:#B9CBDC;}
	.st20{fill:#039876;}
	.st21{fill:#479781;}
	.st22{fill:#AEC4DA;}
	.st23{fill:#75E3CE;}
	.st24{fill:#D2E8F6;}
	.st25{fill:#F9A383;}
	.st26{fill:#0C3C33;}
	.st27{fill:#C7E1F6;}
</style>
<g>
	<g>
		<path class="st0" d="M59.32,42.93c0.35,0.12,0.12,0.81,0.7,0.71c0.01,0.16,0.01,0.32,0.02,0.49c-0.04,0.04-0.09,0.08,0,0
			c-0.08,0.08-0.04,0.04,0,0c0.35-0.24,0.45-0.6,0.48-0.99c0-0.19,0.02-0.37,0.24-0.45c0.44,0.45,0.67-0.04,0.95-0.23
			c1.29-0.89,2.64-1.43,4.23-0.81c0.24,0.1,0.54,0.04,0.82,0.06c0.71,0.41,1.39,0.85,1.95,1.46c0.12,0.53,0.63,0.92,0.53,1.52
			l-0.02,0.01c-0.13-0.07-0.22-0.02-0.28,0.11c-0.35,0.2-0.62,0.48-0.84,0.8c-0.51,0.73-0.47,1.48,0.11,2.24
			c0.42,0.73,0.85,1.45,1.89,1.03c0.15,0.04,0.32,0.03,0.46,0.27c-0.5,0.83-0.38,1.84-0.56,2.79c-0.25,1.33,0.18,2.58,0.32,3.86
			c0.04,0.39,0.17,0.78,0.53,1.02c0.33,0.46,0.54,0.95,0.48,1.55c-0.03,0.31-0.02,0.65,0.06,0.95c0.41,1.53,0.4,3.13,0.09,4.6
			c-0.4,1.95-0.59,4-1.6,5.78c-0.88,1.55-1.53,3.32-3.36,4.1c-0.06,0.03-0.1,0.12-0.13,0.15c-0.21,0.31,0.25,0.53-0.05,0.91
			c-3.85,3.78-8.51,6.15-14.18,6.84c-0.25,0.21-0.67,0.35-1.18,0.36c-1.85,0.04-3.52,0.8-5.21,1.43c-1.16,0.43-2.14,1.24-3.25,1.76
			c-1.35,0.64-2.52,1.52-3.48,2.6c-0.62,0.7-1.8,1.07-1.63,2.26c-0.3,0.32-0.54,0.59-0.84,0.92c0.08,0.29,0.07,0.57-0.19,0.9
			c-0.6,0.78-1.11,1.63-1.69,2.43c-0.78,1.09-2.57,1.57-4.12,0.98c-0.62-0.97-0.88-2.08-0.72-3.18c0.08-0.54,0-1-0.07-1.49
			c0.04-0.03,0.08-0.07,0.05-0.05c0.02-0.03-0.01,0.01-0.04,0.06c-0.28-0.01-0.56-0.04-0.79,0.23c-0.31,0.73-0.49,1.61-0.99,2.22
			c-0.51,0.62-0.93,1.31-1.48,1.91c-0.4,0.44-0.91,0.92-0.82,1.64l0.01-0.01c-0.6,0.07-0.93,0.5-1.32,0.9
			c-0.57,0.59-1.16,1.23-2.09,0.92c-1.44-0.61-1.23-2.22-1.99-3.13c-0.02-0.64,0.51-1.18,0.01-1.75c0.27-0.16,0.55-0.3,0.54-0.62
			c-0.05-0.98,0.43-1.66,1.18-2.2c0.37-0.26,0.61-0.58,0.44-0.98c0.75-0.5,1.16-1.07,1.2-2c-0.97,0.27-1.88,0.38-2.59,1.1
			c-0.88,0.89-2.03,1.31-3.18,1.67c-0.32-0.25-0.29-0.69-0.61-0.9c-0.13-0.41-0.27-0.82-0.39-1.24c-0.39-1.33,0.1-2.49,0.87-3.49
			c0.71-0.93,1.44-1.89,2.51-2.39c-0.03-0.47,0.12-0.88-0.27-1.16c-2.05,0.14-3.85,0.94-5.58,2.08c-0.28-0.22-0.68-0.21-0.92-0.6
			c-0.09-0.28-0.07-0.65-0.23-0.98c-0.24-0.52-0.11-1.07,0.25-1.45c0.8-0.84,1.47-1.81,2.6-2.31c0.84-0.37,1.6-0.93,2.32-1.36
			c-0.01-0.38-0.18-0.47-0.36-0.57c-1.28-0.72-2.61-0.43-3.93-0.19c0-0.22,0-0.44,0-0.66c0.26-0.19,0.11-0.33-0.08-0.43
			c-0.76-0.41-1.52-0.81-2.27-1.21c-0.08-1.27,1.87-2.92,3.06-2.97c0.33-0.01,0.73,0.15,0.97-0.25c1.55-0.05,3.09-0.22,4.63-0.3
			c0.9-0.05,1.82-0.07,2.72-0.2c2.06-0.31,4.15-0.42,6.19-0.92c0.53-0.13,1.12,0.21,1.6-0.22c0.43-0.03,0.8,0.3,1.27,0.17
			c2.87-0.81,5.91-0.9,8.7-2.09c1.42-0.61,2.82-1.22,4.2-1.92c1.16-0.45,2.29-0.94,3.11-1.94c0.8-0.36,1.47-0.88,2.05-1.54
			c1.57-1.81,2.94-3.79,4.29-5.76c0.43-0.63,1-1.24,1.09-2.07c0.28-0.16,0.31-0.49,0.49-0.71c0.22-0.1,0.21-0.32,0.24-0.51
			c0.33-2.06,1.12-3.98,2.02-5.83C59.07,45.45,59.44,44.27,59.32,42.93z M64.13,49.18c1.05-0.81,1.15-1.7,0.55-2.79
			c-0.6-0.13-1.04-0.66-1.52-1.05c-0.49-0.01-0.93-0.1-1.49,0.14c-0.01,0.43-0.44,0.75-0.66,1.2
			C61.61,48.12,62.41,49.21,64.13,49.18z M22.82,72.66c1.19-0.54,2.69-0.21,3.65-1.53c-1.85-0.41-3.42-0.06-5.07,0.65
			C21.86,72.27,22.32,72.41,22.82,72.66z M63.66,44.53c0.09,0.32,0.33,0.64,0.57,0.96c0.53,0.09,1.07,0.32,1.47-0.17
			c0.34-0.82-0.14-1.31-0.56-1.82c-0.34-0.11-0.68-0.21-1.14,0C63.95,43.74,63.62,43.95,63.66,44.53z M27.74,70.12
			c-0.28,0.27-0.46,0.51-0.44,0.91c1.36,0.65,2.28-0.11,3.26-1.06C29.48,69.1,28.61,70.05,27.74,70.12z M23,92.85
			c-1.15,0.7-1.37,1.88-0.52,2.9c1.28-0.28,0.58-1.53,1.1-2.13C23.4,93.32,23.36,93.03,23,92.85z M17.49,71.77
			c-0.34,0.24-0.61,0.41-0.59,0.78c0.84,0.83,1.52,0.85,2.67,0.08C19.09,71.85,18.2,72.06,17.49,71.77z M28.63,73.65
			c-0.56-0.94-0.85-0.95-2.05-0.22c-0.15,0.29-0.2,0.58,0.05,0.86c0.36,0.1,0.71,0.08,1.09,0.01
			C27.99,74.12,28.28,73.91,28.63,73.65z M51.68,64.79c-0.84,0.43-2.02,0.32-2.4,1.53C50.63,66.5,51.53,65.97,51.68,64.79z
			 M18.93,87.24c1.06-0.62,1.6-1.76,1.3-2.71C19.26,85.18,18.75,86.26,18.93,87.24z M55.72,63.7c-0.06-0.56,0.57-1.01-0.1-1.6
			c-0.07,0.79-0.6,1.02-1.13,1.14c-0.34,0.66-0.34,0.66-0.26,1.24C54.91,64.61,55.09,63.84,55.72,63.7z M21.16,75.82
			c0.51-0.37,1.23-0.36,1.3-1.13c-1.25-0.31-1.64-0.19-2.19,0.68C20.48,75.65,20.85,75.59,21.16,75.82z M52.66,61.43
			c-0.55-0.07-0.82,0.41-1.19,0.6c-0.2,0.6-0.21,0.72-0.11,1.22C52.65,62.72,52.84,62.47,52.66,61.43z M57.18,55.97
			c-0.58,0.63-1.22,1.24-0.83,2.34C57.36,57.75,57.5,56.95,57.18,55.97z M54.05,61.91c1.12-0.69,1.4-1.2,1.16-1.97
			C54.41,60.3,54.11,60.92,54.05,61.91z M32.1,93.11c0.58-0.3,0.7-0.69,0.78-1.06c-0.15-0.23-0.28-0.37-0.56-0.34
			C31.79,92.04,31.92,92.51,32.1,93.11z M57.97,59.31c-0.29,0.28-0.51,0.59-0.47,1.02c0.33,0.12,0.59,0.16,0.81-0.07
			C58.4,59.9,58.41,59.57,57.97,59.31z"/>
		<path class="st0" d="M2.92,29.73c0.08,0,0.16,0,0.24,0c0.61,0.35,1.35,0.37,1.92,0.82c0.57,0.44,1.22,0.61,1.91,0.59
			c0.36-0.06,0.12-0.57,0.61-0.64c-0.1,0.31-0.14,0.63,0.29,0.85c0.7-0.4,1.73,0.15,2.44-0.63c0-0.16,0.02-0.28-0.01-0.4
			c-0.04-0.15-0.12-0.29-0.19-0.46c-2.97-0.83-5.75-2.01-7.88-4.25c-0.07-0.67-0.14-1.24-0.2-1.77c0.3-0.17,0.5,0.21,0.76-0.02
			c0.1-0.17,0.21-0.38,0.32-0.59c1.79,1.25,3.35,1.31,4.32,0.18c-0.27-0.41-1.52-1.35-2.13-1.55c-1.49-0.5-2.72-1.26-3.25-2.86
			c-0.12-0.37-0.37-0.69-0.59-1.07c0.32-0.48,0.18-1.06,0.24-1.61c0.32-0.48,0.88-0.81,0.95-1.46c1.15-0.04,1.7,0.84,2.33,1.56
			c0.23,0.27,0.35,0.62,0.79,0.56c0.4,1,1.01,1.77,2.15,1.96c0.13,0.03,0.22,0.11,0.25,0.25c0,0.25,0.07,0.47,0.28,0.61
			c0.98,0.68,1.87,1.51,3.09,1.79l-0.01-0.01c0.23,0.52,0.63,0.78,1.21,0.73l-0.01-0.01c0.01,0.16,0.01,0.32,0.15,0.43
			c1.04,0.72,2.16,1.26,3.4,1.52c2.28,1.28,4.78,1.79,7.33,2.14c0.34,0.05,0.66,0,0.64-0.47c0.07,0,0.14-0.01,0.21-0.01
			c0.08,0.09,0.17,0.17,0.25,0.26l0,0c0.26,0.55,0.75,0.47,1.22,0.43c1.54,0.13,2.98,0.74,4.41,1.17c1.39,0.42,2.7,1.25,4.18,1.85
			c0.34,0.5,1.16,0.65,1.53,1.25c1.85,0.26,2.83,1.93,4.47,2.57c0.01,0.38,0.37,0.55,0.72,0.76c0.8,0.47,1.45,1.11,2.01,1.84
			c1.43,1.85,2.49,3.95,4.03,5.72c0.1,0.12,0.16,0.28,0.21,0.43c0.41,1.16,1.09,2.18,1.69,3.23c0.85,1.47,1.8,2.9,2.83,4.24
			c0.66,0.86,1.21,1.87,2.21,2.44c0.03,0.33,0.14,0.59,0.5,0.66c0.08,0.1,0.17,0.2,0.25,0.3c-0.58,1.15-1.18,2.28-1.89,3.37
			c-0.7,1.06-1.63,1.93-2.27,3.04c-0.77,1.35-1.92,2.39-3.05,3.43c-0.84,0.76-1.84,1.26-2.88,1.67l0,0
			c-0.04-0.05-0.08-0.11-0.12-0.16c-0.04,0.05-0.09,0.1-0.13,0.15c-0.07,0-0.15,0-0.22,0c-0.04-0.05-0.08-0.1-0.13-0.15
			c-0.04,0.05-0.08,0.11-0.12,0.16l0,0c-0.29-0.04-0.49,0.15-0.73,0.25c-0.7-0.01-1.3,0.27-1.87,0.67
			c-0.22-0.06-0.45-0.13-0.74-0.21c-0.85,0.91-2.44,0.11-3.12,1.42c-0.35-0.21-0.41-0.62-0.84-0.65c-0.45,0.1-0.95,0.21-1.44,0.32
			c0.01-0.08,0.01-0.16,0.02-0.23c-1.02-0.04-2.06,0.22-3.16,0.06c-0.61-0.61-1.41-1.09-2.31-1.26c-1.23-0.23-2.31-0.88-3.58-1.04
			c-0.98-0.12-1.91-0.43-2.82-0.05c-0.39-0.18-0.22-0.8-0.76-0.72c0.04-0.37,0.48-0.37,0.61-0.65c-0.52-0.86-1.61-0.34-2.26-1
			c-0.2-0.92,0.32-1.6,1.01-2.08c0.72-0.5,1.41-1.02,2-1.51c0.62-0.15,1.2,0.12,1.71-0.21c0.03-0.63-0.39-0.97-0.78-1.15
			c-0.7-0.33-1.46-0.52-2.2-0.75c-0.98-0.3-2.05-0.41-2.89-1.43c0.8-0.86,1.45-1.81,2.79-1.77c0.24,0.33,0.48,0.34,0.72,0
			c0.27-0.02,0.54-0.03,0.77-0.05c0.27-0.31,0.15-0.64,0.21-0.94c0.15,0.09,0.31,0.18,0.46,0.27c0.07,0.36-0.07,0.67-0.24,0.96
			c-0.26,0.02-0.55-0.07-0.77,0.14c0.27,0.04,0.58,0.24,0.77-0.15c0.38,0.01,0.77,0.03,0.94-0.48c-0.07-0.15-0.15-0.32-0.22-0.48
			c0.01-0.81-0.95-1.16-0.85-2.04c-0.64,0.03-0.75-0.55-1.12-0.77c-1.44-0.86-2.99-1.33-4.7-1.27c-1.5,0.05-2.83-0.83-4.46-0.74
			c0.14-0.64,0.52-1.07,0.15-1.5c0.37-0.28,0.73-0.47,0.89-0.86c0.03-0.08,0.06-0.15,0.09-0.23c0.35-0.05,0.85,0.16,0.87-0.48
			c0.54-0.41,0.85-0.9,0.55-1.76c-1.16,0.31-2.43,0.09-3.43,0.73c-1.08,0.7-2.38,0.81-3.34,1.5C9,44.24,8.34,43.64,7.95,42.69
			c0.47-0.12,0.39-0.65,0.72-0.98c1.49,0.04,3.06,0.17,4.44-0.74c0.13-0.26,0.16-0.52,0.07-0.68c-1.1-0.8-2.35-0.56-3.48-0.84
			c-1.16-0.29-2.26-0.66-3.42-1.23c-0.02-0.85-0.12-1.75-0.73-2.49l-0.01,0.01c0.65,0.04,1.29-0.04,1.91-0.25
			c0.1-0.01,0.19-0.01,0.29-0.02c0.52,0,1.04,0.08,1.54-0.01c0.86-0.15,1.8-0.23,2.21-1.31c-0.56,0.42-0.99-0.99-1.53,0.07
			c-0.21-0.5-0.7-0.56-0.94-0.53c-1.21,0.14-2.29-0.35-3.45-0.49c0.03-0.69-0.6-0.83-0.91-1.22C4.09,31.23,3.29,30.65,2.92,29.73z
			 M25.25,29.96c0.16,0.33,0.46,0.21,0.72,0.21c2.21,0.74,4.41,1.51,6.81,2.47c0.18,0.22,0.69,0.44,1.13,0.78
			c0.23,0.18,0.5,0.25,0.7-0.09c0.26,0.61,0.75,1.01,1.29,1.36c0.29,0.19,0.58,0.38,0.86,0.56c2.66,2.46,5.01,5.23,7.75,7.78
			c0.05-0.74-0.17-1.39-0.68-1.76c-1.25-0.92-1.98-2.3-3.17-3.31c-1.09-0.93-2.06-2.02-3.17-2.96c-0.8-0.93-1.8-1.6-2.89-2.15
			c-0.08-0.21-0.29-0.26-0.46-0.35c-2.59-1.37-5.3-2.41-8.18-3c-0.16-0.01-0.32-0.02-0.48-0.03c-0.25-0.44-0.48-0.01-0.73,0.02
			c-0.76-0.92-1.82-0.68-2.8-0.77c0.76,0.84,1.91,0.74,2.81,1.22C24.93,29.95,25.09,29.96,25.25,29.96z M24.04,59.96
			c-0.41-0.41-0.64-0.29-0.71,0.25c0.54,1.05,1.56,0.99,2.55,1.03C25.37,60.66,24.85,60.11,24.04,59.96z M46.12,47.49
			c0.02-0.02,0.04-0.04,0.06-0.06c-0.04-0.04-0.08-0.09-0.11-0.13c-0.02,0.02-0.04,0.04-0.07,0.07c0.04,0.04,0.08,0.08,0.13,0.13
			c0.2,1.07,1.23,2.22,2.05,2.28c-0.21-0.83-0.21-0.83-0.84-1.13c0.03-0.46-0.15-0.83-0.47-1.15C46.59,47.5,46.36,47.5,46.12,47.49z
			 M15.88,40.28L15.88,40.28c0.73,0.67,1.68,0.62,2.64,1.03c-0.56-1.62-2.66-2.4-4.01-1.7C14.76,40.25,15.29,40.33,15.88,40.28z
			 M9.27,37.57c1.69,0.47,3.31,0.57,4.83-0.47c-0.53,0.09-1.17,0.28-1.56,0.01c-0.97-0.67-2-0.34-3.01-0.4
			c-0.1-0.01-0.21,0.09-0.29,0.12C9.15,37.06,9.15,37.25,9.27,37.57z M23.34,54.12c0.44,1.17,2.17,1.92,3.5,1.6
			C26.37,54.64,24.8,53.89,23.34,54.12z M18.89,44.79c-0.44,0.23-0.71,0.46-1.18,0.34c-0.39-0.09-0.87,0.11-0.83,0.72
			c1.09,0.29,3.05,0.27,4.01-0.05C20.41,45.07,19.53,45.24,18.89,44.79z M4.68,25.06c0.02,1.46,1.2,2.3,2.71,2.17
			C6.93,25.99,5.76,25.75,4.68,25.06z M29.4,62.79c0.92,0.53,1.57,1.72,3,1.38c-0.56-0.95-2.25-2.11-2.79-1.93
			c-0.06,0.07-0.15,0.15-0.2,0.25C29.38,62.56,29.4,62.65,29.4,62.79z M9.12,22.22c-0.23-0.84-1.6-1.89-2.48-1.98
			C7.01,21.47,7.68,22.02,9.12,22.22z M50.99,51.26c-0.05-0.46-0.2-0.8-0.54-1.07c-0.3,0.18-0.41,0.44-0.44,0.81
			c0.53,0.63,0.89,1.52,2.07,1.48C51.94,51.84,51.79,51.34,50.99,51.26z M4.27,16.85c-0.92,0.82-0.54,1.48,1.05,2.22
			C5.29,18.14,4.23,17.86,4.27,16.85z"/>
		<path class="st1" d="M54.26,52.05c-1-0.57-1.55-1.58-2.21-2.44c-1.04-1.34-1.99-2.77-2.83-4.24c-0.6-1.05-1.28-2.07-1.69-3.23
			c-0.05-0.15-0.11-0.31-0.21-0.43c-1.54-1.77-2.61-3.87-4.03-5.72c-0.56-0.73-1.21-1.37-2.01-1.84c-0.35-0.2-0.71-0.38-0.72-0.76
			c-1.63-0.64-2.62-2.3-4.47-2.57c-0.37-0.59-1.2-0.74-1.53-1.25c-1.48-0.59-2.79-1.43-4.18-1.85c-1.44-0.43-2.88-1.04-4.41-1.17
			c-0.18-0.78-0.8-0.32-1.22-0.43l0,0c0-0.26,0.11-0.54-0.17-0.73c-0.52-0.61-0.5-1.41-0.71-2.12c-0.21-0.7,0.7-1.22,0.29-1.9
			c0.55-0.69,1.23-0.98,1.94-1.1c0.1-1.28-0.53-2.38-0.39-3.63c0.19-1.76,0.96-2.57,2.85-2.65c0.3-0.6,0.21-1.4,0.85-1.95
			c0.49-0.24,1.1-0.38,1.73-0.37c0.26-0.77,0.19-1.52,0.19-2.2c0-1.03,0.53-1.8,1.03-2.52c0.8-1.15,2-1.45,3.37-0.83
			c0.38-1.38,0.61-2.78,1.81-3.72c0.57-0.45,1.15-0.84,1.85-1.02c0.41-0.05,0.63,0.34,0.98,0.47c0.72-0.79,1.55-1.37,2.39-1.86
			c0.63-0.07,1.13,0.35,1.69,0.18c0.4,0.46,0.57,1.03,1.08,1.26c0.09,0.4,0.18,0.75,0.25,1.07c-0.51,2.47-1.68,4.7-2.4,7.07
			c-0.68,2.22-1.52,4.43-1.34,6.83c0.28,3.74,0.88,7.4,2.77,10.72c0.39,2.01,2.14,2.91,3.48,4.1c1,0.89,1.96,1.85,2.99,2.72
			c0.33,0.28,0.78,0.22,1.04,0.63c0.29,0.46,0.78,0.79,1.16,1.2c0.36,0.39,0.83,0.61,1.24,0.91c0.6,0.44,1.18,0.95,1.61,1.54
			c0.28,0.38,0.6,0.6,0.89,0.71c0.92,1.29,1.57,2.6,2.1,3.97c0.11,1.34-0.25,2.53-0.85,3.75c-0.91,1.84-1.7,3.76-2.02,5.83
			c-0.03,0.19-0.01,0.41-0.24,0.51c-0.34-0.03-0.5,0.13-0.5,0.47c-0.4,0.1-0.44-0.35-0.7-0.47c-0.08-0.1-0.17-0.2-0.25-0.3
			C54.76,52.37,54.77,52.02,54.26,52.05z M37.7,11.72c0.34-0.83,1.06-1.53,0.78-2.59c-0.7,0.56-1.47,1.05-1.5,2.09
			c-0.25,0.35-0.49,0.7-0.72,1.02c0.08,0.5-0.16,0.99,0.37,1.48C36.99,12.99,37.65,12.54,37.7,11.72z M50.44,36.21
			c-0.04-0.24,0.12-0.56-0.28-0.66c-0.27,0.25-0.21,0.5-0.14,0.79C50.23,36.28,50.34,36.24,50.44,36.21
			c0.01,1.09,1.22,0.97,1.59,1.66c0.46-0.02,0.9,0.16,1.24-0.19c-0.06-0.22-0.14-0.4-0.29-0.41c-0.21-0.01-0.29-0.03-0.42-0.25
			C52.01,36.09,51.55,35.94,50.44,36.21z M57.72,41.2c-0.77-0.29-0.85-0.96-1.26-1.38c-0.44-0.45-0.93-0.8-1.78-0.96
			c0.74,1.41,1.41,2.63,2.17,3.77c0.29,0.05,0.53,0.11,0.63,0.01C57.92,42.12,56.91,41.72,57.72,41.2z M38.57,4.34
			c-1.08,2.17-1.09,2.24-0.37,3.23c0.68-0.63,1.41-2.88,1.09-3.39C39.07,4.23,38.84,4.28,38.57,4.34z M45.36,32.32
			c0.8,1.49,1.88,2.23,3.46,2.71C48,33.58,47.25,32.42,45.36,32.32z M30.07,15.53c0.04,1.33,0.49,2.16,1.42,2.38
			c-0.11-1.19-0.15-2.32-0.6-3.58C30.56,14.81,30.34,15.13,30.07,15.53z M33.97,12.69c0.4-1.19,0.8-2.3,0.49-3.66
			C33.27,10.23,33.07,11.82,33.97,12.69z M28.55,17.04c-0.89,0.24-1.13,0.84-0.99,2.17c0.31,0.11,0.63,0.15,0.99,0.07
			C28.55,18.55,28.55,17.85,28.55,17.04z M33.32,18.35c0.48-1.19,0.23-2.42-0.52-2.95C32.46,16.41,32.8,17.28,33.32,18.35z
			 M30.01,20.43c0.28,0.74,0.4,1.55,1.41,1.84c-0.11-0.91-0.31-1.69-0.84-2.33C30.25,19.97,30.16,20.15,30.01,20.43z M41.25,4.85
			c-0.33-0.12-0.55-0.13-0.78,0.02c-0.46,0.61-0.42,1.27-0.22,2.16c0.35-0.43,0.58-0.71,0.82-1C41.05,5.61,40.82,5.19,41.25,4.85z
			 M27.98,20.03c0.1,0.16,0.2,0.32,0.44,0.28c0.22-0.16,0.25-0.33,0.06-0.54C28.28,19.81,28.11,19.86,27.98,20.03z"/>
		<path class="st2" d="M29.79,90.68c0.07,0.49,0.15,0.95,0.07,1.49c-0.16,1.1,0.09,2.2,0.72,3.18c1.55,0.59,3.34,0.11,4.12-0.98
			c0.57-0.8,1.08-1.65,1.69-2.43c0.25-0.33,0.27-0.61,0.19-0.9c0.3-0.33,0.54-0.59,0.84-0.92c-0.17-1.19,1.01-1.56,1.63-2.26
			c0.96-1.08,2.13-1.97,3.48-2.6c1.11-0.52,2.08-1.33,3.25-1.76c1.69-0.63,3.36-1.38,5.21-1.43c0.51-0.01,0.93-0.15,1.18-0.36
			c5.66-0.69,10.33-3.06,14.18-6.84c0.3-0.38-0.17-0.6,0.05-0.91c0.02-0.03,0.06-0.12,0.13-0.15c1.83-0.79,2.48-2.55,3.36-4.1
			c1.01-1.78,1.2-3.84,1.6-5.78c0.3-1.47,0.31-3.07-0.09-4.6c-0.08-0.3-0.09-0.64-0.06-0.95c0.06-0.59-0.16-1.08-0.48-1.55
			c0.12-0.33,0.36-0.48,0.71-0.46c0.44,0.28,0.71,0.72,1,1.14c1.15,1.68,1.9,3.53,2.28,5.52c0.21,1.13-0.09,2.27-0.07,3.4
			c0,0.26-0.11,0.55-0.08,0.82c0.2,1.91-0.54,3.64-0.95,5.44c-0.17,0.74-0.45,1.35-0.9,1.93c-0.65,0.84-1.02,1.85-1.66,2.73
			c-1.2,1.66-2.8,2.75-4.36,3.98c-1.8,1.42-3.93,1.93-6.01,2.62c-0.94,0.31-1.93,0.5-2.93,0.48c-1.44-0.03-2.85,0.27-4.28,0.31
			c-1.63,0.04-3.25,0.3-4.92,0.01c-1.94-0.33-3.74,0.26-5.3,1.54c-1.29,1.06-2.42,2.26-3.48,3.53c-0.31,0.37-0.6,0.74-1.05,0.89
			c-1.86,3.21-4.26,5.92-7.28,8.1c-1.1-0.09-2.18,0.71-3.26-0.08c-0.97-0.78-1.27-1.91-1.44-3.1c-0.56,0.23-0.68,0.84-1.16,1.07
			c-0.08-0.72,0.42-1.19,0.82-1.64c0.55-0.6,0.97-1.29,1.48-1.91c0.51-0.61,0.68-1.49,0.99-2.22c0.23-0.28,0.52-0.24,0.79-0.23
			L29.79,90.68z M70.68,71.17c1.13,0.31,1.13-0.71,1.6-1.11c-0.1-0.53,0.26-1.19-0.68-1.44C71.3,69.44,70.37,70,70.68,71.17z
			 M64.57,81.17c0.04-0.34,0.08-0.58-0.17-0.76c-0.38-0.05-0.78-0.09-1.18,0.04c-0.31,0.29-0.63,0.58-1,0.92
			c0.39,0.19,0.43,0.66,0.94,0.62C63.59,81.76,64.06,81.48,64.57,81.17z M67.85,78.73c0.26-0.66,1.31-0.58,1.29-1.51
			c-0.26-0.28-0.55-0.45-0.96-0.41c-0.3,0.28-0.62,0.57-0.91,0.84C67.43,78.23,67.43,78.23,67.85,78.73z M72.95,67.74
			c0.89-0.78,0.83-1.54-0.04-2.21C72.13,66.25,72.69,66.92,72.95,67.74z M67.57,75.99c0.42-0.39,1.05-0.68,1.08-1.46
			c-0.54-0.37-0.93-0.05-1.34,0.2c-0.03,0.34-0.34,0.63-0.24,0.98C67.19,75.87,67.29,75.99,67.57,75.99z M70.45,74.77
			c0.64,0.16,0.84-0.26,1.08-0.6c-0.13-0.33-0.37-0.35-0.62-0.46C70.67,73.99,70.27,74.17,70.45,74.77z M71.97,72.49
			c-0.71-0.03-0.94,0.22-0.83,0.85C71.81,73.45,72.05,73.2,71.97,72.49z"/>
		<path class="st3" d="M14.19,76.03c1.32-0.24,2.65-0.53,3.93,0.19c0.18,0.1,0.35,0.19,0.36,0.57c-0.72,0.43-1.48,0.98-2.32,1.36
			c-1.13,0.5-1.8,1.47-2.6,2.31c-0.36,0.38-0.48,0.93-0.25,1.45c0.15,0.34,0.13,0.7,0.23,0.98c0.24,0.39,0.64,0.38,0.92,0.6
			c1.73-1.14,3.54-1.94,5.58-2.08c0.39,0.28,0.24,0.7,0.27,1.16c-1.06,0.5-1.79,1.46-2.51,2.39c-0.77,1-1.25,2.16-0.87,3.49
			c0.12,0.42,0.26,0.82,0.39,1.24c-0.06,0.37,0.09,0.77-0.13,1.13c-0.37-0.09-0.62,0.12-0.86,0.35c-0.32,0.06-0.71-0.16-0.93,0.25
			c-0.46,0.04-0.74-0.18-0.83-0.64c-0.28,0.08-0.54,0.25-0.81,0.03c-1.49-1.83-1.46-4.39,1.1-6.83c-0.02-0.13-0.09-0.25-0.21-0.24
			c-1.19,0.12-2.24-0.31-3.32-0.7c-0.56-0.2-0.98-0.47-1.24-0.99c0.35-0.58,0.24-0.87-0.45-1.21c-0.54-0.92,0.08-1.62,0.57-2.21
			c1-1.2,1.09-1.08,1.75-1.43C12.7,76.81,13.32,76.18,14.19,76.03z"/>
		<path class="st4" d="M22.84,63.08c0.54-0.08,0.37,0.54,0.76,0.72c0.91-0.38,1.84-0.07,2.82,0.05c1.27,0.16,2.35,0.81,3.58,1.04
			c0.9,0.17,1.7,0.64,2.31,1.26c1.1,0.16,2.14-0.1,3.16-0.06c-0.01,0.08-0.01,0.16-0.02,0.23c0.5-0.11,1-0.22,1.44-0.32
			c0.43,0.03,0.48,0.44,0.84,0.65c0.68-1.3,2.27-0.51,3.12-1.42c0.29,0.08,0.52,0.15,0.74,0.21c0.57-0.4,1.17-0.68,1.87-0.67
			c0.03,0.1,0.05,0.21,0.1,0.39c0.31-0.16,0.66-0.19,0.63-0.64l0,0c0.08,0,0.16,0,0.24-0.01c0.07,0,0.15,0,0.22,0
			c0.08,0,0.17,0,0.25,0.01l0,0c0.09,0.17,0.18,0.34,0.27,0.51c-1.37,0.7-2.78,1.31-4.2,1.92c-2.79,1.2-5.83,1.28-8.7,2.09
			c-0.48,0.13-0.84-0.2-1.27-0.17c-0.16-0.17-0.32-0.34-0.48-0.51c-1.12-0.93-2.1-2.04-3.4-2.87c-0.52-0.06-1.1-0.06-1.68,0.1
			c-0.85,0.24-1.74,0.2-2.6,0.11c-1.51-0.16-2.09-1.57-1.21-2.84c0.29-0.18,0.59-0.31,0.94-0.27C22.6,62.8,22.6,63.01,22.84,63.08z"
			/>
		<path class="st5" d="M16.34,91.18c0.24-0.23,0.49-0.44,0.86-0.35c0.23-0.36,0.07-0.76,0.13-1.13c0.32,0.2,0.29,0.65,0.61,0.9
			c1.15-0.37,2.3-0.78,3.18-1.67c0.71-0.72,1.63-0.83,2.59-1.1c-0.05,0.92-0.45,1.5-1.2,2c0.17,0.4-0.08,0.72-0.44,0.98
			c-0.75,0.54-1.24,1.22-1.18,2.2c0.02,0.33-0.27,0.46-0.54,0.62c0.5,0.58-0.04,1.12-0.01,1.75c0.76,0.91,0.54,2.53,1.99,3.13
			c0.92,0.3,1.51-0.33,2.09-0.92c0.39-0.4,0.72-0.83,1.32-0.9c-0.95,1.53-2.02,2.9-3.9,3.34c-2.54,0.6-4.28-0.6-4.64-2.37
			c-0.34-1.7-0.33-3.51,0.8-5.05c0.33-0.46,0.55-0.95,0.79-1.54c-0.91-0.35-1.62,0.31-2.41,0.33
			C16.36,91.32,16.35,91.25,16.34,91.18z M20.32,91.48l-0.04,0.06l0.06,0.01L20.32,91.48z M20.09,91.96l-0.04,0.06l0.06,0.01
			L20.09,91.96z"/>
		<path class="st6" d="M15.39,44.61c-0.16,0.39-0.52,0.58-0.89,0.86c0.36,0.43-0.01,0.86-0.15,1.5c1.63-0.09,2.95,0.79,4.46,0.74
			c1.71-0.06,3.26,0.41,4.7,1.27c0.37,0.22,0.48,0.81,1.12,0.77c-0.11,0.88,0.86,1.23,0.85,2.04c-0.16,0-0.31,0-0.47,0
			c-0.15-0.09-0.31-0.18-0.46-0.27c-0.25-0.51-0.84-0.74-1.01-1.25c-1.15-0.14-2.09-0.81-3.19-0.98c-0.56-0.09-1.07-0.13-1.64-0.02
			c-1.3,0.26-2.62,0.17-3.92,0.07c-0.98-0.08-1.84-0.53-2.12-1.52c-0.46-0.57,0.35-1.11-0.11-1.63c0.11-0.17,0.28-0.15,0.44-0.16
			c0.47-0.01,0.73-0.23,0.73-0.71c0.01-0.37,0.18-0.66,0.49-0.97C14.54,44.66,14.97,44.6,15.39,44.61z"/>
		<path class="st6" d="M3.15,23.22c-0.11,0.21-0.23,0.42-0.32,0.59c-0.27,0.22-0.47-0.15-0.76,0.02c0.06,0.54,0.12,1.1,0.2,1.77
			c2.13,2.24,4.91,3.41,7.88,4.25c0.07,0.18,0.15,0.31,0.19,0.46c0.03,0.11,0.01,0.24,0.01,0.4c-0.7,0.78-1.73,0.23-2.44,0.63
			c-0.43-0.22-0.38-0.54-0.29-0.85c-0.49,0.08-0.25,0.58-0.61,0.64c-0.69,0.03-1.34-0.14-1.91-0.59c-0.57-0.45-1.32-0.46-1.92-0.82
			c-0.1-0.35,0.3-0.56,0.22-1.06c-1.09-0.56-1.94-1.53-2.79-2.78c-0.05-0.22-0.16-0.64-0.27-1.06c0.56-1.6,0.74-1.75,2.22-1.81
			C2.77,23.01,3.01,22.95,3.15,23.22z"/>
		<path class="st7" d="M87.89,32.36c-0.41,0.79-0.8,1.61-1.22,2.38c-0.9,1.67-2.31,2.85-4.38,2.9c-0.11,0-0.26-0.09-0.33-0.04
			c-1.49,0.93-2.69-0.05-4.04-0.55c0.04-0.56-0.35-0.85-0.67-1.2c-0.39-0.43-0.93-0.79-0.88-1.49c-0.01-0.04-0.01-0.08,0.01-0.12
			c0.2,0.04,0.37,0.02,0.47-0.19c0.31-0.01,0.62-0.01,0.92-0.02c0.08,0.08,0.17,0.17,0.25,0.25c1.51,1.55,3.03,1.74,4.99,0.69
			c0.71-0.38,1.48-0.44,2.26-0.2c0.15,0.32,0.33,0.37,0.56,0.07c-0.18-0.14-0.38-0.06-0.58-0.06c-0.04-0.32-0.08-0.68,0.23-0.86
			C86.32,33.45,86.93,32.64,87.89,32.36z"/>
		<path class="st8" d="M85.27,34.78c-0.78-0.23-1.56-0.18-2.26,0.2c-1.96,1.05-3.48,0.86-4.99-0.69c-0.08-0.08-0.17-0.17-0.25-0.25
			c0.01-0.15,0.02-0.31,0.03-0.46c0.8,0.12,1.4-0.44,1.82-0.57c1.39,0.08,2.49,0.18,3.69-0.09c-0.22-0.26-0.34-0.41-0.47-0.55
			c0.4,0,0.81,0,1.21,0c0.33,0,0.55-0.15,0.69-0.45c0.28,0.05,0.28,0.51,0.73,0.41c0.25-0.17,0.51-0.47,0.92-0.58
			c-0.32-0.59-0.62-1.15-0.92-1.71c0.42-0.04,0.64,0.48,1.23,0.36c0.33-0.2,0.77-0.58,1.43-0.36c0.21,0.18,0.47,0.4,0.72,0.61
			c0.25,0.36-0.11,0.75,0.12,1.1c-0.28,0.37-0.63,0.58-1.08,0.62c-0.96,0.28-1.58,1.09-2.41,1.57c-0.31,0.18-0.27,0.54-0.23,0.86
			L85.27,34.78z"/>
		<path class="st3" d="M15.39,44.61c-0.42-0.01-0.85,0.06-1.19-0.25c-0.31,0.31-0.48,0.6-0.49,0.97c-0.3,0.18-0.73,0.22-0.73,0.71
			c-0.16,0-0.34-0.01-0.44,0.16c-0.53,0.16-1.06,0.34-1.6,0.48c-2.08,0.54-4.27-0.96-4.42-3.07c0.36-0.38,0.54-1,1.19-1.17
			c0.03,0.13,0.11,0.21,0.24,0.24c0.38,0.95,1.04,1.56,2.19,1.68c0.96-0.7,2.26-0.81,3.34-1.5c1-0.64,2.27-0.42,3.43-0.73
			c0.3,0.86-0.01,1.35-0.55,1.76c-0.48,0.06-0.62-0.38-0.93-0.66c-0.12,0.22-0.46,0.15-0.49,0.72c0,0.13,0.22,0.32,0.55,0.42
			C15.45,44.45,15.42,44.53,15.39,44.61z"/>
		<path class="st9" d="M73.03,18.43c-0.58-0.95-1.17-1.9-1.96-2.71c-0.14-0.15-0.14-0.36-0.06-0.55c-2.18-1.02-1.21-6.31,0.77-7.48
			c0.21-0.03,0.39-0.03,0.47,0.18c-0.15,0.88-0.51,1.75-0.41,2.56c0.22,1.75,0.65,3.47,1.56,5.02c0.06,0.1,0.19,0.56,0.57,0.34
			c0.58,0.98,0.17,2.11,0.46,3.13c-0.24-0.04-0.39-0.2-0.48-0.42c-0.21-0.11-0.37,0.04-0.54,0.11c-0.05-0.02-0.09-0.01-0.14,0.02
			l-0.01,0C73.25,18.5,73.16,18.45,73.03,18.43z M70.87,12.3c0.04,0.28,0.11,0.37,0.29,0.29C71.2,12.41,71.08,12.36,70.87,12.3z"/>
		<path class="st6" d="M7.95,42.69c-0.13-0.03-0.21-0.11-0.24-0.24c0.38-0.25,0.23-0.61,0.21-0.95c-0.12-0.35-0.44-0.21-0.68-0.27
			c-0.94-0.48-1.91-0.88-2.61-1.74c-1-1.24-0.56-3.12,0.92-3.76c0.61,0.74,0.71,1.64,0.73,2.49c1.16,0.57,2.26,0.95,3.42,1.23
			c1.13,0.28,2.38,0.04,3.48,0.84c0.09,0.16,0.06,0.42-0.07,0.68c-1.38,0.91-2.95,0.79-4.44,0.74C8.34,42.03,8.43,42.57,7.95,42.69z
			"/>
		<path class="st10" d="M68.2,30.98c-0.01,0.19-0.08,0.33-0.25,0.42c-1.29-0.36-2.56-0.78-3.82-0.74c-0.47-0.2-0.66-0.63-1.08-0.68
			c-1.12-0.15-1.58-1.07-1.94-1.89c-0.2-0.46-0.38-0.98-0.58-1.46c0.74-1,2.47-1.36,3.84-0.76c0.37,0.16,0.72,0.34,1.17,0.36
			c-0.05,0.09-0.09,0.16-0.2,0.34c0.62,0.04,1.1,0.36,1.59,0.63c0.83,0.45,1.43,1.73,1.26,2.53c-0.91-0.52-1.88-0.92-2.9-1.15
			c0.19-0.07,0.48-0.01,0.43-0.36c-0.09-0.15-0.25-0.15-0.39-0.16c0.01-0.49-0.49-0.58-0.71-0.94c-0.72,0.1-1.38-0.22-2.06-0.37
			c-0.32,0.36-0.85,0.59-0.45,1.26c0.46-0.06,0.79,0.32,1.11,0.53c0.61,0,1.13,0,1.65,0c0.09,0.01,0.17,0.03,0.26,0.04
			c0.02,0.65,0.61,0.73,1.01,0.95C66.89,29.93,67.64,30.31,68.2,30.98z M64.05,29.09c-0.21,0.07-0.32,0.14-0.27,0.32
			C64.03,29.5,64.12,29.42,64.05,29.09z"/>
		<path class="st5" d="M3.15,23.22c-0.13-0.27-0.37-0.21-0.6-0.2c-0.52-0.67-1.36-1.14-1.33-2.15l0.02-0.02
			c0.18-0.03,0.4-0.01,0.41-0.35c-0.17-0.07-0.3-0.27-0.58-0.2C1.04,20.39,1.02,20.5,1,20.61l-0.01,0.01
			c-0.62,0.03-0.51-0.55-0.61-0.85c-0.46-1.41-0.61-2.83,0.17-4.2c0.34,0,0.48-0.18,0.43-0.51l0,0c0.19,0,0.39,0,0.6,0
			c0.18-0.24,0.1-0.6,0.41-0.72c0.06,0,0.12,0,0.18,0c0.25,0.09,0.43,0.25,0.52,0.51c-0.07,0.64-0.63,0.97-0.95,1.46
			c-0.07,0.55,0.08,1.12-0.24,1.61c0.22,0.39,0.47,0.71,0.59,1.07c0.53,1.6,1.76,2.36,3.25,2.86c0.62,0.21,1.86,1.14,2.13,1.55
			C6.5,24.53,4.93,24.47,3.15,23.22z"/>
		<path class="st11" d="M22.84,63.08c-0.25-0.08-0.24-0.29-0.25-0.49c-0.23-0.4-0.63-0.19-0.95-0.24c-0.95-0.32-0.95-0.32-1.62-1.12
			c-0.25-1.08,0.25-1.83,1.1-2.42c0.78-0.54,1.57-1.07,2.43-1.65c-0.79-0.5-1.6-0.73-2.47-0.8c-0.28-0.02-0.57,0.01-0.84-0.04
			c-0.78-0.15-1.49-0.45-1.66-1.33c-0.16-0.81,0.27-1.35,0.94-1.76c0.54-0.33,1.03-0.74,1.52-1.11c0.63-0.09,1.23-0.14,1.78,0.19
			c0,0.07,0,0.15,0,0.22c-1.34-0.04-1.99,0.91-2.79,1.77c0.83,1.02,1.91,1.13,2.89,1.43c0.74,0.23,1.5,0.42,2.2,0.75
			c0.4,0.19,0.81,0.52,0.78,1.15c-0.51,0.33-1.09,0.06-1.71,0.21c-0.59,0.49-1.29,1.01-2,1.51c-0.69,0.48-1.21,1.16-1.01,2.08
			c0.65,0.65,1.74,0.14,2.26,1C23.32,62.71,22.88,62.71,22.84,63.08z"/>
		<path class="st12" d="M68.2,30.98c-0.55-0.67-1.31-1.05-2.05-1.47c-0.41-0.23-0.99-0.31-1.01-0.95l0.07-0.01l0.07,0l0,0.01
			c1.03,0.24,1.99,0.63,2.9,1.15c1.17,1.03,2.5,1.9,3.08,3.46c0.09,0.24,0.36,0.41,0.55,0.62c0.09,0.31-0.35,0.74,0.22,0.95
			c0.38,0.32,0.38,0.78,0.48,1.21c0.02,0.19,0.03,0.38,0.05,0.65c0.38-0.46,0.66-0.94,1.06-1.27c0.41-0.34,0.73-0.81,1.29-0.95
			c0.03,0.19,0.07,0.37,0.34,0.3c0.17-0.21,0.05-0.32-0.14-0.41c0.57-0.47,1.14-0.94,1.71-1.42c0,0.07,0.01,0.14,0.01,0.21
			c0.14,0.49,0.79,0.05,0.95,0.51c-0.01,0.15-0.02,0.31-0.03,0.46c-0.31,0.01-0.62,0.01-0.92,0.02c-0.07-0.14-0.16-0.23-0.33-0.19
			c-0.14,0.09-0.15,0.23-0.13,0.38c-0.02,0.04-0.02,0.08-0.01,0.12c-2.08,1.25-3.55,3.04-4.59,5.2c-0.54,0.3,0.11,1.09-0.59,1.4
			c-0.16-0.54-0.2-1.02,0.06-1.49c-0.53-1.09,0.04-2.09,0.31-3.07C71.04,34.19,70.02,32.34,68.2,30.98z"/>
		<path class="st7" d="M60.52,26.62c0.2,0.49,0.38,1,0.58,1.46c0.36,0.82,0.82,1.75,1.94,1.89c0.42,0.06,0.61,0.49,1.08,0.68
			c1.26-0.04,2.53,0.38,3.82,0.74c-0.89,1.65-1.09,1.59-2.97,1.56c-1.14-0.02-2.08-0.21-2.99-0.85c-0.94-0.66-1.33-1.7-1.89-2.62
			c-0.15-0.25-0.34-0.52-0.42-0.8c0-0.57-0.02-1.12,0.33-1.59c0.1-0.16,0.2-0.32,0.29-0.48C60.37,26.6,60.44,26.6,60.52,26.62z"/>
		<path class="st9" d="M88.35,21c0.18,0.6-0.23,0.92-0.64,1.12c-0.57,0.27-0.93,0.71-1.27,1.2c-1.06,1.51-2.65,2.36-4.19,3.2
			c-0.75,0.41-1.75,0.14-2.69,0.5c-0.3-0.54-1.36-0.35-1.28-1.36c-0.03-0.28,0.15-0.49,0.24-0.73c0.28-0.1,0.33-0.58,0.75-0.45
			c0.17,0.31,0.32,0.22,0.47-0.02l0.09,0l0.09,0.01c0.63,0,1.27,0,1.98,0c0.46-0.31,0.95-0.78,1.64-0.44
			c0.04-0.08,0.06-0.18,0.12-0.21c1.37-0.83,2.68-1.74,3.97-2.68C87.81,20.98,88.06,20.7,88.35,21z M80.31,25.52
			c0.29,0.2,0.46,0.13,0.55-0.2C80.52,25.09,80.42,25.32,80.31,25.52z"/>
		<path class="st13" d="M71.78,24.61c-0.22-0.12-0.44-0.25-0.71-0.21c-0.2-0.79-0.84-1.14-1.51-1.3c-0.53-0.12-0.99-0.34-1.31-0.71
			c-0.57-0.66-1.31-1.12-1.89-1.74c-0.07-1.24-1.18-2.09-1.22-3.34c0.71-0.62,1.55-0.41,2.25-0.14c1,0.38,1.93,0.84,2.82,1.6
			c1.38,1.18,1.39,2.51,1.3,4.01c-0.87-0.53-1.53-1.32-2.35-1.92c0.23-0.03,0.48,0.05,0.71-0.24c-0.21-0.29-0.18-0.7-0.24-0.89
			c-0.59-0.98-1.63-1.06-2.2-1.78c-0.38,0.08-0.75-0.09-1.1,0.2c-0.01,0.13-0.09,0.34-0.02,0.43c0.62,0.79,1.18,1.69,2.32,1.79
			c0.33,0.03,0.53,0.13,0.52,0.49c-0.3,0.05-0.56-0.35-1,0c1.02,1.03,2.05,2,3.19,2.85C71.38,24.06,71.87,24.19,71.78,24.61z"/>
		<path class="st10" d="M88.35,21c-0.3-0.29-0.54-0.02-0.73,0.12c-1.29,0.94-2.6,1.85-3.97,2.68c-0.06,0.04-0.08,0.13-0.12,0.21
			c-0.69-0.34-1.18,0.13-1.64,0.44c-0.71,0-1.35,0-1.98,0c0.34-0.43,0.86-0.5,1.33-0.62c0.49-0.13,0.96-0.24,1.34-0.59
			c0.21-0.02,0.49,0.05,0.4-0.33c-0.07-0.03-0.16-0.09-0.2-0.07c-0.09,0.05-0.16,0.14-0.24,0.21c-1.52-0.24-2.91,0.52-4.34,0.51
			c-0.2,0.22-0.1,0.55-0.41,0.61c0.16-0.73,0.32-1.47,0.48-2.2c0.07-0.33,0.22-0.59,0.61-0.61c0.28,0,0.56,0,0.84-0.01
			c-0.01,0.47-0.86,0.72-0.28,1.4c1.46,0.21,2.83-0.57,4.3-0.69c0.23-0.02,0.42-0.21,0.5-0.55c-0.08-0.15-0.18-0.36-0.29-0.56
			c-0.39-0.18-0.93-0.03-1.12-0.56c1.35-0.41,2.72-0.47,4.12-0.45c0.76,0.01,1.29,0.28,1.73,0.81C88.67,21,88.51,20.99,88.35,21z"/>
		<path class="st9" d="M65.13,17.31c0.04,1.25,1.15,2.11,1.22,3.34c0.59,0.63,1.32,1.09,1.89,1.74c0.32,0.37,0.78,0.58,1.31,0.71
			c0.68,0.16,1.32,0.51,1.51,1.3l-0.02,0.04c-0.12,0.02-0.18,0.09-0.2,0.21c-0.51,0.72-1.33,0.5-1.9,0.36
			c-1.4-0.33-2.65-1.06-3.51-2.29c-0.34-0.48-0.58-1-0.51-1.65c0.06-0.58-0.2-1.13-0.42-1.67C64.11,18.42,64.29,17.92,65.13,17.31z
			 M69.06,24.38c0.17,0.03,0.25-0.05,0.26-0.17c0-0.06-0.04-0.16-0.09-0.18c-0.11-0.05-0.23-0.01-0.27,0.11
			C68.92,24.26,68.98,24.35,69.06,24.38z"/>
		<path class="st6" d="M2.92,29.73c0.37,0.92,1.17,1.5,1.76,2.25c0.31,0.39,0.94,0.52,0.91,1.22c1.16,0.14,2.24,0.63,3.45,0.49
			c0.24-0.03,0.73,0.04,0.94,0.53c0.53-1.06,0.97,0.36,1.53-0.07c-0.4,1.08-1.35,1.16-2.21,1.31c-0.5,0.09-1.03,0.01-1.54,0.01
			c-0.03-0.19-0.05-0.37-0.09-0.67c-0.72,0.35-1.2-0.36-1.86-0.27c-0.86-0.55-1.82-0.92-2.57-1.64c-0.68-0.66-1.14-1.38-1.03-2.38
			C2.26,30.03,2.42,29.74,2.92,29.73z"/>
		<path class="st10" d="M73.97,15.8c-0.38,0.22-0.51-0.24-0.57-0.34c-0.91-1.55-1.34-3.28-1.56-5.02c-0.1-0.82,0.25-1.69,0.41-2.56
			c-0.08-0.21-0.26-0.22-0.47-0.18c0.27-0.41,0.84-0.33,1.06-0.67c0.45,0,0.8,0,1.17,0c0.66,1.06,1.24,2.14,2.31,2.87
			c0.36,0.25,0.66,0.76,0.55,1.32c-0.16,0.17-0.31,0.34-0.47,0.51c-0.08-0.01-0.17-0.01-0.25-0.02c-0.51-1.62-1.46-2.82-3.2-3.34
			c-0.14,0.25-0.43,0.43-0.31,0.86c0.72,0.34,0.76,1.24,1.32,1.77c-0.29,0.33-0.35,0.76-0.46,1.16c-0.37,0.27-0.18,0.61-0.15,0.95
			C73.43,14.05,74.08,14.84,73.97,15.8z"/>
		<path class="st14" d="M84.06,32.36c-0.4,0-0.81,0-1.21,0c-0.22-0.04-0.4-0.16-0.65-0.18c-1.16-0.12-2.28,0.32-3.44,0.19
			c0.01-0.44,0.57-0.76,0.26-1.19c0.7-0.83,1.81-0.57,2.51-1.22c1.01,0,2,0,3,0c0.24-0.01,0.49-0.02,0.73-0.02
			c0.08,0.01,0.15,0.04,0.21,0.09c0.3,0.56,0.6,1.12,0.92,1.71c-0.41,0.11-0.67,0.41-0.92,0.58c-0.45,0.1-0.45-0.36-0.73-0.41
			C84.41,31.89,84.04,31.82,84.06,32.36z"/>
		<path class="st15" d="M74.92,24.93c-0.03,0.4,0.13,0.79,0,1.19c0.07,0.31,0.14,0.61,0.21,0.92l0.01,0.05
			c-0.12,0.02-0.21,0.07-0.23,0.21l-0.02,0.02c-0.3,0.14-0.25,0.41-0.25,0.66c-0.23,1.03-0.37,2.09-0.72,3.07
			c-0.38,1.05-0.36,2.22-1,3.19c-0.14-0.08-0.27-0.17-0.41-0.25c0-0.3-0.01-0.6-0.01-0.9c0.01-1.31,0.6-2.5,0.87-3.76
			c0.19-0.92,0.17-1.69-0.27-2.48c-0.07-0.13-0.08-0.3-0.12-0.45c0.15-0.26,0.3-0.31,0.5-0.03c0.09,0.14,0.19,0.37,0.41,0.11
			c0.3-0.56,0.15-1.26,0.55-1.79c0.04-0.13,0.13-0.2,0.25-0.24l0.1,0l0.1,0C74.9,24.61,74.91,24.77,74.92,24.93z"/>
		<path class="st16" d="M15.87,70.51c-0.24,0.4-0.64,0.24-0.97,0.25c-1.18,0.05-3.14,1.69-3.06,2.97c0.75,0.4,1.51,0.79,2.27,1.21
			c0.18,0.1,0.33,0.24,0.08,0.43c-0.53-0.01-1.11,0.19-1.5-0.38c-1.21,0.61-2.35-0.75-2.29-2.77c0.2-0.32,0.54-0.53,0.78-0.86
			c0.65-0.87,1.69-0.95,2.66-1.06c0.67-0.08,1.36,0,2.04,0C15.87,70.38,15.87,70.45,15.87,70.51z"/>
		<path class="st17" d="M70.1,48.88c-1.05,0.42-1.47-0.3-1.89-1.03c0.03-0.61,0.56-0.64,0.95-0.7c0.95-0.16,1.72-0.7,2.62-1.02
			c-0.1-0.28-0.19-0.5-0.27-0.71l0,0c0.03-0.04,0.06-0.07,0.1-0.1c0.18-0.01,0.37-0.03,0.55-0.04c0.57,0,0.99,0.22,1.22,0.77
			c-0.01,0.59-0.63,0.78-0.81,1.25c-0.23,0.31-0.59,0.45-0.9,0.65c-0.08,0.08-0.15,0.15-0.23,0.23
			C70.88,48.2,70.48,48.52,70.1,48.88z"/>
		<path class="st9" d="M76.38,11.74c0.16-0.17,0.31-0.34,0.47-0.51c1.01,1.03,0.91,2.33,0.68,3.55c-0.15,0.81-0.53,1.65-1.23,2.23
			c-0.18,0.06-0.2,0.21-0.23,0.36c-0.01,0.07-0.04,0.11-0.11,0.13c-0.04,0.02-0.06,0.06-0.07,0.1c-0.02,0.07-0.07,0.1-0.15,0.09
			c-0.12-0.09-0.22-0.23-0.4-0.19c-0.27-0.37-0.31-0.78-0.2-1.21c0.3-0.45,0.59-0.9,0.88-1.34c-0.37-0.63,0.01-1.12,0.17-1.63
			c0.23-0.03,0.45,0.16,0.56-0.19C76.11,12.83,76.79,12.15,76.38,11.74z"/>
		<path class="st18" d="M71.51,45.42c0.08,0.22,0.17,0.44,0.27,0.71c-0.9,0.32-1.68,0.85-2.62,1.02c-0.39,0.07-0.91,0.1-0.95,0.7
			c-0.58-0.76-0.63-1.52-0.11-2.24c0.23-0.32,0.49-0.61,0.84-0.8c0.12,0.04,0.22,0.02,0.28-0.11l0.02-0.01
			c0.31-0.04,0.62-0.05,0.86-0.3c0.25,0.08,0.49,0.16,0.74,0.24c-0.01,0.17-0.05,0.36,0.17,0.44c0.17,0.02,0.26-0.08,0.35-0.19
			c0.23,0.06,0.2,0.27,0.25,0.44C71.57,45.34,71.54,45.38,71.51,45.42z"/>
		<path class="st15" d="M73.69,49.18c0.43,0.38,0.88,0.75,1.22,1.22c0.08,0.17-0.12,0.45,0.19,0.56c0.02-0.1,0.03-0.17,0.05-0.24
			c1,1.17,1.93,2.39,2.2,3.96c0.05,0.38,0.1,0.76,0.15,1.07c-0.14,0.35-0.37,0.34-0.61,0.35c-0.59-2.03-1.7-3.78-2.95-5.46
			c0.05-0.14,0.1-0.28,0.18-0.5c-0.27,0-0.46,0-0.66,0c-0.3-0.15-0.28-0.5-0.45-0.73C73.23,49.31,73.42,49.13,73.69,49.18z"/>
		<path class="st14" d="M82.84,20.39c0.19,0.53,0.73,0.38,1.12,0.56c0.1,0.2,0.21,0.41,0.29,0.56c-0.07,0.34-0.27,0.53-0.5,0.55
			c-1.47,0.12-2.84,0.89-4.3,0.69c-0.58-0.68,0.27-0.93,0.28-1.4c0.5-0.26,0.96-0.62,1.59-0.53c0.23,0.03,0.29-0.21,0.33-0.41
			c0.16-0.01,0.32-0.02,0.48-0.03c0.16-0.01,0.32,0.3,0.48-0.01C82.69,20.36,82.76,20.36,82.84,20.39z"/>
		<path class="st19" d="M15.87,70.51c0-0.07,0-0.13,0-0.2c1.98-0.35,3.94-0.79,6-0.58c1.14,0.11,2.33-0.26,3.49-0.47
			c1.17-0.21,2.33-0.43,3.51-0.41c0.61,0.01,1.17-0.09,1.65-0.48c0.16,0.17,0.32,0.34,0.48,0.51c-0.49,0.43-1.08,0.09-1.6,0.22
			c-2.03,0.5-4.12,0.61-6.19,0.92c-0.9,0.13-1.82,0.15-2.72,0.2C18.96,70.3,17.42,70.47,15.87,70.51z"/>
		<path class="st20" d="M75.16,16.29c-0.1,0.43-0.07,0.84,0.2,1.21c0.01,0.15,0.02,0.29,0.03,0.44l-0.03,0.03
			c-0.06-0.01-0.13,0-0.19,0.02c-0.48,0.39-0.2,0.93-0.26,1.39c-0.04,0.33,0.09,0.73-0.45,0.75c-0.2-0.39-0.15-0.79-0.04-1.19
			c-0.3-1.02,0.12-2.15-0.46-3.13c0.12-0.97-0.53-1.76-0.63-2.68c-0.04-0.35-0.23-0.68,0.15-0.95c0.56,0.33,1.01,0.76,1.26,1.39
			c-0.1,0.16-0.43,0.16-0.39,0.49c0.1,0.04,0.21,0.07,0.31,0.11c0.08,0.31-0.14,0.7,0.25,0.92C75.17,15.45,75.18,15.87,75.16,16.29z
			"/>
		<path class="st13" d="M84.53,29.96c-1,0-1.99,0-3,0c-0.7,0.65-1.81,0.39-2.51,1.22c0.31,0.42-0.25,0.74-0.26,1.19
			c-0.57,0.41-1.26,0.51-1.91,0.69c-0.01-0.07-0.01-0.14-0.01-0.21c0.33-0.97,0.89-1.77,1.7-2.4c0.33-0.01,0.69,0.03,0.72-0.46
			c0.06-0.04,0.12-0.06,0.19-0.06c0.56,0.07,1.05-0.11,1.48-0.47c0.08,0.01,0.15,0.01,0.23,0.01c0.7-0.02,1.39,0.15,2.1,0.01
			C83.73,29.4,84.19,29.57,84.53,29.96z"/>
		<path class="st21" d="M71.61,45.31c-0.05-0.16-0.02-0.37-0.25-0.44c-0.19-0.07-0.24-0.23-0.27-0.41
			c-0.36-1.47-0.37-2.96-0.29-4.45c0.01-0.22-0.12-0.73,0.46-0.54c-0.27,0.47-0.23,0.95-0.06,1.49c0.7-0.31,0.05-1.1,0.59-1.4
			c0.04,1.64,0.01,3.29,0.15,4.93c0.02,0.29,0.15,0.52,0.23,0.77C71.97,45.28,71.79,45.3,71.61,45.31z"/>
		<path class="st16" d="M70.1,48.88c0.38-0.36,0.78-0.68,1.34-0.72c0.01,0.85-0.36,1.62-0.66,2.35c-0.49,1.18-0.42,2.36-0.28,3.53
			c0.09,0.75,0.5,1.48,1.05,2.06c0.1,0.11,0.15,0.16,0.02,0.26c-0.35-0.01-0.59,0.13-0.71,0.46c-0.36-0.24-0.49-0.63-0.53-1.02
			c-0.14-1.28-0.56-2.53-0.32-3.86c0.18-0.95,0.06-1.96,0.56-2.79C70.42,48.91,70.25,48.93,70.1,48.88z"/>
		<path class="st16" d="M24.28,25.89c0.02,0.47-0.3,0.52-0.64,0.47c-2.55-0.35-5.05-0.85-7.33-2.14c0.18-0.01,0.37-0.02,0.55-0.03
			c0.69,0,1.29,0.34,1.92,0.53C20.59,25.25,22.47,25.38,24.28,25.89z"/>
		<path class="st20" d="M82.58,23.23c-0.38,0.34-0.85,0.46-1.34,0.59c-0.47,0.12-0.99,0.19-1.33,0.62l-0.09-0.01l-0.09,0
			c-0.16,0.01-0.31,0.02-0.47,0.02c-0.42-0.13-0.47,0.35-0.75,0.45c-0.32-0.34-0.83-0.14-1.17-0.42c0.01-0.3,0.26-0.28,0.45-0.34
			c0.31-0.06,0.21-0.39,0.41-0.61c1.43,0.01,2.82-0.75,4.34-0.51C82.57,23.11,82.58,23.17,82.58,23.23z"/>
		<path class="st22" d="M66.76,41.7c-0.27-0.02-0.58,0.04-0.82-0.06c-1.59-0.62-2.94-0.08-4.23,0.81c-0.28,0.19-0.5,0.68-0.95,0.23
			c0.57-0.73,1.34-1.21,2.18-1.64c1.09-0.08,2.21-0.5,3.36-0.05c0.25,0.1,0.43,0.17,0.47,0.45C66.77,41.53,66.76,41.62,66.76,41.7z"
			/>
		<path class="st21" d="M77.35,24.5c0.34,0.28,0.85,0.08,1.17,0.42c-0.09,0.24-0.27,0.45-0.24,0.73c-0.35-0.03-0.36-0.51-0.75-0.53
			c-0.73,0.71-1.67,1.16-2.38,1.93c-0.07-0.31-0.14-0.61-0.21-0.92c0.12,0.01,0.32,0.05,0.34,0.01
			C75.65,25.19,76.49,24.84,77.35,24.5z"/>
		<path class="st22" d="M2.68,14.85c-0.09-0.26-0.27-0.41-0.52-0.51c0.02-0.19-0.01-0.4,0.22-0.63c1.06-0.13,1.7,0.61,2.29,1.36
			c0.38,0.48,0.6,1.09,1.12,1.47c0,0.14,0,0.28,0.01,0.42c-0.44,0.06-0.56-0.29-0.79-0.56C4.38,15.69,3.83,14.81,2.68,14.85z"/>
		<path class="st20" d="M69.15,20.86c0.81,0.6,1.48,1.39,2.35,1.92c0.02,0.09,0.03,0.18,0.05,0.27c-0.03,0.23,0.11,0.52-0.2,0.66
			c-1.14-0.85-2.17-1.83-3.19-2.85C68.59,20.5,68.85,20.91,69.15,20.86L69.15,20.86z"/>
		<path class="st21" d="M71.34,23.7c0.32-0.14,0.17-0.43,0.2-0.66c0.96,1.02,1.84,2.1,2.34,3.43c-0.22,0.26-0.32,0.02-0.41-0.11
			c-0.19-0.28-0.35-0.23-0.5,0.03c-0.48-0.54-0.65-1.29-1.2-1.78C71.87,24.19,71.38,24.06,71.34,23.7z"/>
		<path class="st21" d="M74.47,20.12c0.54-0.02,0.41-0.42,0.45-0.75c0.06-0.47-0.22-1,0.26-1.39c-0.02,2.15-0.04,4.31-0.05,6.46
			c-0.01,0.19-0.05,0.37-0.21,0.49c-0.01-0.16-0.03-0.33-0.04-0.49c0.01-0.4,0.02-0.8,0.04-1.19c0.02-0.3-0.13-0.44-0.41-0.48
			C74.34,21.89,74.48,21.01,74.47,20.12z"/>
		<path class="st19" d="M16.87,24.19c-0.18,0.01-0.37,0.02-0.55,0.03c-1.25-0.26-2.36-0.8-3.4-1.52c-0.15-0.1-0.14-0.27-0.15-0.43
			C14.23,22.7,15.56,23.41,16.87,24.19z"/>
		<path class="st21" d="M73.69,49.18c-0.27-0.05-0.45,0.13-0.67,0.22c-0.69-0.27-0.77-1.1-1.35-1.47c0.31-0.2,0.67-0.34,0.9-0.65
			C72.76,48.02,73.36,48.52,73.69,49.18z"/>
		<path class="st23" d="M84.53,29.96c-0.34-0.39-0.8-0.56-1.29-0.47c-0.71,0.13-1.4-0.03-2.1-0.01c0.93-0.8,2.03-0.31,3.12-0.46
			c0.17,0.48,0.78,0.47,1,0.92C85.02,29.95,84.78,29.95,84.53,29.96z"/>
		<path class="st22" d="M11.57,21.57c-1.21-0.28-2.11-1.11-3.09-1.79c-0.21-0.14-0.28-0.36-0.28-0.61c0.16,0.01,0.38-0.04,0.46,0.05
			C9.51,20.14,10.81,20.52,11.57,21.57z"/>
		<path class="st8" d="M81.65,20.41c-0.03,0.2-0.09,0.44-0.33,0.41c-0.63-0.09-1.09,0.27-1.59,0.53c-0.28,0-0.56,0-0.84,0.01
			c0.02-0.72,0.93-0.41,0.95-0.94C80.55,20.41,81.1,20.41,81.65,20.41z"/>
		<path class="st13" d="M75.13,24.44c0.02-2.15,0.04-4.31,0.05-6.46c0.06-0.02,0.12-0.03,0.19-0.02c-0.2,1.99-0.02,4-0.13,5.99
			C75.23,24.11,75.4,24.34,75.13,24.44z"/>
		<path class="st19" d="M5.8,16.97c0-0.14,0-0.28-0.01-0.42c0.49,0.5,0.9,1.06,1.48,1.49c0.28,0.2,0.7,0.4,0.68,0.89
			C6.81,18.74,6.2,17.97,5.8,16.97z"/>
		<path class="st16" d="M66.76,41.7c0-0.09,0.01-0.17,0.01-0.26c1.09,0.16,1.83,0.83,2.41,1.71c-0.16,0-0.31,0-0.47,0
			C68.15,42.56,67.47,42.12,66.76,41.7z"/>
		<path class="st1" d="M76.89,56.09c0.24,0,0.47,0,0.61-0.35c-0.04-0.31-0.1-0.69-0.15-1.07c0.76,0.72,0.35,1.43,0.12,2.17
			C76.79,56.82,76.89,56.42,76.89,56.09z"/>
		<path class="st22" d="M68.71,43.16c0.16,0,0.31,0,0.47,0c0.53,0.24,0.5,0.89,0.92,1.22c-0.23,0.25-0.55,0.27-0.86,0.3
			C69.34,44.08,68.83,43.69,68.71,43.16z"/>
		<path class="st24" d="M5.8,34.52c0.66-0.09,1.14,0.62,1.86,0.27c0.04,0.3,0.07,0.48,0.09,0.67c-0.1,0.01-0.19,0.01-0.29,0.02
			c-0.32-0.45-0.81-0.13-1.2-0.26C6.36,34.82,5.89,34.8,5.8,34.52z"/>
		<path class="st21" d="M72.51,35.95c-0.1-0.43-0.1-0.89-0.48-1.21c0-0.15,0-0.3,0-0.45c0.08,0,0.17,0,0.25,0
			c0,0-0.01-0.01-0.01-0.01c0.12,0.32,0.42,0.2,0.64,0.28C72.71,35.01,72.86,35.55,72.51,35.95z"/>
		<path class="st12" d="M74.52,22.77c0.28,0.04,0.42,0.18,0.41,0.48c-0.02,0.4-0.03,0.8-0.04,1.19l-0.1,0l-0.1,0
			c-0.07-0.25-0.33-0.44-0.21-0.74C74.46,23.39,74.37,23.08,74.52,22.77z"/>
		<path class="st6" d="M6.26,35.22c0.39,0.13,0.88-0.19,1.2,0.26c-0.62,0.21-1.26,0.29-1.91,0.25c0-0.08-0.01-0.16-0.01-0.24
			c0.14-0.02,0.22-0.1,0.28-0.22C5.96,35.25,6.11,35.23,6.26,35.22z"/>
		<path class="st19" d="M9.64,80.85c0.7,0.33,0.81,0.63,0.45,1.21C9.53,81.81,9.65,81.3,9.64,80.85z"/>
		<path class="st22" d="M1.99,14.34c-0.31,0.11-0.24,0.48-0.41,0.72c-0.21,0-0.41,0-0.6,0C1.21,14.68,1.1,13.8,1.99,14.34z"/>
		<path class="st23" d="M80.92,29.47c-0.43,0.36-0.91,0.54-1.48,0.47C79.85,29.5,80.31,29.25,80.92,29.47z"/>
		<path class="st22" d="M12.77,22.29c-0.58,0.05-0.98-0.21-1.21-0.73C12.06,21.63,12.49,21.83,12.77,22.29z"/>
		<path class="st21" d="M74.48,23.7c-0.12,0.3,0.13,0.5,0.21,0.74c-0.12,0.03-0.21,0.11-0.25,0.24
			C74.09,24.34,74.05,24.01,74.48,23.7z"/>
		<path class="st24" d="M16.34,91.18c0.01,0.07,0.02,0.15,0.03,0.22c-0.33-0.15-0.63,0.51-0.96,0.03
			C15.63,91.01,16.02,91.24,16.34,91.18z"/>
		<path class="st21" d="M72.51,33.08c0,0.3,0.01,0.6,0.01,0.9c-0.08,0.1-0.17,0.2-0.25,0.3l0.01,0.01c-0.03-0.18-0.07-0.37-0.1-0.55
			C72.29,33.52,72.4,33.3,72.51,33.08z"/>
		<path class="st19" d="M60.04,44.13c-0.01-0.16-0.01-0.32-0.02-0.49c0.11-0.22,0.26-0.41,0.5-0.5
			C60.49,43.53,60.38,43.89,60.04,44.13L60.04,44.13z"/>
		<path class="st23" d="M79.25,30c-0.03,0.49-0.39,0.45-0.72,0.46C78.67,30.15,78.87,29.93,79.25,30z"/>
		<path class="st19" d="M22.84,52.53c0-0.07,0-0.15,0-0.22c0.28-0.06,0.48,0.15,0.72,0.22C23.32,52.87,23.08,52.86,22.84,52.53z"/>
		<path class="st0" d="M21.64,62.35c0.32,0.05,0.71-0.16,0.95,0.24c-0.35-0.04-0.66,0.09-0.94,0.27
			C21.65,62.69,21.65,62.52,21.64,62.35z"/>
		<path class="st21" d="M73.46,50.13c0.2,0,0.39,0,0.66,0c-0.08,0.22-0.13,0.36-0.18,0.5C73.7,50.54,73.58,50.34,73.46,50.13z"/>
		<path class="st16" d="M72.04,34.3c0,0.15,0,0.3,0,0.45c-0.57-0.2-0.13-0.63-0.22-0.95c0.07,0.01,0.14,0.01,0.2,0
			C72.03,33.96,72.03,34.13,72.04,34.3z"/>
		<path class="st25" d="M71.09,44.47c0.03,0.18,0.08,0.34,0.27,0.41c-0.09,0.12-0.19,0.22-0.35,0.19c-0.22-0.08-0.18-0.27-0.17-0.44
			C70.85,44.46,70.97,44.46,71.09,44.47z"/>
		<path class="st20" d="M75.13,34.27c0.19,0.09,0.3,0.2,0.14,0.41c-0.26,0.07-0.31-0.11-0.34-0.3
			C74.97,34.31,75.04,34.27,75.13,34.27z"/>
		<path class="st23" d="M72.27,34.28c0.08-0.1,0.17-0.2,0.25-0.3c0.14,0.08,0.27,0.17,0.41,0.25c-0.01,0.11-0.01,0.22-0.02,0.33
			C72.69,34.48,72.39,34.6,72.27,34.28z"/>
		<path class="st22" d="M0.97,15.06c0.05,0.33-0.09,0.5-0.43,0.51C0.51,15.25,0.65,15.08,0.97,15.06z"/>
		<path class="st16" d="M24.57,25.41c0.28,0.19,0.17,0.47,0.17,0.73c-0.08-0.09-0.17-0.17-0.25-0.26
			C24.52,25.72,24.55,25.57,24.57,25.41z"/>
		<path class="st23" d="M60.29,26.62c-0.1,0.16-0.2,0.32-0.29,0.48c-0.14-0.1-0.19-0.22-0.12-0.39
			C59.99,26.6,60.13,26.59,60.29,26.62z"/>
		<path class="st13" d="M75.4,17.93c-0.01-0.15-0.02-0.29-0.03-0.44c0.18-0.04,0.28,0.1,0.4,0.19
			C75.72,17.89,75.56,17.91,75.4,17.93z"/>
		<path class="st0" d="M7.25,41.23c0.24,0.06,0.56-0.08,0.68,0.27C7.68,41.46,7.37,41.58,7.25,41.23z"/>
		<path class="st23" d="M74.65,27.98c-0.01-0.25-0.05-0.52,0.25-0.66C74.87,27.56,74.95,27.84,74.65,27.98z"/>
		<path class="st21" d="M75.14,50.72c-0.01,0.07-0.03,0.14-0.05,0.24c-0.3-0.11-0.11-0.39-0.19-0.56
			C75.1,50.42,75.15,50.55,75.14,50.72z"/>
		<path class="st10" d="M82.61,20.37c-0.15,0.31-0.32,0-0.48,0.01C82.29,20.18,82.45,20.2,82.61,20.37z"/>
		<path class="st13" d="M76.08,17.37c0.02-0.15,0.05-0.3,0.23-0.36C76.27,17.15,76.36,17.37,76.08,17.37z"/>
		<path class="st24" d="M5.81,35.26c-0.05,0.12-0.14,0.2-0.28,0.22C5.36,35.07,5.72,35.33,5.81,35.26z"/>
		<path class="st23" d="M72.04,34.3c-0.01-0.17-0.01-0.33-0.02-0.5c0.05-0.03,0.1-0.05,0.16-0.06c0.03,0.18,0.07,0.37,0.1,0.55
			C72.2,34.29,72.12,34.3,72.04,34.3z"/>
		<path class="st5" d="M1.21,20.87C1.08,20.84,1,20.76,0.99,20.62L1,20.61c0.08,0.08,0.16,0.16,0.24,0.24L1.21,20.87z"/>
		<path class="st13" d="M70.85,24.65c0.02-0.12,0.09-0.19,0.2-0.21C71.08,24.61,70.98,24.65,70.85,24.65z"/>
		<path class="st2" d="M73.28,18.65c0.04-0.03,0.09-0.03,0.14-0.02c0.03,0.09,0.06,0.19-0.09,0.19
			C73.31,18.81,73.3,18.7,73.28,18.65z"/>
		<path class="st2" d="M73.03,18.43c0.13,0.01,0.22,0.07,0.24,0.21C73.1,18.67,73.03,18.59,73.03,18.43z"/>
		<path class="st13" d="M75.91,17.6c0.01-0.04,0.03-0.08,0.07-0.1c0.01,0.02,0.04,0.05,0.04,0.07C76,17.65,75.96,17.66,75.91,17.6z"
			/>
		<path class="st23" d="M74.91,27.3c0.02-0.14,0.12-0.18,0.23-0.21C75.13,27.23,75.05,27.3,74.91,27.3z"/>
		<path class="st25" d="M64.13,49.18c-1.72,0.03-2.53-1.07-3.13-2.5c0.22-0.44,0.66-0.76,0.66-1.2c0.56-0.24,1-0.15,1.49-0.14
			c0.48,0.39,0.92,0.92,1.52,1.05C65.28,47.48,65.18,48.37,64.13,49.18z"/>
		<path class="st6" d="M55.01,53.01c0.26,0.11,0.29,0.56,0.7,0.47c0,0.08,0.01,0.16,0.01,0.25c-0.09,0.83-0.66,1.44-1.09,2.07
			c-1.35,1.98-2.72,3.95-4.29,5.76c-0.57,0.66-1.25,1.18-2.05,1.54c-0.2-0.02-0.4-0.01-0.49-0.25c1.13-1.04,2.28-2.08,3.05-3.43
			c0.63-1.11,1.57-1.97,2.27-3.04C53.83,55.29,54.43,54.16,55.01,53.01z"/>
		<path class="st6" d="M22.82,72.66c-0.5-0.25-0.96-0.39-1.42-0.88c1.64-0.71,3.22-1.06,5.07-0.65
			C25.51,72.45,24.01,72.12,22.82,72.66z"/>
		<path class="st26" d="M63.66,44.53c-0.04-0.58,0.29-0.79,0.34-1.03c0.46-0.22,0.8-0.11,1.14,0c0.42,0.52,0.9,1,0.56,1.82
			c-0.4,0.5-0.94,0.27-1.47,0.17C63.98,45.17,63.75,44.85,63.66,44.53z"/>
		<path class="st16" d="M27.74,70.12c0.87-0.06,1.74-1.02,2.82-0.14c-0.99,0.95-1.9,1.7-3.26,1.06
			C27.29,70.63,27.46,70.38,27.74,70.12z"/>
		<path class="st11" d="M23,92.85c0.36,0.18,0.4,0.47,0.58,0.78c-0.52,0.59,0.19,1.85-1.1,2.13C21.62,94.73,21.84,93.55,23,92.85z"
			/>
		<path class="st16" d="M17.49,71.77c0.72,0.29,1.61,0.08,2.08,0.87c-1.14,0.77-1.83,0.75-2.67-0.08
			C16.88,72.18,17.15,72.01,17.49,71.77z"/>
		<path class="st16" d="M28.63,73.65c-0.35,0.25-0.64,0.46-0.9,0.65c-0.38,0.07-0.73,0.08-1.09-0.01c-0.25-0.28-0.21-0.57-0.05-0.86
			C27.78,72.7,28.07,72.72,28.63,73.65z"/>
		<path class="st22" d="M51.68,64.79c-0.15,1.18-1.05,1.71-2.4,1.53C49.67,65.11,50.84,65.22,51.68,64.79z"/>
		<path class="st22" d="M18.93,87.24c-0.18-0.97,0.34-2.05,1.3-2.71C20.53,85.48,19.98,86.61,18.93,87.24z"/>
		<path class="st22" d="M55.72,63.7c-0.62,0.15-0.8,0.91-1.49,0.79c-0.08-0.58-0.08-0.58,0.26-1.24c0.53-0.12,1.06-0.35,1.13-1.14
			C56.28,62.69,55.66,63.13,55.72,63.7z"/>
		<path class="st16" d="M21.16,75.82c-0.31-0.23-0.68-0.17-0.88-0.45c0.55-0.87,0.94-0.99,2.19-0.68
			C22.4,75.46,21.67,75.45,21.16,75.82z"/>
		<path class="st19" d="M47.8,62.85c0.09,0.23,0.29,0.23,0.49,0.25c-0.81,1-1.95,1.49-3.11,1.94c-0.09-0.17-0.18-0.34-0.27-0.51
			C45.97,64.11,46.96,63.61,47.8,62.85z"/>
		<path class="st22" d="M52.66,61.43c0.18,1.03-0.01,1.29-1.31,1.82c-0.09-0.5-0.08-0.61,0.11-1.22
			C51.85,61.84,52.11,61.37,52.66,61.43z"/>
		<path class="st22" d="M57.18,55.97c0.32,0.98,0.18,1.78-0.83,2.34C55.96,57.2,56.59,56.6,57.18,55.97z"/>
		<path class="st19" d="M54.05,61.91c0.06-0.99,0.36-1.61,1.16-1.97C55.45,60.71,55.17,61.22,54.05,61.91z"/>
		<path class="st19" d="M32.1,93.11c-0.18-0.61-0.3-1.07,0.22-1.4c0.28-0.04,0.41,0.1,0.56,0.34C32.8,92.43,32.68,92.81,32.1,93.11z
			"/>
		<path class="st19" d="M57.97,59.31c0.45,0.26,0.44,0.59,0.33,0.95c-0.22,0.23-0.47,0.2-0.81,0.07
			C57.46,59.9,57.67,59.59,57.97,59.31z"/>
		<path class="st16" d="M55.72,53.73c0-0.08-0.01-0.16-0.01-0.25c0-0.33,0.16-0.49,0.5-0.47C56.03,53.24,56,53.57,55.72,53.73z"/>
		<path class="st2" d="M29.8,90.69c0.03-0.04,0.07-0.08,0.04-0.06c0.03-0.02-0.01,0.01-0.05,0.05C29.79,90.68,29.8,90.69,29.8,90.69
			z"/>
		<path class="st22" d="M69.22,44.69c-0.06,0.13-0.16,0.15-0.28,0.11C68.99,44.67,69.08,44.63,69.22,44.69z"/>
		<path class="st19" d="M60.04,44.13C60,44.17,59.96,44.21,60.04,44.13C59.95,44.2,59.99,44.16,60.04,44.13L60.04,44.13z"/>
		<path class="st22" d="M37.49,35c1.11,0.94,2.08,2.03,3.17,2.96c1.19,1.01,1.92,2.39,3.17,3.31c0.51,0.38,0.73,1.03,0.68,1.76
			c-2.74-2.55-5.09-5.32-7.75-7.78C36.91,34.92,37.22,35.03,37.49,35z"/>
		<path class="st16" d="M34.6,33.33c-0.19,0.34-0.47,0.26-0.7,0.09c-0.44-0.33-0.95-0.56-1.13-0.78c-2.4-0.97-4.6-1.73-6.81-2.47
			c0-0.22,0-0.44,0-0.66c2.87,0.59,5.58,1.63,8.18,3c0.17,0.09,0.38,0.14,0.46,0.35C34.6,33.01,34.6,33.17,34.6,33.33z"/>
		<path class="st11" d="M9.27,37.57c-0.12-0.32-0.11-0.52-0.03-0.74c0.08-0.04,0.19-0.13,0.29-0.12c1.01,0.06,2.04-0.27,3.01,0.4
			c0.39,0.27,1.03,0.08,1.56-0.01C12.57,38.14,10.96,38.05,9.27,37.57z"/>
		<path class="st22" d="M23.34,54.12c1.46-0.22,3.03,0.52,3.5,1.6C25.5,56.04,23.78,55.29,23.34,54.12z"/>
		<path class="st22" d="M15.88,40.28c-0.59,0.04-1.12-0.04-1.37-0.67c1.36-0.7,3.45,0.08,4.01,1.7
			C17.56,40.9,16.61,40.95,15.88,40.28c0.06-0.04,0.22-0.02,0.09-0.17C15.94,40.18,15.91,40.23,15.88,40.28z M15.95,39.68l0.06,0.04
			l0.01-0.06L15.95,39.68z"/>
		<path class="st11" d="M18.89,44.79c0.63,0.45,1.52,0.27,1.99,1.01c-0.95,0.32-2.92,0.34-4.01,0.05c-0.04-0.61,0.45-0.81,0.83-0.72
			C18.18,45.25,18.46,45.02,18.89,44.79z"/>
		<path class="st22" d="M4.68,25.06c1.08,0.69,2.25,0.93,2.71,2.17C5.88,27.36,4.7,26.52,4.68,25.06z"/>
		<path class="st16" d="M29.4,62.79c0-0.14-0.03-0.23,0.01-0.29c0.05-0.1,0.14-0.18,0.2-0.25c0.54-0.18,2.23,0.98,2.79,1.93
			C30.97,64.51,30.33,63.32,29.4,62.79z"/>
		<path class="st22" d="M9.12,22.22c-1.45-0.2-2.12-0.75-2.48-1.98C7.52,20.33,8.89,21.38,9.12,22.22z"/>
		<path class="st19" d="M34.6,33.33c0-0.16,0-0.32-0.01-0.48c1.09,0.55,2.09,1.21,2.89,2.15c-0.26,0.03-0.58-0.09-0.73,0.25
			c-0.29-0.19-0.58-0.38-0.86-0.56C35.35,34.34,34.86,33.94,34.6,33.33z"/>
		<path class="st22" d="M50.99,51.26c0.8,0.08,0.95,0.58,1.1,1.22c-1.18,0.04-1.54-0.85-2.07-1.48c0.02-0.37,0.13-0.63,0.44-0.81
			C50.79,50.46,50.94,50.8,50.99,51.26z"/>
		<path class="st22" d="M46.12,47.5c0.23,0,0.47,0,0.73,0c0.33,0.31,0.5,0.69,0.47,1.15c0.63,0.3,0.63,0.3,0.84,1.13
			C47.35,49.72,46.32,48.57,46.12,47.5z"/>
		<path class="st19" d="M24.76,29.94c-0.9-0.48-2.04-0.38-2.81-1.22c0.98,0.09,2.04-0.15,2.8,0.77
			C24.76,29.64,24.76,29.79,24.76,29.94z"/>
		<path class="st22" d="M24.04,59.96c0.82,0.15,1.34,0.7,1.84,1.29c-1-0.05-2.02,0.02-2.55-1.03c0.14,0.04,0.28,0.09,0.46,0.14
			C23.87,60.22,23.95,60.09,24.04,59.96z"/>
		<path class="st22" d="M4.27,16.85c-0.04,1.02,1.02,1.29,1.05,2.22C3.72,18.33,3.34,17.67,4.27,16.85z"/>
		<path class="st27" d="M15.49,44.38c-0.33-0.1-0.55-0.29-0.55-0.42c0.03-0.57,0.37-0.5,0.49-0.72c0.32,0.28,0.46,0.72,0.93,0.66
			C16.34,44.54,15.84,44.32,15.49,44.38z"/>
		<path class="st19" d="M25,51.81c0.16,0,0.31,0,0.47,0c0.08,0.17,0.16,0.33,0.22,0.48c-0.17,0.5-0.55,0.49-0.94,0.48l0.01,0.01
			C24.93,52.47,25.07,52.17,25,51.81z"/>
		<path class="st16" d="M24.75,26.14c0.42,0.11,1.04-0.36,1.22,0.43C25.49,26.61,25.01,26.69,24.75,26.14z"/>
		<path class="st16" d="M24.76,29.94c0-0.15-0.01-0.3-0.01-0.45c0.24-0.03,0.47-0.46,0.73-0.02c-0.01,0.2-0.01,0.4-0.24,0.49
			C25.09,29.96,24.93,29.95,24.76,29.94z"/>
		<path class="st27" d="M24.04,59.96c-0.08,0.13-0.17,0.26-0.26,0.4c-0.17-0.05-0.31-0.1-0.46-0.14
			C23.4,59.67,23.62,59.55,24.04,59.96z"/>
		<path class="st22" d="M25.25,29.96c0.23-0.09,0.23-0.29,0.24-0.49c0.16,0.01,0.32,0.02,0.48,0.03c0,0.22,0,0.44,0,0.66
			C25.7,30.17,25.41,30.29,25.25,29.96z"/>
		<path class="st19" d="M44.2,64.53c0.02,0.46-0.32,0.49-0.63,0.64c-0.05-0.18-0.07-0.29-0.1-0.39
			C43.71,64.68,43.91,64.49,44.2,64.53z"/>
		<path class="st6" d="M54.26,52.05c0.51-0.04,0.5,0.31,0.5,0.66C54.4,52.64,54.29,52.38,54.26,52.05z"/>
		<path class="st22" d="M24.75,52.76c-0.19,0.39-0.49,0.19-0.77,0.15C24.21,52.7,24.5,52.79,24.75,52.76L24.75,52.76z"/>
		<path class="st19" d="M44.92,64.52c-0.08,0-0.17,0-0.25-0.01c0.04-0.05,0.09-0.1,0.13-0.15C44.84,64.42,44.88,64.47,44.92,64.52z"
			/>
		<path class="st19" d="M44.44,64.52c-0.08,0-0.16,0-0.24,0.01c0.04-0.05,0.08-0.11,0.12-0.16C44.36,64.42,44.4,64.47,44.44,64.52z"
			/>
		<path class="st22" d="M46.12,47.49c-0.04-0.04-0.08-0.08-0.12-0.12c0.02-0.02,0.04-0.04,0.07-0.07c0.04,0.04,0.08,0.09,0.11,0.13
			C46.15,47.45,46.14,47.47,46.12,47.49z"/>
		<path class="st24" d="M57.72,41.2c-0.8,0.52,0.21,0.92-0.25,1.44c-0.1,0.1-0.33,0.04-0.63-0.01c-0.76-1.14-1.44-2.36-2.17-3.77
			c0.86,0.16,1.34,0.51,1.78,0.96C56.87,40.24,56.95,40.92,57.72,41.2z"/>
		<path class="st24" d="M38.57,4.34c0.27-0.06,0.49-0.11,0.72-0.16c0.32,0.51-0.4,2.76-1.09,3.39C37.48,6.58,37.49,6.51,38.57,4.34z
			"/>
		<path class="st24" d="M45.36,32.32c1.89,0.11,2.63,1.26,3.46,2.71C47.24,34.54,46.17,33.81,45.36,32.32z"/>
		<path class="st24" d="M30.07,15.53c0.27-0.39,0.49-0.72,0.82-1.2c0.45,1.26,0.5,2.4,0.6,3.58C30.56,17.68,30.11,16.85,30.07,15.53
			z"/>
		<path class="st24" d="M33.97,12.69c-0.9-0.87-0.7-2.46,0.49-3.66C34.77,10.39,34.37,11.5,33.97,12.69z"/>
		<path class="st24" d="M50.44,36.21c1.11-0.27,1.57-0.12,2.12,0.81c0.13,0.22,0.21,0.24,0.42,0.25c0.15,0.01,0.24,0.19,0.29,0.41
			c-0.33,0.35-0.77,0.17-1.24,0.19C51.66,37.19,50.45,37.3,50.44,36.21L50.44,36.21z"/>
		<path class="st24" d="M36.98,11.22c0.03-1.04,0.8-1.53,1.5-2.09c0.28,1.06-0.45,1.77-0.78,2.59c-0.2,0.05-0.36,0.29-0.66,0.09
			C37.03,11.65,37,11.43,36.98,11.22z"/>
		<path class="st27" d="M28.55,17.04c0,0.81,0,1.51,0,2.23c-0.36,0.09-0.68,0.04-0.99-0.07C27.42,17.88,27.66,17.28,28.55,17.04z"/>
		<path class="st24" d="M33.32,18.35c-0.52-1.07-0.86-1.94-0.52-2.95C33.55,15.93,33.8,17.16,33.32,18.35z"/>
		<path class="st27" d="M30.01,20.43c0.15-0.29,0.24-0.46,0.57-0.49c0.53,0.64,0.73,1.42,0.84,2.33
			C30.41,21.99,30.29,21.18,30.01,20.43z"/>
		<path class="st27" d="M36.98,11.22c0.02,0.21,0.05,0.43,0.06,0.6c0.3,0.2,0.46-0.05,0.66-0.09c-0.06,0.82-0.71,1.27-1.07,2
			c-0.53-0.5-0.3-0.99-0.37-1.48C36.49,11.92,36.73,11.57,36.98,11.22z"/>
		<path class="st27" d="M41.25,4.85c-0.42,0.34-0.2,0.75-0.17,1.17c-0.24,0.29-0.47,0.58-0.82,1c-0.21-0.89-0.24-1.55,0.22-2.16
			C40.69,4.73,40.92,4.73,41.25,4.85z"/>
		<path class="st19" d="M50.44,36.21c-0.11,0.04-0.22,0.07-0.42,0.14c-0.07-0.29-0.13-0.54,0.14-0.79
			C50.56,35.65,50.4,35.97,50.44,36.21L50.44,36.21z"/>
		<path class="st27" d="M27.98,20.03c0.13-0.17,0.31-0.22,0.5-0.27c0.19,0.21,0.16,0.38-0.06,0.54
			C28.18,20.35,28.08,20.18,27.98,20.03z"/>
		<path class="st24" d="M70.68,71.17c-0.32-1.16,0.62-1.73,0.93-2.56c0.94,0.25,0.58,0.91,0.68,1.44
			C71.81,70.46,71.81,71.48,70.68,71.17z"/>
		<path class="st24" d="M64.57,81.17c-0.51,0.3-0.98,0.58-1.4,0.83c-0.51,0.04-0.55-0.43-0.94-0.62c0.36-0.34,0.68-0.63,1-0.92
			c0.4-0.14,0.79-0.1,1.18-0.04C64.66,80.6,64.61,80.84,64.57,81.17z"/>
		<path class="st24" d="M67.85,78.73c-0.43-0.5-0.43-0.5-0.58-1.08c0.3-0.27,0.61-0.56,0.91-0.84c0.41-0.04,0.7,0.13,0.96,0.41
			C69.17,78.15,68.12,78.07,67.85,78.73z"/>
		<path class="st24" d="M72.95,67.74c-0.25-0.83-0.82-1.5-0.04-2.21C73.78,66.2,73.83,66.96,72.95,67.74z"/>
		<path class="st24" d="M67.57,75.99c-0.28,0-0.38-0.12-0.5-0.28c-0.1-0.35,0.21-0.63,0.24-0.98c0.41-0.26,0.8-0.58,1.34-0.2
			C68.63,75.31,67.99,75.6,67.57,75.99z"/>
		<path class="st27" d="M70.45,74.77c-0.18-0.6,0.22-0.78,0.46-1.06c0.24,0.11,0.49,0.13,0.62,0.46
			C71.29,74.51,71.09,74.93,70.45,74.77z"/>
		<path class="st27" d="M71.97,72.49c0.07,0.71-0.17,0.96-0.83,0.85C71.04,72.71,71.27,72.46,71.97,72.49z"/>
		<polygon class="st27" points="20.32,91.48 20.35,91.55 20.28,91.54 		"/>
		<polygon class="st27" points="20.09,91.96 20.11,92.03 20.05,92.02 		"/>
		<path class="st19" d="M12.99,46.05c0-0.49,0.42-0.54,0.73-0.71C13.71,45.82,13.46,46.04,12.99,46.05z"/>
		<path class="st20" d="M76.39,34.24c-0.02-0.15,0-0.29,0.13-0.38c0.17-0.04,0.27,0.05,0.33,0.19
			C76.76,34.26,76.58,34.28,76.39,34.24z"/>
		<path class="st27" d="M85.26,34.79c0.19,0,0.4-0.07,0.58,0.06c-0.23,0.29-0.41,0.24-0.56-0.07L85.26,34.79z"/>
		<path class="st20" d="M76.85,33.06c0.65-0.19,1.34-0.29,1.91-0.69c1.15,0.13,2.28-0.3,3.44-0.19c0.25,0.02,0.43,0.14,0.65,0.18
			c0.12,0.14,0.24,0.28,0.47,0.55c-1.2,0.27-2.3,0.17-3.69,0.09c-0.42,0.13-1.02,0.69-1.82,0.57
			C77.64,33.11,76.99,33.55,76.85,33.06z"/>
		<path class="st23" d="M84.06,32.36c-0.03-0.54,0.35-0.47,0.69-0.45C84.62,32.21,84.39,32.36,84.06,32.36z"/>
		<path class="st13" d="M70.87,12.3c0.22,0.06,0.33,0.12,0.29,0.29C70.98,12.66,70.91,12.57,70.87,12.3z"/>
		<path class="st14" d="M64.88,28.52c-0.52,0-1.04,0-1.65,0c-0.31-0.21-0.64-0.59-1.11-0.53c-0.41-0.67,0.13-0.9,0.45-1.26
			c0.68,0.15,1.34,0.47,2.06,0.37c0.22,0.36,0.72,0.46,0.71,0.94l-0.03,0.03C64.98,28.05,64.84,28.21,64.88,28.52z"/>
		<path class="st14" d="M65.33,28.04c0.15,0.02,0.3,0.01,0.39,0.16c0.05,0.35-0.25,0.29-0.43,0.36l0-0.01
			c0.01-0.16,0.01-0.32,0.02-0.48L65.33,28.04z"/>
		<path class="st23" d="M65.3,28.07c-0.01,0.16-0.01,0.32-0.02,0.48l-0.07,0l-0.07,0.01c-0.09-0.01-0.17-0.03-0.26-0.04
			C64.84,28.21,64.98,28.05,65.3,28.07z"/>
		<path class="st23" d="M64.05,29.09c0.07,0.33-0.02,0.42-0.27,0.32C63.73,29.22,63.84,29.16,64.05,29.09z"/>
		<path class="st27" d="M1.24,20.85C1.16,20.77,1.08,20.69,1,20.61c0.02-0.11,0.05-0.21,0.07-0.31c0.29-0.07,0.42,0.13,0.58,0.2
			C1.64,20.84,1.42,20.82,1.24,20.85z"/>
		<path class="st13" d="M80.31,25.52c0.11-0.2,0.2-0.43,0.55-0.2C80.77,25.65,80.61,25.72,80.31,25.52z"/>
		<path class="st8" d="M79.27,24.46c0.16-0.01,0.31-0.02,0.47-0.02C79.59,24.68,79.44,24.77,79.27,24.46z"/>
		<path class="st14" d="M69.15,20.85c0.01-0.36-0.18-0.46-0.52-0.49c-1.14-0.1-1.7-1-2.32-1.79c-0.07-0.09,0.01-0.3,0.02-0.43
			c0.34-0.29,0.71-0.12,1.1-0.2c0.57,0.72,1.61,0.79,2.2,1.78c0.06,0.19,0.03,0.59,0.24,0.89C69.63,20.91,69.38,20.83,69.15,20.85
			L69.15,20.85z"/>
		<path class="st23" d="M82.58,23.23c0-0.07-0.01-0.13-0.03-0.19c0.08-0.07,0.15-0.17,0.24-0.21c0.04-0.02,0.13,0.04,0.2,0.07
			C83.07,23.28,82.79,23.21,82.58,23.23z"/>
		<path class="st27" d="M69.06,24.38c-0.09-0.03-0.14-0.13-0.1-0.24c0.04-0.12,0.16-0.16,0.27-0.11c0.05,0.02,0.1,0.12,0.09,0.18
			C69.31,24.33,69.24,24.41,69.06,24.38z"/>
		<path class="st14" d="M73.94,11.01c-0.56-0.52-0.6-1.43-1.32-1.77c-0.12-0.43,0.17-0.61,0.31-0.86c1.74,0.52,2.69,1.72,3.2,3.34
			c-0.03,0.37-0.19,0.66-0.43,0.91c-0.72,0.2-1.07-0.32-1.21-0.79C74.38,11.46,74.12,11.29,73.94,11.01z"/>
		<path class="st8" d="M73.94,11.01c0.18,0.27,0.44,0.45,0.55,0.83c0.14,0.47,0.49,0.99,1.21,0.79c0.24-0.25,0.4-0.55,0.43-0.91
			c0.08,0.01,0.17,0.01,0.25,0.02c0.4,0.41-0.28,1.09,0.38,1.39c-0.11,0.35-0.33,0.16-0.56,0.19c-0.16,0.51-0.54,1-0.17,1.63
			c-0.29,0.44-0.59,0.89-0.88,1.34c0.02-0.42,0.01-0.84-0.25-1.2c0.39-0.62,0.36-0.74-0.25-0.92c-0.11-0.04-0.21-0.07-0.31-0.11
			c-0.04-0.33,0.29-0.33,0.39-0.49c-0.24-0.63-0.7-1.06-1.26-1.39C73.59,11.77,73.65,11.35,73.94,11.01z"/>
		<path class="st9" d="M74.66,14.16c0.61,0.18,0.64,0.31,0.25,0.92C74.52,14.86,74.74,14.47,74.66,14.16z"/>
		<path class="st0" d="M15.88,40.28c0.03-0.05,0.06-0.11,0.09-0.17C16.1,40.26,15.94,40.25,15.88,40.28
			C15.88,40.29,15.88,40.28,15.88,40.28z"/>
		<polygon class="st0" points="15.95,39.68 16.02,39.66 16.01,39.72 		"/>
	</g>
</g>
</svg>
