<svg xmlns="http://www.w3.org/2000/svg" viewBox="0 0 105.62 96.47" xmlns:v="https://vecta.io/nano"><style><![CDATA[.d{fill:#9a837d}.e{fill:#d0e4ea}.f{fill:#0f0708}.g{fill:#b9c9d8}.h{fill:#f7b59f}.i{fill:#064133}.j{fill:#aec6d5}.k{fill:#110404}.l{fill:#671507}.m{fill:#032921}.n{fill:#691506}.o{fill:#01271e}.p{fill:#911e03}.q{fill:#1c1715}.r{fill:#c32e02}.s{fill:#063f32}.t{fill:#7896ad}.u{fill:#0a0606}.v{fill:#01281f}.w{fill:#030906}.x{fill:#962105}.y{fill:#050606}.z{fill:#060b07}.AA{fill:#931e02}.AB{fill:#f7baa5}.AC{fill:#cc7459}.AD{fill:#fabfab}.AE{fill:#952004}.AF{fill:#fcd1c1}]]></style><path d="M73.91 4.73c4.24.5 7.02 3.18 9.26 6.46.68 1 .95 1.17 1.86.46 2.47-1.91 3.79.34 5.3 1.6 1.81 1.51 2.12 3.48 1.92 5.82-.06.74 1.86 1.57 2.76 2.48 2.25 2.27 4.17 4.78 5.1 7.9.9 3.03-1.4 3.72-3.46 4.6-1.48.63-2.91 1.4-4.39 2.03-.5.21-.53.42-.4.87.14.49.32.39.68.21 2.47-1.23 3.23-.47 2.43 2.11-.12.38-.14.78-.2 1.18-.06.46-.1.92-.15 1.37.38-.2.74-.47 1.14-.58.48-.13 1.09-.31 1.46-.12.51.27.31.94.15 1.42-.14.4-.46.74-.65 1.13-.23.48-.4.99-.6 1.48l1.18-.36 2.6-.77c.76-.23 1.64-.95 2.3-.33.72.69-.13 1.59-.27 2.4-.06.37-.3.71-.46 1.06.37-.07.74-.17 1.12-.2.82-.08 1.76-.76 2.43-.11.94.91.1 1.99-.23 2.89-.76 2.03-1.12 4.13-1.24 6.27-.19 3.17-3.13 3.14-4.98 4.27-2.24 1.37-4.8 2.22-7.02 3.62-1.54.97-1 3.24-2.04 4.65-.91-.13-.42 1.38-1.39 1.19 1.75-4.53 2.67-9.2 2.35-14.08-.02-.26-.07-.53-.11-.79-.14.05-.3.07-.4.16l-2.6 2.24c-1.16.69-2.3 1.41-3.49 2.05-1.03.56-2.12 1.33-3.31.51-1.12-.77-1.14-1.93-.97-3.21.21-1.59.92-2.93 1.75-4.22.73-1.14 1.57-2.22 2.35-3.32-1.44-.86-2.88-.01-4.29.09-3.41.24-6.74 1.08-9.84 2.53-2.35 1.1-4.59 2.44-6.88 3.68-.18-.09-.35-.19-.53-.28.09-.15.17-.3.26-.45l.89-.64c-.14-.05-.28-.09-.42-.14.93-1.54 2.85-1.39 4.09-2.38.75.16 1.17-.11 1.16-.91 1.03.26 2.03-1.65 3.08-.06.15-.11.44-.24.43-.34-.14-1.19 1.07-1.19 1.46-1.14 2.4.33 3.06-1.43 3.57-3.03.35-1.12.52-1.29 1.32-.48-.12.81-1.25 1.43-.76 2.2.2.31 1.38-.01 2.11-.05.67-.04.88-.56 1.13-1.06.93-1.85 1.13-4.04 2.57-5.65l.74.02-1.88 5.58c-.09.29-.25.8-.16.85.42.25.89.27 1.25-.18 1.17.55 2.19.5 3.24-.43.96-.85 2.1-1.49 3.2-2.16 1.5-.91 3.65-1.18 3.42-3.69l.24-.49.19-.94c-.1-.42.66-1.26.14-1.14-2.22.52-4.37 1.37-6.54 2.1-.56-.08-.66-.52-.74-.97.37-.18.73-.46 1.12-.53 2.25-.39 3.96-1.1 3.26-3.99-.17-.72-.18-.95-.86-.56-3 1.74-6.98 1.97-8.79 5.59l-.72-.51c-.01-.16-.02-.31-.02-.47l.02-.02c.07-.09.15-.18.22-.27 1.18-1.53 1.53-4.49 4.67-2.67.29.17.35-.4.36-.72l.5-.68-.72.01c-.16-.68-.46-1.36-.07-2.06l.36-.56c.07-.08.14-.17.22-.25.86.07 1.34.81.91 1.31-.53.61-.46.78.1 1.12-.02.74.52.54.8.36.6-.38 1.79.07 1.79-1.2.16-.05.32-.09.48-.14.12 1.35 1.46-.42 1.69.66.47-.39.13-.74-.07-1.08l.76-.54c1.57.13 2.94-.69 3.81-1.66.46-.52-1.22-1.32-1.8-2.11-.02-.03-.07-.03-.11-.04l-.47-.5c-.08-.08-.16-.16-.24-.23l-2.16-3.12c-.29-.55-.61-1.57-.87-1.56-.97.06-.31 1.14-.73 1.62-1.05 1.2.21 3.83-2.48 4.01-.01-.18-.02-.36-.04-.54l.47-1.55c.75-1.95 1.36-3.97 2.28-5.83.62-1.26.19-1.47-.89-1.88-1.81-.68-3.13-1.98-3.75-3.88.56-.72-.14-.82-.53-.93-1.82-.54-3.35.68-5.04.9.08-.16.16-.33.25-.49-.14-.03-.27-.07-.41-.1-2.35-.99-4.84-1.79-6.25-4.19.75-.75 1.07-.13 1.42.43a2.67 2.67 0 0 0 1.79 1.18c-.05-.21-.1-.42-.16-.63 1.54 1.05 3.24 1.7 5.1 1.89.47.01 1.12.06 1.21-.46.14-.85-.86-1.08-1.2-1.7l-.5-1.02c-.07-.15-.15-.29-.22-.44l.02.02c-.3-.2-.29-.81-.86-.67.07.13.13.26.2.4-1.62-.25-1.94-2.2-3.43-2.63a6.73 6.73 0 0 0 .38-.19c-.54-.36-1.09-.62-1.74-.26l-1.29-1.42zM96.48 25.1c.08.13.15.27.23.4.04-.05.09-.1.13-.15-.12-.08-.25-.15-.37-.23l-.12-.4c-.06.03-.11.06-.17.09.09.1.19.2.3.29zm-1.92-2.64c.06.16.13.32.19.48l.23-.17c-.15-.1-.3-.19-.44-.29.06-.51-.26-.61-.67-.62-.24-.76-1-.86-1.57-1.14-.21-.11-.76.16-.97.42-.18.22-.14.65-.13.99 0 .04.52.17.58.09.71-.91 1.44-.14 2.16-.05a11.75 11.75 0 0 1 .62.29zm-4.52-7.7h0c.04.27.09.56.14.84.22-.12.45-.24.67-.37l-1.76-2.1c-.02-.03-.19.07-.3.11l.97 1.27a3.33 3.33 0 0 0 .28.25zm-5.11 34.8l-.27.24-1.37 1.75-.53.86-.03.02c-1.11 1.05-1.53 2.4-1.94 3.84-.55 1.95-.51 2.72 1.93 2.31 1.29-.22 1.65-1.23 2.54-1.74 4.63-2.66 7.94-6.5 9.42-11.76.21-.73.59-1.41.9-2.12-.74.33-1.54.56-2.21 1-2.16 1.43-5.08 1.43-6.8 3.67l-1.65 1.92.01.01zm11.78-3.32c-.77-.13-1.27.12-1.55.92-.77 2.23-1.77 4.33-3.49 6.01-.89.88-.75 1.9-.26 2.92-.21 1.69.5 1.55 1.61.86.52-.33 1.25-.35 1.72-.72.85-.67 2.27-.31 2.73-1.61l3.08-8.5c.34-.92-.18-.97-.78-.81-1.03.26-2.04.61-3.06.93zm-5.27 14.15c-.03 1.89 0 1.94 1.55 1.19 2.24-1.06 4.48-2.12 6.63-3.36.97-.56 2.33-.77 2.56-2.33.38-2.53.38-5.16 1.64-7.52.24-.44-.25-.36-.58-.39-2.42-.27-2.84 1.6-3.12 3.19-.7 4.06-2.99 6.35-6.99 7.11-1.18.22-2.14.79-1.69 2.11zm-3.98-44.17c-.08.07-.27.2-.26.24.37.97 1.33 1.22 2.13 1.66.06.03.26-.17.39-.26l-2.26-1.64zm3.19 1.44c.34-.01.55-.15.38-.51-.12-.25-.3-.48-.46-.71-.18.24-.47.46-.53.73-.08.4.26.5.61.49zm4.06 10.25c.12-.3.24-.46.2-.52-.2-.29-.43-.55-.66-.82-.06.11-.2.25-.17.31.15.3.34.58.63 1.03zm-1.19 13.32c-.04-.07-.07-.13-.1-.19-.05.03-.11.06-.15.1-.01 0 .03.08.05.09.06.01.12 0 .2 0zM90.1 18c-.03.06-.07.12-.08.19-.01.02.04.05.07.08.03-.06.07-.12.09-.18-.01-.02-.05-.06-.08-.09z" class="u"/><path d="M9.32 67.12c-3.72-1.48-6.27-4.34-7.62-7.86-3.11-8.12-2.19-15.99 3.07-23.01 2.24-2.99 4.93-5.64 7.73-8.23 4.93-4.57 10.68-7.09 16.93-8.91 1.14-.33 1.38-1.42 1.68-2.32 1.34-4 2.86-7.95 5.3-11.37.9-1.26 2.81-1.86 4.34-2.61 1.85-.9 3.81-1.58 5.66-2.46 1.17-.56 1.6-.1 1.76.97a5.9 5.9 0 0 1 .05 1.19c-.06 1.8-.02 3.36 2.53 2.07.93-.47 1.69-.08 1.39 1.13-.29 1.2-.73 2.36-1.1 3.53l-.86-.46c.04-.15.1-.29.12-.44l.38-2.33c-.65.15-1.32.23-1.94.46-2.13.77-4.29 1.49-6.35 2.42-1 .45-2.56.15-2.83 1.79l-.46.03c-.09-.55-.24-1.17.38-1.49 1.8-.93 3.56-2.3 5.47-2.61 3.3-.54 1.91-2.76 2.04-4.44.04-.54-.14-.55-2.62.4-.19.07-.37.15-.56.21-7.69 2.22-9.93 8.69-11.93 15.34l-.3.12c.02.03.06.09.07.08l.27-.15c2.01-.54 4.58.1 5.3-2.99.36-1.54.48-3.31 1.88-4.47l.03 1.2-1.01 4.54c-.16.24-.49.76-.13.71 1.4-.2 3.02.79 4.16-.24 1.55-1.4 3.26-2.42 5.11-3.3.01.4-.09.87.52.95-.84 1.26-2.51.79-3.55 1.8-3.5 3.38-6.38 7.14-7.75 11.89-.12.43.03 1.06.28 1.44.33.49.89.12 1.31-.05.91-.37 1.79-.79 2.69-1.19l.26 1.22-.72.24-.57-.33-.16.78c-.98.6-2.01 1.09-3.16.66-.9-.34-1.32-1.08-1.2-2.07.45-3.58 2.17-6.52 4.56-9.13.3-.33.47-.78.7-1.18-.4-.08-.81-.27-1.2-.24-6.64.46-12.8 2.53-18.69 5.52-4.06 2.07-7.57 4.87-10.53 8.37-.07 0-.14.02-.2.05l-.55.89c-7.27 5.86-12 20.8-3.79 29.32.99 1.79 3.03 2.38 4.33 3.81l-.52.75z" class="f"/><path d="M48.99 82.23c-1.13-.29-1.55.82-2.31 1.24-3.09 1.69-6.13 3.5-9.19 5.25-.07.04-.24-.11-.36-.17l-.22.06c.07-.01.15-.01.22-.02-.25 1.29-1.53.91-2.28 1.27-5.72 2.73-11.5 5.31-17.82 6.43-2.69.48-3.33.07-3.15-2.6.49-6.94 2.98-13.3 5.61-19.62.06-.06.12-.13.17-.19.06-.05.12-.07.2-.06l.98.02-1.18 3.36-.24.24-1.44 4.5c-.68.24-.41.94-.67 1.39l-.75 2.06-.05 1.19c-.45 2.61-1.55 5.1-1.43 7.83.04.83.24 1.05 1.02.8l6.25-1.95c.76-.09 1.61-.06 1.67-1.16l2.07-1.2c.28 1.38.92.32 1.42.21C32.6 89.9 37 87.2 41.5 84.72c.81-.45 2.12-.58 2.05-2 1.03.51.86-.94 1.57-.96.18.7.74.57 1.11.36.79-.45 1.51-1.03 2.25-1.56l.42-.42-.43-.3V76c.5-.67.15-1.43.23-2.14.01-.18.01-.35.02-.53.7-.35.57-.95.47-1.54v-1.01c.55-.63.68-1.34.43-2.13 1.34-1.07 1.99-2.63 2.87-4.03l1.48-.66.03.3c-2.51 3.53-3.95 7.5-4.8 11.71l.01 1.28c.02.04.02.09 0 .13.16.98-.49 2.06.4 2.94l.12.62c-.19.46.26 1.29-.74 1.29z" class="y"/><path d="M64.23 17.95l-.98 4.04c-.29.07-.48.19-.17.47l-.14 1.12.74-.23c.46-.14.5-.46.63-.91l2.13-6.16c1.5-3.53 3.17-6.98 4.73-10.49.42-.95 1.15-1.07 2.02-1.07.22.89-1.48 1.68-.22 2.57.63.45.93.95.59 1.56-.37.67-.86-.33-1.34-.07-.14-.28-.25-.58-.43-.83-.12-.17-.3-.81-.49-.33l-5.8 14.6c-.02.03-.03.07-.05.1l.06-.09 3.86-2.44c1.01-.05 1.78-.65 2.59-1.15 1.96-1.51 4.12-2.67 6.4-3.61.35.51.71-.17 1.07.02-.79 2.02-2.98 2.05-4.48 3.05-2.59 1.73-5.45 3.05-8.02 4.81-2.02 1.38-4.29 2.35-6.14 4.05-1.29 1.19-3.15 1.79-4.35 3.04-.81.84-1.37.83-2.23.58l.82-.93.07.01.07-.03c.67-.16 1.08-.63 1.44-1.17l1.16-.75 1.26-1.15c.68-.85 2.37-.79 2.18-2.42.6-.12.41-.59.44-.97l.03-.47c.47-.06.46-.4.44-.75l.05-.94c.07-.08.13-.16.2-.25.07-.31.16-.63.24-.95h0c1.18-.27.15-1.18.48-1.69.02-.23.03-.47.05-.7.37.19.73.36 1.09.53z" class="u"/><path d="M48.99 82.23c1 0 .55-.83.74-1.29l1.9 4.64c1.11 1.83 2.58 3.25 4.51 4.24 9.2 4.75 19.39-2.3 24.26-7.64 2.4-2.63 4.27-5.63 6.22-8.58l.52.54c.02.08 0 .14-.08.18-.49.06-.41.42-.41.75-2.11 4.19-4.88 7.93-8.5 10.87-4.65 3.79-9.65 7.24-16.02 6.89-7.62-.44-10.91-3.28-13.14-10.6zm15.24-64.28l-1.08-.52-.17-.69c-1.26.35-2.96.13-3.59 1.45-1.03 2.18-1.9 4.48-2.42 6.82-.38 1.69-1.41 2.13-2.73 2.5-.52-.3-.76-.15-.73.45l-.45.04c-.39.03-.89-.17-.98.48l-.47.28-1.41.68-.53.44c-.77-.12-.99.43-1.21.99l-.23.96-.03.72-.21.24-.24.27v.85l-.8-.66.09-.95.21-.28-.03-.69.13-.68c.9-1.58.16-3.29.36-4.92l.01-.57-.24-.42-.22.34c-.05.04-.11.05-.18.05l-.82-.32.04-.66.47-.45.47-.52.49-.48.71-.96c.73.07.76-.4.73-.92a.13.13 0 0 1 .13-.05l.35-.46h0c.48-.03.49-.38.48-.73l.5-.7c.46.07.88.2.96.76l-.06.67c-.62-.39-1.07-.46-.91.52l-.51.92-.46.47-.47.49h0c-.49.03-.49.38-.48.74l-.48.66-.02 3.72c-.03 1.19.45 1.43 1.44.84l.23-.21c.33 0 .67.03.73-.42a.43.43 0 0 1 .22-.06c.34.01.68.03.74-.43.07-.03.14-.05.22-.05.44-.08 1.05.29 1.22-.48h0c.35.01.68.01.73-.46.67-.38 1.59-.5 1.88-1.32l3.59-10.35c.17-.52.62-1.5-.79-.93-1.3.53-2.68.86-4.03 1.28l-.9.21v-.43h0c.19-.07.59-.01.26-.41l-.03-.07 5.62-2.22c1.7-.5 1.58.61 1.18 1.78-.24.73-.34 1.51-.51 2.26l2.19-.8c.86-.33 1.91-1.08 2.59-.21.66.79-.17 1.76-.55 2.6z" class="f"/><path d="M20.85 73.83l-.98-.02c-.08-1.67 1.28-2.79 1.66-4.29.15-.57.43-1.11.65-1.66l-1.52.44-.77.2-.49.08c-1.31.56-2.68.53-4.06.38l-.34-.49-.14.5c-1.91-.44-3.89-.66-5.55-1.86l.52-.76.95.06c.5.88 1.31 1.03 2.22.9l1.63.24 1.46.26h.44c.79-.23 1.77.53 2.42-.47l.24-.01c.55-.18 1.33.43 1.67-.48h0c.34-.12 1.03.47.96-.47a.76.76 0 0 1 .21-.03l.28.29.21.7c.13-.16.3-.3.39-.48l.81-1.65.3-.55.94-1.66-.02.02.21-.44c.06-.03.1-.08.13-.14l.03-.02.64-1.31 2.12-3.05c.07-.11.02-.3.02-.46l-.32.24-.68-.39.48-.69c1.72.85 2.01-.43 2.38-1.6l.79.39c-.85 1.22-1.98 2.34-2.46 3.7-.46 1.3-1.84 2.05-1.84 3.52l-.24.69c-.19.24-.41.46-.55.73l-4.8 9.64zM72.23 8.79c.47-.27.97.73 1.34.07.34-.61.04-1.11-.59-1.56-1.26-.89.44-1.68.22-2.57h.72l1.28 1.44 1.36.44c1.49.42 1.81 2.37 3.43 2.63l.66.27-.02-.02.22.44.5 1.02c-.71.72.31 1.44 0 2.16-1.86-.2-3.55-.85-5.1-1.89l-1.63-.55c-.35-.56-.67-1.18-1.42-.43l-.97-1.45z" class="z"/><path d="M50.19 8.79l.86.46c.05.28.23.6-.23.72l-.12.2.4 1.47.22.38.51-.58.66-.29c.62-.02 1.43-.4 1.47.74l-.25.97c-.67.27-.57.9-.67 1.44l-.49-.5.19-.72c.43-.3.41-.61.03-.94-.06.01-.12.02-.17.01l-.49.3-.43.19-.55.39-.46.07-.5.43c-.07.03-.14.05-.22.04-.33-.01-.67-.04-.74.41l-.45.07-.51.43-.44.06c-.61-.08-.51-.55-.52-.95.07-.03.14-.05.21-.05l.73-.28c.41-.34.77-.81 1.41-.69.17-.12.49-.28.47-.36-.06-.21-.25-.39-.39-.58l-.01-.72.2-.25.24-1.2-.05-.24.09-.43z" class="y"/><path d="M87.13 74.13l-.52-.54 1.5-3.85c.97.19.47-1.32 1.39-1.19l-2.37 5.58z" class="q"/><path d="M53.96 11.9c-.04-1.14-.85-.76-1.47-.74.46-.25.82-.97 1.46-.43.36.32.38.78.01 1.17zm-.93 2.41c.1-.54 0-1.17.67-1.44.18.55-.93 1.14.05 1.68l.03.07-.26.41-.48-.24-.01-.48zm-1.2-2.86l-.51.58-.22-.38.73-.2z" class="f"/><path d="M86.64 75.05c0-.32-.08-.69.41-.75l-.41.75z" class="q"/><path d="M14.87 68.99l.14-.5.34.49-.48.01zm4.54-.39l.49-.08-.49.08zm43.68-46.14c-.31-.29-.12-.4.17-.47l-.17.47zM50.7 10.18l.12-.2c-.05.06-.09.13-.12.2z" class="f"/><path d="M19.67 73.88c-.06.06-.12.13-.17.19.05-.07.11-.13.17-.19z" class="z"/><path d="M37.13 88.58c-.07.01-.15.01-.22.02l.22-.06v.04z" class="q"/><path d="M88.11 69.74l-1.5 3.85c-1.95 2.95-3.82 5.95-6.22 8.58-4.87 5.34-15.06 12.39-24.26 7.64-1.92-.99-3.39-2.41-4.51-4.24 4.6-.16 8.51-2.27 12.36-4.49.71-.41 1.82-.19 2.14-1.26 1.51 1.15 2.93 2.45 4.55 3.39 1.18.68 1.87 2.53 3.87 1.59 3.37-1.58 5.33-4.4 6.98-7.5.95-1.8 2-3.78-.87-5.07-.6-.27-.99-.98-1.48-1.49 2.11-2.27 4.9-3.99 5.8-7.23.07.36-.18.91.36.98.22.03.64-.38.73-.66.33-1.05.55-2.14.81-3.21.45-1.08 1.24-2.11.48-3.36l2.6-2.24c.11-.09.27-.11.4-.16.04.26.1.53.11.79.32 4.88-.6 9.55-2.35 14.09zm-1.51-1.56c-.2-.26-.58-.76-.6-.75-1.06.73-1.24 2-1.75 3.07-.12.26.02.8.42.65 1.32-.47 1.27-1.89 1.93-2.97zm1.94-7.73c-1.14 1.06-.66 2.47-1.14 3.56-.03.07.33.46.41.43 1.61-.64.52-2.34 1.27-3.34.03-.05-.29-.36-.54-.65z" class="n"/><path d="M87.35 57.27c.76 1.25-.03 2.28-.48 3.36-.44-.26-.93-.21-1.1.23-.34.86-.54 1.77-.8 2.67-.9 3.24-3.69 4.96-5.8 7.23l-.21-.05-1.45-1.43-1.89-1.46c-.22-.45-1.06-.8-.21-1.4l.41-.57.31-.64-.02.02.25-.75.18-.54.16-.06c-.05-.03-.1-.05-.15-.08l-.24-.76-.93-1.94-1.06-.93c-.27-.39-.54-.77-1.1-.7l-.49-.27-.96-.17c-.17-.53-.64-.21-.96-.34.72-1.59 1.16-3.4-.42-4.5-1.61-1.12-3.36-.12-4.87.81l-5.05 3.23-.23-.44 2.44-2.41 6.88-3.68c3.1-1.45 6.43-2.29 9.84-2.53 1.41-.1 2.85-.95 4.29-.09-.79 1.1-1.62 2.18-2.35 3.32-.83 1.29-1.53 2.63-1.75 4.22-.17 1.28-.15 2.44.97 3.21 1.19.82 2.28.05 3.31-.51 1.18-.64 2.32-1.36 3.48-2.05z" class="AA"/><path d="M54.22 30.6c.86.24 1.42.26 2.23-.58 1.2-1.25 3.06-1.85 4.35-3.04 1.84-1.7 4.11-2.67 6.14-4.05 2.57-1.75 5.43-3.08 8.02-4.81 1.5-1 3.69-1.03 4.48-3.05.06-.04.12-.06.18-.05 1.7-.23 3.22-1.44 5.04-.9.38.11 1.08.21.53.93-.36-.58-.97-.46-1.34-.24l-5.86 3.6c-.66-.13-1.1.17-1.42.72-1.06.81-2.59.9-3.38 2.14-.7.06-1.38.14-1.61.97-1.43 1.09-2.78 2.32-4.31 3.24-1.39.83-2.3 2.46-4.14 2.53-.5-.07-1.05-.18-1.37.3-.33.49.28.6.49.87l-7.81 6.3c-.15.13-1.05.33-.13.71l2.7 1.04c4.02 1.65 7.43 4.09 10.25 7.47.8.96 1.24 3.36 3.61 2.08 1.57-.84 3.26-1.33 3.9-3.39.37-1.18 1.41-2.14 2.15-3.2.15.22.33.43.44.68s.08.58.23.79c.17.24.2 1.24.81.3.42-.64.3-1.26-.15-1.84l-.72-.91c1.59-2.95 4.16-4.83 6.98-6.44a13.32 13.32 0 0 0 .62-.1c-.38.7-.08 1.38.07 2.06-.13.29-.59.69.22.66 0 .31-.07.88-.36.72-3.14-1.81-3.49 1.14-4.67 2.67-.07.09-.15.18-.22.27l-.02.02c-.27.17-.24.33.02.47l.72.51-2.45 4.77c-.45.06-.45.39-.44.73h0c-.81-.81-.97-.64-1.32.48-.5 1.6-1.17 3.36-3.57 3.03-.4-.05-1.6-.06-1.46 1.14.01.1-.28.23-.43.34-1.06-1.59-2.05.32-3.08.06-.08 0-.15-.02-.22-.05l-.94-1.4c-.01-.08-.01-.16-.02-.24.03-.02.09-.05.08-.07-.01-.06-.05-.12-.07-.17v-.01l-1.94-2.61-2.15-2.17c-.75-1.29-1.91-2.18-3.03-3.12l-2.58-1.88c-2.2-1.62-5.18-1.74-7.16-3.77.31-.28.6-.58.93-.83 1.04-.79 2.21-1.48 2.46-2.93l.31-.69c.13-.04.27-.05.41-.06zm25.43 9.47c.03-.07.06-.13.09-.18-.06-.01-.12-.02-.19-.01-.02 0-.05.08-.04.09.04.03.09.06.14.1z" class="w"/><path d="M72.23 8.79l.97 1.44c1.41 2.4 3.9 3.19 6.25 4.19l-1.09.62c-2.28.94-4.44 2.1-6.4 3.61-1.11-.19-1.77.67-2.59 1.15l-3.86 2.44-.01-.01 5.8-14.6c.2-.48.38.16.49.33.18.26.3.55.44.83zm.07 3.15c-.56.47-1.39 1-1.99 1.72-.82 1-1.07 2.27-1.05 3.57 0 .07.41.22.62.19 1.1-.15 1.86-.8 2.37-1.75l1.16-2.39c.64-1.04-.12-1.11-1.11-1.34z" class="o"/><path d="M77.99 18.39l5.86-3.6c.37-.22.99-.34 1.34.24.62 1.9 1.94 3.2 3.75 3.88 1.08.4 1.51.61.89 1.88-.92 1.87-1.54 3.88-2.28 5.83l-1.87-2.24-3.03-3.07c.85-.63.98-1.42.49-2.31-1.36-2.49-2.81-.9-4.25-.09l-.9-.52z" class="v"/><path d="M91.44 60.39c-.45-1.32.52-1.89 1.69-2.11 4-.76 6.29-3.05 6.99-7.11.28-1.59.7-3.47 3.12-3.19.33.04.81-.05.58.39-1.26 2.36-1.26 4.99-1.64 7.52-.23 1.56-1.59 1.77-2.56 2.33-2.14 1.24-4.39 2.29-6.63 3.36-1.56.74-1.58.7-1.55-1.19zm-13-15.6l2.45-4.77c1.81-3.62 5.79-3.84 8.79-5.59.68-.39.68-.16.86.56.7 2.88-1.01 3.59-3.26 3.99-.39.07-.75.35-1.12.53-1.14.25-2.2.66-3.1 1.44-1.44 1.62-1.64 3.8-2.57 5.65-.25.51-.46 1.03-1.13 1.06-.73.04-1.92.36-2.11.05-.49-.77.64-1.39.76-2.2.13-.23.28-.48.43-.72z" class="l"/><path d="M86.57 47.64c1.71-2.24 4.64-2.24 6.8-3.67.67-.44 1.47-.67 2.21-1-.3.7-.69 1.39-.9 2.12-1.48 5.26-4.78 9.1-9.42 11.76-.89.51-1.25 1.52-2.54 1.74-2.44.41-2.48-.36-1.93-2.31.41-1.44.83-2.79 1.94-3.84.24.98-.82 2.17.44 2.96.61.38 1.34.11 1.78-.25 2.02-1.71 4.1-3.39 5.89-5.33.79-.86 1.91-2.2 1.22-3.49-.46-.86-1.75-.28-2.65-.05-.4.1-.74.44-1.1.67-.44.03-.68.26-.72.7l-.69.04c-.11-.02-.22-.03-.33-.05z" class="p"/><path d="M52.49 64.61c-.88 1.4-1.53 2.96-2.87 4.03l-1.43-1.79-.16-.46 2.59-3.18c2.06-.84 3.81-1.94 3.85-4.51l3.39-3.96.37.09.32-.1.19-.12.04-.01c2.01-.09 2.91-1.48 3.62-3.09l3.61-1.95-.01.01.89 1.44.07.46c-1.25.99-3.17.84-4.09 2.38l-.73.77-.72.49c-1.36 1.19-3.01 2.11-3.84 3.85l.02-.02c-1.06.09-1.54.84-1.93 1.7l-.25.47c-1.39.83-2.2 2.13-2.93 3.5z" class="w"/><path d="M96.71 46.24l3.05-.93c.61-.15 1.13-.1.78.81l-3.08 8.5c-.46 1.3-1.89.94-2.73 1.61-.47.37-1.2.39-1.72.72-1.11.7-1.82.84-1.61-.86.1-.41.06-.99.32-1.19 2.81-2.24 4.39-5.17 4.99-8.66z" class="p"/><path d="M86.89 47.69l.69-.04.72-.7c.37-.23.71-.57 1.1-.67.9-.23 2.19-.82 2.65.05.69 1.29-.43 2.62-1.22 3.49-1.78 1.94-3.86 3.62-5.89 5.33-.44.37-1.17.64-1.78.25-1.26-.79-.2-1.98-.44-2.96l.03-.02c.67.02.47-.51.53-.86l1.37-1.75.27-.24c1.05-.22 2.22-.31 1.97-1.88z" class="r"/><path d="M86.89 40.48l6.54-2.1c.52-.12-.24.71-.14 1.14l-.19.94-.24.49c-1.61.03-2.81 1.05-4.03 1.84-2.04 1.33-3.9 2.94-5.83 4.44-.36.45-.83.43-1.25.18-.09-.05.06-.57.16-.85l1.88-5.58c1.1.24 2.1-.15 3.1-.5z" class="p"/><path d="M85.69 31.83l-.22.25-2.21-3.37-2.16-2.39-1.68-1.44c.5-1.14 1.14-2.11 2.53-2.23l2.81 2.67 2.3 2.85.04.54-1.41 3.12z" class="m"/><path d="M85.69 31.83l1.42-3.12c2.69-.18 1.43-2.81 2.48-4.01.42-.48-.24-1.57.73-1.62.26-.01.58 1.01.87 1.56.19 1.26-.49 2.27-.97 3.34l-.75 2.39c-.52 1.45-.68 2.68 1.52 2.45l-1.22.44-.48.14-2.58.84c-.56-.34-.63-.51-.1-1.12.41-.48-.06-1.22-.92-1.29zm2.38-1.86l-.28-.17c-.05.09-.14.19-.13.27.01.07.14.13.22.19l.19-.29z" class="w"/><path d="M83 47.23l5.83-4.44c1.22-.8 2.42-1.82 4.03-1.84.24 2.51-1.92 2.78-3.42 3.69-1.1.67-2.25 1.32-3.2 2.16-1.06.92-2.07.98-3.24.43z" class="n"/><path d="M89.47 30.38l.75-2.39 3.11-.22.25.23.47.5c.42 1.75-.43 2.82-1.91 3.55-1.15-.14-2.3-.28-2.67-1.67z" class="s"/><path d="M96.71 46.24c-.61 3.49-2.18 6.42-4.98 8.66-.26.21-.22.79-.32 1.19-.49-1.03-.63-2.05.26-2.92 1.72-1.69 2.73-3.78 3.49-6.01.28-.8.78-1.05 1.55-.92z" class="n"/><path d="M55.41 61.12l.25-.47c1.16.02 1.34-1.07 1.93-1.7l-.02.02c1.42-1.15 2.98-2.16 3.85-3.86l.71-.02.53.28-2.44 2.41-1.44 1.41c-2.05 1.26-2.99 3.57-4.79 5.06l-.03-.3c-.05-.18-.65-.09-.12-.58.67-.6 1.07-1.49 1.57-2.25z" class="f"/><path d="M92.14 32.05c1.48-.73 2.33-1.8 1.91-3.55.04.01.09.02.11.04.58.79 2.26 1.6 1.8 2.11-.87.97-2.24 1.79-3.81 1.66l-.01-.26z" class="v"/><path d="M83.27 28.71l2.21 3.37-.36.56-.62.1-2.27-3.24 1.04-.79z" class="t"/><path d="M93.34 27.76l-3.11.22c.48-1.07 1.16-2.08.97-3.34l2.14 3.12z" class="o"/><path d="M87.08 28.17l-2.3-2.85c.76.13.74-.49.91-.94l1.87 2.24-.48 1.55z" class="t"/><path d="M92.14 32.05l.01.26-.76.54-.4-.02c-2.19.23-2.04-1-1.52-2.45.37 1.39 1.52 1.53 2.67 1.67z" class="o"/><path d="M86.89 40.48c-1.01.35-2 .74-3.1.49l-.74-.02c.89-.78 1.96-1.19 3.1-1.44.08.45.18.89.74.97z" class="k"/><path d="M93.95 22.17c-.72-.09-1.45-.86-2.16.05-.06.08-.58-.05-.58-.09-.01-.34-.06-.77.13-.99.21-.25.76-.52.97-.42.57.29 1.34.38 1.57 1.14l.07.31zm-12.6-9.06c.32-.72-.71-1.44 0-2.16.34.62 1.35.85 1.2 1.7-.08.52-.73.47-1.2.46z" class="o"/><path d="M86.89 47.69c.25 1.58-.92 1.67-1.98 1.88l1.65-1.92.33.04z" class="AE"/><g class="d"><path d="M87.46 16.22l2.26 1.64c-.13.09-.33.3-.39.26-.8-.44-1.75-.69-2.13-1.66-.01-.05.19-.17.26-.24zm-.76 18.04l2.58-.84c.01 1.27-1.18.82-1.79 1.2-.27.17-.81.38-.79-.36z"/><path d="M90.99 32.83l.4.02c.2.35.54.69.07 1.08-.23-1.08-1.57.69-1.69-.66l1.22-.44zm-1.23-18.31l-.97-1.27c.1-.04.27-.14.3-.11l1.76 2.1-.82-.48-.27-.24z"/></g><path d="M90.65 17.66c-.35.01-.7-.09-.61-.5.06-.27.34-.49.53-.73.16.24.34.46.46.71.17.37-.04.51-.38.52z" class="q"/><path d="M74.62 10.67l1.63.55.16.63a2.68 2.68 0 0 1-1.79-1.18zm-7.65 40.8l-.07-.46 1.01-.5c.07.03.14.05.22.05.01.81-.41 1.07-1.16.91zm9.58-44.85l-1.36-.44c.65-.36 1.2-.1 1.74.26l-.38.18zm8.86 28.75c-.81.02-.36-.37-.22-.66l.72-.01-.5.67zm-7.04-20.33l1.09-.62.41.1-.25.49c-.07-.01-.13.01-.18.05-.36-.19-.73.49-1.07-.02z" class="d"/><path d="M94.71 27.91l-.63-1.03c-.03-.06.11-.2.17-.31l.66.82c.04.06-.08.22-.2.52z" class="i"/><path d="M90.03 14.75l.82.48-.67.37-.15-.85z" class="q"/><path d="M62.14 54.62l.73-.77.42.14-.89.64c-.09 0-.18 0-.26-.01z" class="AB"/><path d="M80.65 9.52l-.66-.27-.2-.4c.56-.14.55.46.86.67zm13.3 12.65l-.07-.3c.41.01.73.11.67.62l.02-.02-.62-.3z" class="d"/><path d="M83.29 51.55c-.06.36.14.88-.53.86l.53-.86z" class="p"/><g class="d"><path d="M62.14 54.62l.26.01-.26.45-.72.03.72-.49zm32.4-32.14l.44.29-.23.17-.19-.48-.02.02zm1.94 2.62l-.31-.29.17-.09.12.4.02-.02z"/><path d="M96.46 25.12l.37.23-.13.15-.23-.4c.01 0-.01.02-.01.02z"/></g><path d="M93.1 40.45l.19-.94-.19.94zm.42.78c-.07 0-.14.01-.2 0-.02-.01-.06-.08-.05-.09.05-.04.1-.07.15-.1l.1.19z" class="n"/><path d="M90.1 18c.02.03.07.06.06.09-.02.06-.06.12-.09.18-.02-.03-.07-.06-.07-.08l.1-.19zm-9.25-8.06l-.22-.44.22.44z" class="d"/><g class="q"><path d="M80.17 39.51c-.26-.14-.29-.3-.02-.47l.02.47z"/><path d="M80.16 39.02l.22-.27-.22.27zm9.6-24.5l.27.24-.27-.24z"/></g><path d="M93.58 28l-.24-.23.24.23z" class="o"/><path d="M84.93 49.56l-.27.24.27-.24z" class="AE"/><path d="M47.73 25.17l-.01.57-.36 4.92-.13.68c-1.37-.07-1.98.61-1.9 1.95l-1.89.23-.49.24-.39.25-2.74 2.64c-.62.66-1.78 1.04-1.18 2.32.07 1.33-1.27 1.31-1.89 1.99-1.08-.31-1.63.7-2.47.99-.29-1.23-1.5-1.53-2.29-2.26-.66-.72-1.8-1.25-1.27-2.53 1.07-2.56 0-4.24-2.19-5.49l-.46-.33-.48-.19-.97-.28-2.17-.48-1.25-.41c-.43-1.63-1.29-2.4-3.16-2.21-2.59.26-4.07 2.28-6.05 3.46-3.97 2.35-6.76 5.78-8.71 10.07-1.94 4.25-3.13 8.5-2.4 13.14.5 3.15 2.35 4.6 5.52 4.47.98-.04 1.73-.6 2.02-1.67.64-2.38.34-4.8.37-7.21 1.69 1.67 3.41 3.74 6.07 2.54 1.88-.85 3.17-.69 4.47.74l5.33 4.19c-1.54.97-3.11 2.2-4.64 2.8-3.56 1.4-7.21 3.03-11.25 2.74-.56.13-1.12.41-1.67 0l-3.6-.48c-8.2-8.52-3.48-23.46 3.79-29.32.66 0 .49-.51.55-.89.06-.03.13-.05.2-.05.74-.42 1.51-.79 2.2-1.28 2.7-1.9 5.28-4.02 8.63-4.73 1.91-.57 3.81-1.16 5.28-2.61 1.49-1.38 3.55-1.18 5.28-1.9.47-.01.96.05 1.41-.06.63-.15 2.03.56 1.44-1.15.72-.51 1.52-.32 2.29-.22.06.01.18.35.12.47-.46 1.01-1.02 1.98-1.43 3.01-.66 1.69-1.29 3.41-.05 5.13-.12.99.3 1.73 1.2 2.07 1.15.43 2.19-.06 3.16-.66l.73-.45.72-.24c2.32-1.11 4.42-2.52 6.06-4.54.07.01.13-.01.18-.05.17.02.32.05.47.08zm-15.97-1.18c-.29-.21-.43-.34-.59-.42-.93-.48-4.83 1.27-5.05 2.27-.04.16.09.36.13.54.21-.06.42-.12.62-.2l3.94-1.58c.3-.12.55-.35.95-.61z" class="AA"/><path d="M10.78 63.03c4.03.29 7.68-1.34 11.25-2.74 1.53-.6 3.1-1.83 4.64-2.8.14 0 .28-.01.42-.01l.68.39c-.47 1.16-1.74 1.88-1.82 3.27l-.64 1.31-.03.02c-.02.06-.07.11-.13.14l-.21.44.02-.02c-.76.3-.8 1.01-.94 1.66l-.3.55-.9.44-.79.69a.76.76 0 0 0-.21.03l-.96.47-1.67.48c-.08 0-.16.01-.24.01l-2.42.47h-.44l-1.46-.26-1.63-.24-2.22-.91-.95-.06c-1.3-1.43-3.34-2.02-4.33-3.81l3.6.48c-.17.71.35 1.16.83 1.18.27.02.57-.76.85-1.18z" class="n"/><path d="M31.88 18.12c2.01-6.64 4.25-13.11 11.94-15.34.19-.06.37-.14.56-.21 2.48-.95 2.67-.94 2.62-.4-.13 1.68 1.27 3.9-2.04 4.44-1.92.31-3.67 1.68-5.47 2.61-.62.32-.47.94-.38 1.49-1.4 1.16-1.52 2.93-1.88 4.47-.72 3.09-3.29 2.45-5.3 2.99l-.05-.05z" class="l"/><path d="M48.73 14.08l.45-.07.74-.41a.54.54 0 0 0 .22-.04l.5-.43.46-.07.55-.39.43-.19.49-.3c.06.01.12 0 .17-.01l-.03.94-.19.72c-1.06 1.53-1.31 3.36-1.9 5.06l-.5.7-.48.73-.35.46c-.05 0-.1.01-.13.05l-.73.92-.71.96-.49.48-.47.52-.47.45-.04.66c-.37-.02-.68-.13-1.07.19l-4.44 3.45-2.69 1.19c-.42.17-.97.54-1.31.05-.26-.38-.41-1.01-.28-1.44 1.37-4.74 4.24-8.51 7.75-11.89 1.05-1.01 2.72-.54 3.55-1.8l.44-.06a4.71 4.71 0 0 0 .53-.43zm-9.24 13.96c.2-.06.7-.06 1.02-.3 2.76-2.06 5.16-4.54 6.96-7.45.44-.71 1.63-2.33.31-3.31-1.05-.78-2.34.16-3.03.92-2.24 2.47-4.29 5.11-6.36 7.73-.4.51-.65 1.2-.33 1.9.24.55.71.58 1.43.51z" class="p"/><path d="M35.23 28.96c-1.24-1.72-.61-3.44.05-5.13.4-1.03.96-2 1.43-3.01.05-.12-.06-.46-.12-.47-.78-.1-1.57-.29-2.29.22l-2.54-.01c-.83.08-2.15.1-2.11 1.02.05.92 1.18-.11 1.79.2-1.73.72-3.79.52-5.28 1.9-.65-.67-3.12-.06-4.67 1.22-.39.32-1.17.61-.61 1.4-3.35.71-5.93 2.83-8.63 4.73-.69.49-1.47.85-2.2 1.28 2.95-3.49 6.46-6.29 10.54-8.37 5.89-2.99 12.06-5.06 18.69-5.52.39-.03.8.15 1.2.24-.23.4-.4.85-.7 1.18-2.38 2.6-4.1 5.54-4.55 9.12z" class="l"/><path d="M50.19 8.79l-.09.46-3.19 1.65c-2.46 1.5-5.18 2.65-6.54 5.54-.4.86-1.47.84-2.23.02l1.01-4.54.43-1.23c.27-1.64 1.83-1.34 2.83-1.79 2.06-.93 4.22-1.65 6.35-2.42.62-.22 1.29-.31 1.94-.46l-.38 2.33-.13.44z" class="p"/><path d="M38.14 16.46c.76.82 1.82.85 2.23-.02 1.35-2.89 4.08-4.04 6.54-5.54 1.02-.62 2.12-1.1 3.19-1.65l.05.24-.25 1.21-.19.24.01.72-.08.94c-.64-.12-.99.35-1.41.69l-.73.28c-.07 0-.14.01-.21.05-1.85.88-3.56 1.91-5.11 3.3-1.15 1.03-2.76.05-4.16.24-.37.06-.05-.47.12-.7z" class="n"/><path d="M40.77 28.46l4.44-3.45c.39-.33.7-.21 1.07-.19l.82.32c-1.63 2.03-3.73 3.44-6.06 4.54l-.27-1.22zm-.45 1.46l-.73.45.16-.78.57.33z" class="k"/><path d="M39.57 10.68l-.43 1.23-.03-1.2.46-.03zM9.85 32.35c-.06.37.11.89-.55.89l.55-.89zm22.08-14.18l-.27.15c-.01 0-.04-.05-.07-.08l.3-.12c-.01 0 .04.05.04.05z" class="l"/><path d="M20.85 73.83l4.8-9.61c.13-.27.36-.49.55-.73l3.79.99 3.63 1.37c2.08.96 3.97 2.17 5.5 3.9 1.75 2.15 3.29 4.41 3.88 7.18-.92 2.36-2.61 4.04-4.69 5.41-.91.6-1.71 1.38-2.59 2.02-2.61 1.91-4.95 4.26-8.24 5.08l-1.06-2.67-1.09-1.61 2.75-5.04c1.71-2.88 2.89-5.95 3.3-9.26.15-1.21-.49-2.35-1.59-2.99-1.19-.69-2.17-.37-3.06.78-1.18 1.54-2.15 3.12-2.92 4.93-1.21 2.88-2.75 5.63-4.14 8.44l-1.68-.09 1.44-4.5.24-.24 1.18-3.36zm14.7-2.89c-1.13.05-1.95.51-.84 2.12.79 1.14 1.47 2.33 2.05 3.6.37.82 1.27 1.65 2.36 1.43 1.03-.21 1.47-1.08 1.56-2.13.23-2.59-2-4.98-5.13-5.02z" class="v"/><path d="M54 64.26c1.8-1.5 2.74-3.81 4.79-5.06v.95l-5.3 7.62c-2.64 3.89-3.45 8.03-1.4 12.42.73 1.57 1.81 2.85 3.82 1.59.38.52.6.46.96-.26 0-.08.01-.16.01-.24l.46-.49c0-.16.01-.31.01-.47.83-.26.34-.95.47-1.44.5-.05.47-.43.48-.79 1.45 1.36 2.88 3.3 5.1 1.68 1.2-.88 1.91-.58 2.83.07a.09.09 0 0 0-.11-.01c-.32 1.07-1.42.85-2.14 1.26-3.85 2.22-7.76 4.32-12.36 4.49l-1.9-4.64-.12-.63-.4-2.94c.02-.04.02-.09 0-.13.28-.43.33-.86-.01-1.28.86-4.21 2.3-8.18 4.81-11.7z" class="AA"/><path d="M48.47 75.99v3.84.72l-2.25 1.56c-.37.21-.93.35-1.11-.36-.28-2.08-.11-4.24-.96-6.23-.76-1.67-1.28-3.47-2.63-4.82l-.96-1.45.71-.94c.79.59 1.43 1.23 1.72 2.26.19.68.72 1.27 1.09 1.9l.95-1.53c.7-1.08 1.18-2.38 2.69-2.63l1.46 2.45v1.01l-.47 1.54-.02.53-.22 2.15zm-21 13.45c3.28-.82 5.63-3.17 8.24-5.08l2.59-2.02c2.09-1.36 3.77-3.04 4.69-5.41.06.01.11.02.17.04.11 1.92.79 3.79.39 5.74.07 1.43-1.23 1.56-2.05 2-4.5 2.49-8.9 5.19-13.98 6.38l.02-.83-.03-.55c-.02-.09-.03-.18-.04-.27z" class="w"/><path d="M22.36 93.24l-6.25 1.95c-.78.25-.98.03-1.02-.8-.13-2.73.97-5.22 1.43-7.83l.67-.06c.41.11 1.04-.11 1.04.65 0 .11-.01.27-.07.31-.59.35-.59.34-.51.78.41 2.37 1.76 2.74 4.23 1.18.06 0 .12.01.17.04.31 1.24.49 2.49.31 3.78z" class="o"/><path d="M26.1 90.88l-2.07 1.2c-.12-.94-.06-1.93-.87-2.64.41-.46-.08-.8-.15-1.19.81-.32 1.22-.97 1.49-1.75l1.14 1.29c.26 1.01.69 2 .46 3.09z" class="m"/><path d="M43.54 82.72c.4-1.95-.28-3.83-.39-5.74l.99-1.45c.86 1.99.69 4.15.96 6.23-.69.02-.53 1.46-1.56.96zm-20.38 6.71c.81.71.75 1.71.87 2.64-.06 1.1-.91 1.07-1.67 1.16.18-1.29.01-2.54-.32-3.79.38.58.75.06 1.12-.01zm2.94 1.45c.24-1.09-.19-2.08-.46-3.1l.77-1.01 1.06 2.67.04.26.03.55-.02.83c-.5.12-1.14 1.18-1.42-.2zm23.09-20.11l-1.46-2.45-.23-.69c.04-.43.25-.71.69-.77l1.43 1.79c.25.78.12 1.5-.43 2.12zM17.98 81.93l1.68.09.5.25-.5 1.18h-.95l-1.39-.13c.25-.45-.02-1.15.66-1.39zm-.8 4.57l-.67.06.05-1.19.95-.34.36-.09.58-.1.5.29-.23 1.37c-.51-.16-1.02-.35-1.54 0z" class="t"/><path d="M17.52 85.04l-.95.34.75-2.06 1.39.13-.25 1.41-.58.1c-.12.02-.24.05-.36.08z" class="m"/><path d="M55.41 61.12c-.51.77-.9 1.66-1.56 2.26-.54.49.06.4.12.58l-1.48.66c.73-1.38 1.54-2.68 2.92-3.5z" class="d"/><path d="M49.22 77.37l.4 2.94c-.9-.87-.24-1.96-.4-2.94z" class="f"/><path d="M48.72 73.32l.47-1.54c.1.59.23 1.19-.47 1.54z" class="d"/><path d="M48.47 75.99l.23-2.14c-.07.71.27 1.47-.23 2.14z" class="s"/><path d="M48.47 80.56v-.72l.43.3-.43.42zm.73-4.6c.34.42.29.85.01 1.28l-.01-1.28z" class="f"/><path d="M19.66 77.19l-.24.24.24-.24z" class="z"/><path d="M53.79 30.62l-.31.69c-1.07-.17-1.44 1.05-2.36 1.19l-1.46 1.43-.78.6-1.13-.61v-.85l.24-.27.21-.24.03-.72.23-.96c.22-.56.45-1.1 1.21-.99l.53-.44 1.41-.68.47-.29.98-.48.45-.04.73-.45c1.33-.37 2.36-.81 2.73-2.5.52-2.34 1.39-4.65 2.42-6.82.62-1.32 2.32-1.1 3.59-1.45l.17.69-.05.7c-.51.47-.46 1.09-.48 1.69l-.25.96-.19.24-.05.94-.44.75-.03.47-.44.97c.2 1.64-1.5 1.57-2.18 2.42-.75.02-1.34.22-1.26 1.15l-1.16.75c-.93-.16-1.24.44-1.44 1.17l-.07.03-.08-.01c-.51.19-1.19.16-1.24.96z" class="l"/><path d="M69.38 19.8c.82-.48 1.47-1.33 2.59-1.15-.82.5-1.58 1.1-2.59 1.15zm-14.19 9.85c.2-.74.51-1.34 1.44-1.17-.36.53-.77 1.01-1.44 1.17z" class="d"/><path d="M62.62 19.83c.02-.6-.03-1.23.48-1.69-.33.51.71 1.41-.48 1.69z" class="f"/><path d="M57.79 27.73c-.08-.93.51-1.13 1.26-1.15l-1.26 1.15zm-4 2.89c.04-.81.73-.78 1.25-.96l-.82.93c-.14.02-.28.03-.43.03z" class="d"/><g class="f"><path d="M61.22 24.15l.44-.97c-.03.38.16.85-.44.97zm.47-1.44l.44-.75c.02.35.04.69-.44.75zm.68-1.92l.25-.96-.25.96z"/><path d="M62.18 21.02l.2-.25-.2.25z"/></g><path d="M65.52 22.24l-.06.09c.02-.03.03-.07.05-.1z" class="o"/><path d="M50.85 27.98a.43.43 0 0 0-.22.06l-.73.42-.23.21c-2.01-.21-.49-1.78-.99-2.57 2.02-1.62 3.52-3.72 4.66-5.97.73-1.44 2.64-2.86 1.07-4.89l4.03-1.28c1.41-.57.97.41.79.93l-3.59 10.35c-.29.81-1.21.94-1.88 1.32l-.73.46-1.22.48a.42.42 0 0 0-.22.05l-.74.43z" class="p"/><path d="M47.76 33.91l1.14.61.46.21.32.21.43.13c1.98 2.03 4.96 2.15 7.16 3.77l2.58 1.88c-.75.13-1.52-1.12-2.26.02-1.97-.38-3.58-5.06-5.97-.51-.4 0-.8.01-.97-.47.82-1.12.72-2.3-.38-3-1.82-1.15-3.71-2.26-5.97-2.41-.03-.54-.15-.98-.84-.85l1.89-.23c.54.08 1.09.42 1.62-.03l.79.67z" class="g"/><path d="M54.4 15.26c1.57 2.03-.34 3.44-1.07 4.89-1.14 2.25-2.64 4.34-4.66 5.97l-.43-1.99.48-.66.48-.74.47-.49.46-.47.51-.92.91-.52.06-.67c1.01-1.18.64-2.85 1.45-4.11l.45-.06c.29-.1.59-.16.89-.23z" class="n"/><path d="M53.06 15.52c-.8 1.26-.43 2.93-1.45 4.11-.08-.56-.5-.68-.96-.76.59-1.7.84-3.53 1.9-5.06l.49.5v.48c-.32.27-1.13.16-.89.83.24.66.56-.31.91-.1z" class="k"/><path d="M46.95 33.26c-.53.44-1.08.1-1.62.03-.08-1.34.53-2.02 1.9-1.95l.03.69-.21.28-.1.95z" class="l"/><path d="M48.24 24.12l.43 1.99c.5.79-1.01 2.36.99 2.57-.99.59-1.46.35-1.44-.84l.02-3.72zm-.88 6.53l.36-4.92c-.2 1.64.54 3.34-.36 4.92z" class="k"/><path d="M53.06 15.52c-.34-.21-.67.76-.91.1-.24-.67.57-.56.89-.83l.48.24v.43l-.46.06z" class="y"/><g class="k"><path d="M51.55 20.31l-.91.52c-.16-.99.29-.91.91-.52zm.26 7.19l1.22-.48c-.17.77-.78.4-1.22.48zm1.25.5l-.98.48c.08-.64.59-.45.98-.48zm-4.6-6.25l.73-.92c.03.52-.01.99-.73.92z"/><path d="M54.24 27.52l-.73.45c-.03-.6.21-.75.73-.45zm-5.04-4.8l-.48.74c-.01-.36-.01-.71.48-.74zm.46-2.41l.48-.73c.02.35.01.7-.48.73zm1.19 7.67l.74-.43c-.06.46-.41.44-.74.43z"/><path d="M49.9 28.47l.73-.42c-.07.45-.41.42-.73.42zm-2.17-3.3l-.46-.08.22-.34.24.42zm2.4-3.42l-.46.47.46-.47zm-1.67 9.13l-.23.96.23-.96zm4.56-3.85l.73-.46c-.05.46-.38.47-.73.46zm-2.82 2.42l-.53.44.53-.44zm-.54-7.22l-.47.49.47-.49zm-3.34 1.92l.47-.45-.47.45z"/></g><path d="M53.51 15.03l.26-.41c.33.4-.06.34-.26.41z" class="y"/><g class="k"><path d="M47.26 23.19l.49-.48-.49.48zm4.82 5.29l-.47.29.47-.29zm-2.76-7.71l.35-.46-.35.46zM48 32.79l-.24.27.24-.27z"/><path d="M48.2 32.56l-.21.24.21-.24zm-1.15-.25l.21-.28-.21.28z"/></g><path d="M47.5 67.62l.23.69c-1.51.24-2 1.55-2.69 2.63l-.95 1.53c-.38-.63-.9-1.22-1.09-1.9-.29-1.02-.93-1.67-1.72-2.26-1.86-3.59-8.6-6.82-12.37-6.4-.55.06-1.66-.39-1.77.84l-.69.04c0-1.47 1.38-2.23 1.84-3.52.48-1.35 1.61-2.47 2.46-3.7.42.06.86.06 1.26.19 2.67.86 5.01 2.37 7.36 3.84l.45.69c-2.55-.35-4.4-2.8-7.3-2.3-.74.13-1.27.39-1.4.85-.17.64.15 1.31.97 1.53.79.22 1.59.3 2.34.78 2.18 1.42 4.44 2.73 6.7 4.03a1.34 1.34 0 0 0 1.09.01c.17-.09.13-.63.12-.97-.05-1.8-1.97-2.43-2.5-3.94 2.33.79 3.64 2.83 5.33 4.39l2.33 2.95z" class="m"/><path d="M39.36 59.61c-2.35-1.47-4.69-2.98-7.36-3.84-.4-.13-.84-.13-1.26-.19l-.79-.39c-.77-.49-1.55.05-2.33-.04l-.55-.06h-.38c-.67-1.68 1.15-4.41 3.03-4.52 1.93.99 1.84-1.17 2.71-1.81.81-.6.45-1.13-.51-1.22-.62-.43-.87-.93-.28-1.58.84.96.98-1.13 1.76-.4-.59.72-.17 1.15.46 1.44 1.28.58 1 1.28.23 2.08-.55.57-1.16 1.11-1.57 1.78-.73 1.18-1.52 1.86-2.96 1.11-.41-.21-.97-.13-1.25.37-.23.42-.37.9-.56 1.35l1.25.2c.63.09 1.34.01 1.87.28 3.09 1.62 5.75 1.52 7.77-1.68 1.04.65 1.34-.81 2.17-.76 0 .78-.73.99-1.16 1.43-.99 1.02-2.76 1.92-2.87 3-.12 1.19 2.06 1.38 3.08 2.25.09.07.14.18.22.28l-.72.92z" class="g"/><path d="M27.09 57.48l-.42.01-5.33-4.19.76-.85 5.47 4.11v.23l-.48.69z" class="AC"/><path d="M26.44 62.8l.69-.04 3.61.74c-.55.1-.68.52-.74.99l-3.79-.99c.06-.23.14-.47.23-.7z" class="t"/><path d="M27.57 56.79v-.23c-.18-.47 1.79-.87.05-1.4.77.09 1.56-.45 2.33.04-.37 1.15-.66 2.44-2.38 1.59z" class="l"/><path d="M25.95 61.13c.08-1.38 1.35-2.1 1.82-3.27l.32-.24c0 .16.05.35-.02.46l-2.12 3.05zm-3.12 4.55l.9-.44-.81 1.65c-.09.18-.26.32-.39.48l-.21-.71.51-.98z" class="d"/><path d="M10.79 66.42l2.22.91c-.91.11-1.72-.03-2.22-.91zm5.75 1.41l2.42-.47c-.65.99-1.63.24-2.42.47z" class="f"/><path d="M24.03 64.69c.13-.65.18-1.36.94-1.66l-.94 1.66z" class="d"/><g class="f"><path d="M19.19 67.35l1.67-.48c-.33.91-1.11.31-1.67.48zm3.64-1.67l-.51.98-.28-.29.79-.69z"/><path d="M20.87 66.87l.96-.47c.06.94-.62.35-.96.47zm-6.23.7l1.46.26-1.46-.26z"/></g><path d="M24.94 63.05l.21-.44-.21.44zm.34-.59s.04-.02.03-.02c0 .01-.03.02-.03.02z" class="d"/><path d="M49.62 12.61l.08-.94c.14.19.33.37.39.58.02.07-.3.24-.47.36zm.27-1.9l.25-1.21-.25 1.21z" class="f"/><path d="M52.73 13.1l.03-.94c.38.32.4.64-.03.94z" class="k"/><path d="M49.93 13.6l-.74.41c.07-.45.41-.42.74-.41zm-1.2.48l-.51.43.51-.43zm1.92-.96l-.5.43.5-.43zm1.01-.46l-.55.39.55-.39zm-4.18.92l.73-.28-.73.28zm5.11-1.41l-.49.3.49-.3zm-2.89-1.22l.2-.25-.2.25z" class="f"/><path d="M78.96 70.7a1.6 1.6 0 0 1 .21.05c.49.51.89 1.22 1.48 1.49 2.87 1.29 1.83 3.27.87 5.07-1.64 3.1-3.61 5.92-6.98 7.5-2 .94-2.69-.91-3.87-1.59-1.63-.94-3.05-2.24-4.55-3.39.04-.02.08-.02.11.01l1.64-.24c.79.56 1.56 1.16 2.39 1.66.75.45 1.43-.03 1.94-.47.57-.49-.37-.59-.42-.98-.03-.21-.12-.41-.18-.62.29.05.67-.01.86.16 1.1.94 2.39-.34 2.29-.52-1.58-2.59 1.19-1.43 1.77-2.03 1.47-1.54-.64-2.11-.67-3.2.09-.07.17-.14.26-.22.53.26 1.07 1.11 1.58.61.56-.55.75-1.48.32-2.34-.01-.07-.03-.14-.04-.21l.99-.74zm-.9 8.4c-.21 1.01-.76.69-1.28.45-.37-.17-.7-.41-1.03.09-.28.43-.69.77-.9 1.22-.11.23.71.49.29.83-.22.18-.78.09-1.12-.05-.87-.35-1.4.38-2.09.58-.01 0 .01.32.08.35.77.3 1.21 1.48 2.26.98.44-.21 1.22-.25 1.1-1.06-.02-.13-.65-.02-.32-.45.07-.09.56-.05.63.07.31.51.47.15.71-.05 2.21-1.86 3.59-4.28 4.76-6.88.46-1.04-.15-1.39-.83-1.75-.25-.13-.64-.6-.86.01-.24.67-.78 1.41.29 1.94.18.09.35.64.25.78-.17.23-.63.5-.85.42-1.4-.52-1.57.63-1.85 1.41-.07.26.52.76.76 1.11z" class="AC"/><path d="M84.97 63.52l.8-2.67c.17-.44.66-.49 1.1-.23l-.81 3.21c-.09.28-.51.69-.73.66-.54-.06-.29-.61-.36-.97zm1.63 4.66c-.66 1.08-.61 2.49-1.92 2.97-.41.15-.55-.39-.42-.65.5-1.07.68-2.33 1.75-3.07.01-.01.38.5.59.75zm1.94-7.73c.25.29.57.6.54.64-.75 1 .33 2.71-1.27 3.34-.07.03-.44-.35-.41-.43.48-1.08.01-2.49 1.14-3.55z" class="k"/><path d="M56.88 81.27l-.01.24-.96.26c-2.01 1.26-3.09-.02-3.82-1.59-2.04-4.39-1.24-8.53 1.4-12.42l5.3-7.62c.78-.44 1.42-1.01 1.67-1.92l5.05-3.23c1.51-.93 3.26-1.93 4.87-.81 1.58 1.1 1.13 2.91.42 4.5-.09.01-.18.03-.26.04-1.21-.37-2.4-.35-3.56.18l-.51-.12-1.66.42-.73.25-.47.24c-5.44 1.89-7.75 6.15-7.17 13.2l.19.49 1.23 3.81-.01 1.69c-.65.32-.44.92-.47 1.44 0 .16-.01.31-.01.47-.18.16-.33.32-.49.48z" class="r"/><path d="M70.53 58.72l.26-.04c.31.13.79-.19.96.34l.96.17.49.27c.37.23.25 1.23 1.1.7l1.06.93c.13 1.05-.41.8-.98.51-.01-.46-.27-.33-.52-.22l-1.39-.97c-.12-.35-.34-.46-.68-.28l-.03-.02c-.13-.56-.51-.11-.76-.18a.32.32 0 0 1-.21-.04l-.49-.22h-.47c-.08-.55.28-.77.7-.95zm5.76 4.31l.24.76v.14l-.18.54-.25.75.02-.02-.31.64-.41.57-1.23.45.55-1.22.15-.2v-.02l.23-.49.37-1.62c.28-.08.55-.18.82-.28zm-.67 4.79l1.89 1.46c-.03.54-.36.73-.86.71l-1.55-1.88.52-.29z" class="AB"/><path d="M76.65 69.99c.5.02.83-.17.86-.71l1.45 1.43-.99.75-1.32-1.47z" class="h"/><path d="M60.46 58.22c-.24.91-.89 1.47-1.67 1.92v-.95l1.44-1.41.23.44z" class="x"/><path d="M76.29 63.03l-.81.29c-.81-.29-.56-1.26-1.1-1.72.57.29 1.11.54.98-.51l.93 1.94zm-.88-.33c.02-.06.08-.14.07-.18-.02-.04-.11-.06-.18-.08-.03.06-.09.14-.07.18s.11.05.18.08zm.21 5.12l-.52.29-.92-1.24 1.23-.45c-.85.6-.01.95.21 1.4zm-1.32-7.66c-.85.53-.73-.46-1.1-.7.56-.07.83.31 1.1.7zm-1.59-.97l-.96-.17.96.17zm3.1 6.66l.31-.64-.31.64zm.29-.62l.25-.75-.25.75zm.43-1.29v-.14c.05.03.1.05.15.08a.77.77 0 0 0-.15.06z" class="h"/><path d="M82.23 29.51l2.27 3.24c-2.82 1.61-5.39 3.49-6.98 6.44-1.18-.27-.34.7-.61.99-.74 1.06-1.79 2.02-2.15 3.2-.64 2.05-2.33 2.54-3.9 3.39-2.37 1.27-2.81-1.13-3.61-2.08-2.82-3.38-6.23-5.81-10.25-7.47-.89-.37-1.81-.67-2.7-1.04-.91-.38-.02-.58.13-.71l7.81-6.3 2.53 1.28-3.29 4.3c-.39.5-.45 1.06-.16 1.56.28.5.79.5 1.36.38 2.4-.53 4.15-2.1 5.94-3.61.95.06 1.09 2.1 2.23 1.15.64-.53-.46-1.24-.83-1.84.51-.46 1.01-.94 1.55-1.38l6.48-5.21.72.26c.01.64.71.55.98.91.11.1.22.19.33.29l2.15 2.25zm-6.41 8.53l.15-.21c-.2-1.22-.95-1.96-2.06-2.4-.41-.56-1.01-.71-1.51-.33-.39.29.1.48.36.63l.63.72-.02-.05.33.21c.14.11.27.23.41.34l1.2 1.14c.18.24.35.32.48-.03.01 0 .03-.02.03-.02z" class="o"/><path d="M63.13 27.99c1.84-.08 2.75-1.7 4.14-2.53 1.53-.92 2.88-2.14 4.31-3.24l1.84.78c-.98 2.17-3.21 3.05-4.81 4.56-.86.82-1.66 1.98-3.07 2.11-.5-1-1.69-1.01-2.41-1.68z" class="v"/><path d="M57.58 40.74c.74-1.14 1.51.12 2.26-.02 1.12.93 2.28 1.83 3.03 3.12.07.75-.43.74-.95.71l-4.34-3.81z" class="e"/><path d="M73.18 21.25c.8-1.24 2.32-1.32 3.38-2.14l.94.51.3.15h.06c-.84.96-1.81 1.75-3 2.23l-1.68-.75z" class="v"/><path d="M49.35 34.74l-.46-.21.78-.6c.58-.39 1.4-.52 1.46-1.43.92-.13 1.28-1.36 2.36-1.19-.25 1.46-1.42 2.14-2.46 2.93-.33.25-.62.55-.93.83l-.43-.13c-.11-.06-.21-.13-.32-.2z" class="u"/><path d="M63.13 27.99c.73.67 1.91.68 2.41 1.68-.06.44-.33.68-.75.77l-2.53-1.28c-.21-.27-.82-.38-.49-.87.31-.48.86-.37 1.36-.3zm1.89 18.02l1.94 2.61-1.19.66-1.46-2.06c-.2-.66.55-.76.71-1.21z" class="t"/><path d="M65.02 46.01c-.16.45-.91.55-.71 1.21l-2.39-2.67c.51.03 1.02.04.95-.71l2.15 2.17z" class="g"/><path d="M73.18 21.25l1.68.75c.03.07.03.14.01.21l-.76 1.02-.71-.23-1.84-.78c.24-.84.93-.92 1.62-.97zm3.73 18.92c.26-.29-.57-1.26.61-.99l.72.91c.45.58.57 1.2.15 1.84-.61.94-.64-.06-.81-.3-.15-.21-.12-.54-.23-.79-.11-.24-.29-.45-.44-.67zm.6-20.56l-.94-.51c.32-.55.76-.85 1.42-.72l.91.52.06.2-.59 1.04-.5-.39h-.06c-.1-.03-.2-.08-.3-.14z" class="t"/><path d="M67.91 50.51l-1.01.5-.89-1.44.97-.46.93 1.4z" class="u"/><path d="M66.97 49.11l-.97.46c-.07-.11-.16-.2-.24-.3l1.19-.66-.01.26c.02.08.03.16.03.24z" class="j"/><path d="M78.44 44.79l-.44.73c-.01-.34-.02-.67.44-.73z" class="u"/><path d="M79.65 40.07c-.05-.04-.1-.07-.13-.11-.01-.01.03-.08.04-.09.06-.01.12.01.19.01l-.1.19z" class="q"/><path d="M66.95 48.87l.01-.25c.03.06.06.11.07.17.01.02-.05.05-.08.08z" class="t"/><path d="M72.3 11.94c.99.23 1.75.3 1.12 1.34-.46.76-.74 1.61-1.16 2.39-.51.94-1.28 1.6-2.37 1.75-.2.03-.62-.12-.62-.19-.02-1.29.23-2.56 1.05-3.57.59-.72 1.42-1.25 1.98-1.72z" class="s"/><path d="M85.68 24.38c-.17.44-.15 1.07-.91.94l-2.81-2.67-2.08-1.56c.04-.68.51-.79 1.05-.81l1.71 1.03 3.04 3.07z" class="e"/><path d="M82.65 21.31l-1.71-1.03-1.99-1.16-.06-.2c1.43-.82 2.89-2.41 4.25.09.49.88.36 1.68-.49 2.3z" class="i"/><path d="M88.31 46.95l-.72.7c.04-.44.28-.67.72-.7z" class="x"/><path d="M65.77 49.28l.25.29-3.61 1.95c-.12-1.17-.12-2.38-1.23-3.17l-.14-.18-.33-.24-.01-.01-.21-.15c-.49-.69-1.36-.33-1.92-.4-1.13-.15-2.57.29-3.04 1.53-.53 1.43-1.67 3.05.15 4.47l.61.6 1.58.78-3.39 3.96c-.08-1.49-.77-2.6-2.19-3.12-1.31-.47-2.62-.59-3.75.49l-.77.73-.42.71-.63 1.77.04.7.28 1.12.24.47.08.23c.35.62.86.98 1.6.95l1.17.31.5.15-2.59 3.18-1.97-2.63-.5-.48-.45-.51c-1.47-1.62-3.19-2.92-5.04-4.07-.07-.09-.13-.2-.22-.28-1.01-.87-3.2-1.06-3.08-2.25.11-1.08 1.88-1.97 2.87-3 .42-.44 1.16-.64 1.16-1.43l10.8-11.52c2.39-4.56 4 .12 5.97.51l4.34 3.81 2.39 2.67 1.46 2.06zm-17.75.41c-.09 0-.13.05-.13.14l-.39.7-.56.17c-.06.03-.08.08-.05.15-.29.36-1.01.6-.5 1.21.3.36.54.04.65-.3 1.57-.31 2.11-1.93 3.36-2.65.49.49-.09.61-.28.92-.51.84-.99 1.7-1.35 2.6-.1.24.19.82.46 1 1.22.8 1.14-.83 1.66-.98 2.14-.6 2.55-2.52 3.44-4.07.13-.23-.03-.66-.13-.98-.02-.07-.36-.1-.52-.05l-2.84 1.06 1.74-2c.25-.3.55-.68.2-1.04-.32-.33-.66-.16-1.03.12-1.43 1.07-2.47 2.48-3.52 3.88l-.17.03-.04.09zm10.22-4.39c.61-.16 1.46.31 1.68-.56.18-.73-.35-1.3-.83-1.86-1.36-1.61-3.44-.74-5.03-1.52-.22-.11-.79-.01-.82.11-.09.3-.09.75.09.97 1.28 1.56 2.74 2.85 4.91 2.86zM43.35 56.77c.36.04.78-.09.77-.66-.02-1.19-.93-1.43-1.86-1.58-.76-.12-1.63.39-1.53.89.24 1.22 1.54 1.06 2.62 1.35z" class="m"/><path d="M50.63 63.22l-.5-.15c-.19-.83.97-.85.95-1.58 1.37-.82 2.45-1.81 1.72-3.6-.61-1.51-1.91-1.19-3.11-1.07.47-1.6-.77-.49-1.16-.73 1.13-1.08 2.45-.96 3.75-.49 1.42.51 2.11 1.62 2.19 3.12-.03 2.56-1.79 3.66-3.84 4.5zm10.55-14.88c1.11.79 1.11 2 1.23 3.17-.71 1.61-1.61 3-3.62 3.09l-.48-1.38.72-.28c2.05-.48 1.93-1.97 1.65-3.54l.5-1.06zM46.07 63.76l1.97 2.63.16.46c-.45.06-.66.34-.69.77l-2.34-2.93c.38-.22 1.01-.2.9-.93z" class="j"/><path d="M58.31 53.23l.48 1.38-.04.01-2.46-.65-.61-.6c.19-.52-.85-1.22.22-1.62.66.72 1.13 1.76 2.41 1.48z" class="e"/><g class="d"><path d="M61.43 55.1c-.87 1.7-2.43 2.7-3.85 3.86.83-1.73 2.48-2.66 3.85-3.86z"/><path d="M57.6 58.94c-.59.63-.77 1.72-1.93 1.7.39-.85.87-1.61 1.93-1.7z"/></g><path d="M56.29 53.96l2.46.65-.19.12-.32.1-.37-.09-1.58-.78z" class="j"/><path d="M58.24 54.84l.32-.1-.32.1z" class="m"/><path d="M79.88 21.09l2.08 1.56c-1.39.12-2.03 1.1-2.53 2.23L78 24.15c-.74-1.14-1.96-1.49-3.12-1.95.02-.07.01-.14-.01-.21 1.19-.48 2.16-1.27 3-2.23l.5.39 1.51.94z" class="i"/><path d="M78 24.15l1.43.73 1.68 1.44c-.31.34-1.07.2-1.01.93l-.33-.29c.41-1.1-.43-.85-.98-.91l-.72-.26-1.06-.86-.29-1.02 1.28.24z" class="e"/><path d="M80.09 27.25c-.05-.74.7-.6 1.01-.93l2.16 2.39-1.04.79-2.13-2.25z" class="j"/><path d="M88.07 29.97l-.2.3c-.08-.06-.21-.12-.22-.19-.01-.08.08-.18.13-.27.09.04.18.09.29.16z" class="u"/><path d="M10.8 50.02c-.03 2.41.26 4.83-.37 7.21-.29 1.08-1.04 1.63-2.02 1.67-3.17.13-5.03-1.32-5.52-4.47-.73-4.63.46-8.89 2.4-13.14 1.96-4.28 4.75-7.72 8.71-10.07 1.98-1.17 3.46-3.2 6.05-3.46 1.87-.18 2.73.59 3.16 2.21-2.05-.02-4.08.13-5.94 1.12-3.68 1.71-6.83 3.93-7.92 8.16-.05.16-.11.31-.16.47l-.22 1-.01.91v1.22c-.25 2.63 1.24 4.79 1.84 7.17z" class="r"/><path d="M8.97 40.74l.22-1 .16-.47c1.09-4.22 4.25-6.44 7.92-8.16 2.29-.42 4.56-1.1 6.94-.72a.25.25 0 0 1 .05.19c.72.62 1.58.15 2.37.3l.97.28c.16.06.32.13.48.19l.46.33c-.02.95-.76.53-1.22.65a.83.83 0 0 1-.21-.06c-.23-.7-.81-.35-1.25-.41l-.92-.24c-.15-.09-.31-.17-.46-.26l-1.22.04c-.09-.05-.17-.1-.26-.14-.42-.57-.79-.23-1.17.07-.32 0-.65-.01-.97-.01h-.23c-.09.02-.17.03-.26.05-.48.13-1.13-.31-1.43.42l-.23.06-.71.24c-4.82 2.24-8.16 5.52-7.94 11.31a.23.23 0 0 0 .04.14c.03.19.05.38.08.57-.04.07-.08.14-.11.21l-.01.01c-.37.34-.7.62-.73-.23-.02-.43.25-.97-.38-1.22v-1.22c.02-.32.02-.62.02-.92zm.74-1.07c0 .05 0 .11-.01.16.02-.02.06-.05.06-.07 0-.03-.03-.06-.05-.09z" class="AD"/><path d="M8.96 42.87c.62.25.36.8.38 1.22.03.85.36.57.73.23.88.76.14 2.16 1.14 2.88.95 3.17 3.42 5.21 5.71 4.17 2.25-1.03 3.67-.28 5.18 1.08l-.76.85c-1.3-1.43-2.59-1.59-4.47-.74-2.65 1.2-4.38-.87-6.07-2.54-.6-2.38-2.09-4.54-1.84-7.15z" class="h"/><path d="M38.65 38.97c-.6-1.28.55-1.67 1.18-2.32.36.86.93.38 1.45.22-.53.88-1.76 1.76.01 2.66.12.06.21.35.19.52-.26 2.27-3.07 3.77-4.83 2.56-.38-.26-.6-.26-.89.02-1.26-1.46-1.24.87-2.06.7l.19-.95.4-.43c.84-.29 1.39-1.3 2.47-.99.49.49 1.12 1.52 1.59 1.16 1.03-.77 3.01-1.87.3-3.15zm-2.26 3.04c-.04-.1-.06-.22-.09-.22-.11 0-.21.04-.31.07.03.08.05.23.08.23.1 0 .2-.05.32-.08z" class="g"/><path d="M27.32 32.32c.46-.11 1.2.3 1.22-.65 2.19 1.25 3.25 2.92 2.19 5.49-.53 1.28.6 1.8 1.27 2.53l-.81 1.01c-1.14-.68-2.55-1.66-2.03-2.94 1.04-2.54.4-4.17-1.84-5.44z" class="h"/><path d="M20.89 26.29c-.56-.79.22-1.08.61-1.4 1.55-1.28 4.02-1.89 4.67-1.22-1.47 1.46-3.37 2.06-5.28 2.62zm10.87-2.3c-.39.26-.65.49-.95.61l-3.94 1.58c-.2.08-.41.13-.62.2-.05-.18-.17-.38-.13-.54.22-1 4.12-2.74 5.05-2.27.15.08.29.21.59.42z" class="k"/><path d="M41.28 36.87c-.52.16-1.09.64-1.45-.22l2.74-2.64c.13-.08.5.2.39-.25l.49-.24c.7-.13.82.31.84.85l-.02.02-.36.29-2.63 2.19z" class="e"/><path d="M31.44 21.78c-.61-.3-1.74.72-1.79-.2s1.27-.94 2.11-1.02 1.69 0 2.54.01c.59 1.71-.8 1-1.44 1.15-.45.11-.94.05-1.42.06z" class="k"/><path d="M38.65 38.97c2.72 1.28.73 2.37-.29 3.15-.47.36-1.1-.67-1.59-1.16.6-.68 1.95-.66 1.88-1.99z" class="l"/><path d="M31.19 40.71L32 39.7c.78.73 1.99 1.03 2.29 2.26l-.4.43c-1.3.09-1.83-1.08-2.7-1.68z" class="AC"/><path d="M24.21 30.39c-2.38-.37-4.64.31-6.94.72 1.86-.99 3.89-1.14 5.94-1.12l1.24.41.02-.01h-.26z" class="h"/><path d="M10.78 63.03c-.28.42-.58 1.2-.84 1.18-.48-.02-1-.47-.83-1.18.56.41 1.12.13 1.67 0z" class="p"/><path d="M26.63 30.87c-.78-.15-1.64.32-2.37-.3l.22-.19-.02.01 2.17.48z" class="h"/><path d="M42.95 33.76c.11.45-.26.17-.39.25l.39-.25z" class="g"/><path d="M28.08 31.35l-.48-.19.48.19z" class="h"/><path d="M39.49 28.04c-.72.06-1.19.04-1.43-.5-.31-.7-.07-1.39.33-1.9 2.07-2.62 4.12-5.26 6.36-7.73.68-.75 1.98-1.7 3.03-.92 1.32.98.13 2.6-.31 3.31-1.79 2.91-4.19 5.38-6.96 7.45-.32.23-.81.24-1.02.29z" class="r"/><path d="M20.16 82.26l-.5-.25 4.14-8.44c.76-1.81 1.74-3.39 2.92-4.93.88-1.15 1.86-1.48 3.06-.78 1.09.64 1.74 1.78 1.59 2.99-.41 3.31-1.59 6.38-3.3 9.26l-2.75 5.04c-1.7-1-3.07-2.58-5.16-2.89z" class="i"/><path d="M35.55 70.94c3.14.04 5.36 2.42 5.13 5.02-.09 1.05-.53 1.92-1.56 2.13-1.09.22-1.98-.61-2.36-1.43a22.77 22.77 0 0 0-2.05-3.6c-1.12-1.6-.29-2.07.84-2.12z" class="s"/><path d="M40.56 69.26l.96 1.45c-1.06.34-1.43-1.08-2.41-.96-1.53-1.73-3.42-2.95-5.5-3.9l1.03-.96c2.34.97 4.18 2.59 5.92 4.37z" class="e"/><path d="M39.11 69.75c.98-.13 1.34 1.29 2.41.96 1.35 1.35 1.87 3.15 2.63 4.82l-.99 1.45c-.06-.02-.11-.03-.17-.04-.59-2.78-2.13-5.04-3.88-7.19z" class="g"/><path d="M20.16 82.26c2.09.3 3.46 1.89 5.15 2.9l1.09 1.61-.77 1.01-1.14-1.29-.1-.38c.68-1.99-1.61-1.35-2.11-2.35-.14-.28-.65-.05-.72.42l-1.91-.75.51-1.17zm14.49-17.37l-1.03.96-3.63-1.37c.07-.46.19-.89.74-.99 1.42.14 2.7.69 3.92 1.4z" class="j"/><path d="M57.84 77.18l-1.23-3.81c.38-.01.72-.07.76-.55l1.11 2.52c.18.46.47.91.53 1.39.12.97 1.45 1.28 1.23 2.39-.05.05-.09.1-.14.14l.12-.17c.68-.05 1.61.16 2-.2 1.77-1.67 3.42-1.23 5.12 0l.54.69-1.64.24c-.93-.64-1.63-.95-2.83-.07-2.21 1.62-3.65-.32-5.1-1.68l-.47-.89z" class="h"/><g class="x"><path d="M57.84 77.18l.47.9c-.01.36.02.74-.48.79l.01-1.69z"/><path d="M57.36 80.31c.04-.52-.17-1.12.47-1.44-.14.49.35 1.18-.47 1.44zm-1.45 1.46l.96-.26c-.36.71-.58.77-.96.26zm.97-.5l.46-.49-.46.49z"/></g><path d="M34.65 64.89c-1.22-.71-2.49-1.26-3.92-1.39l-3.61-.74c.11-1.23 1.23-.78 1.77-.84 3.78-.42 10.51 2.81 12.37 6.4l-.71.94c-1.73-1.78-3.57-3.4-5.9-4.37z" class="z"/><path d="M27.54 90.25l-.03-.55c0 .19.02.37.03.55z" class="v"/><path d="M17.18 86.5c.52-.36 1.04-.17 1.55 0l.7.3 1.98 1.66.46.95c-2.48 1.56-3.83 1.19-4.23-1.18-.08-.44-.07-.43.51-.78.06-.04.07-.2.07-.31 0-.75-.63-.53-1.04-.64z" class="i"/><path d="M21.87 89.42l-.46-.95c.52.02 1.06.07 1.14-.67l.47.45c.07.4.56.74.15 1.19-.37.07-.74.58-1.12.02-.07-.03-.12-.05-.18-.04z" class="g"/><path d="M23.01 88.24l-.47-.45-1.84-1.76c-.51-.43-.98-.94-1.74-.9l-.5-.29.25-1.41h.95l1.91.75 2.83 1.93.1.38c-.27.78-.68 1.43-1.49 1.75z" class="i"/><path d="M18.96 85.14c.76-.05 1.23.47 1.74.9-.54.06-1.22-.1-1.28.77l-.7-.3.24-1.37z" class="j"/><path d="M17.52 85.04l.36-.09-.36.09z" class="i"/><path d="M51.13 32.5c-.06.91-.88 1.05-1.46 1.43l1.46-1.43z" class="d"/><path d="M41.28 36.87l2.63-2.2.36-.29.02-.02c2.25.15 4.15 1.26 5.97 2.41 1.11.7 1.21 1.87.38 3l-12 12.75c-2.02 3.2-4.68 3.3-7.77 1.68-.53-.29-1.24-.2-1.87-.29l-1.25-.2c.18-.45.32-.93.56-1.35.27-.5.84-.58 1.25-.37 1.45.75 2.23.06 2.96-1.11.41-.66 1.02-1.2 1.57-1.78.76-.8 1.04-1.5-.23-2.08-.63-.29-1.05-.72-.46-1.44l.52-.45-.05-.04.06.03.18-.31 1.65-2.17c.29-.28.5-.29.89-.02 1.76 1.21 4.57-.29 4.83-2.56.02-.17-.07-.46-.19-.52-1.78-.9-.55-1.78-.01-2.67zm5.32 3.35c-.15-.24-.55-.44-1.25-.37-1.77.18-2.81 1.31-3.86 2.57-2.13 2.58-4.26 5.17-5.95 8.06-.25.43-.42 1.36-.23 1.5.6.43 1.15-.18 1.68-.5 2.6-1.59 4.5-3.96 6.58-6.1 1.31-1.34 2.94-2.63 3.03-5.16z" class="m"/><path d="M38.64 52.51l12-12.75c.16.48.57.47.97.47l-10.8 11.52c-.83-.04-1.13 1.42-2.17.76z" class="e"/><path d="M49.35 34.74l.32.21-.32-.21z" class="w"/><path d="M39.82 60.3c.54 1.5 2.45 2.13 2.5 3.94.01.34.05.88-.12.97-.28.15-.8.16-1.09-.01l-6.7-4.03c-.75-.49-1.55-.57-2.34-.78-.82-.22-1.14-.89-.97-1.53.13-.46.65-.73 1.4-.85 2.9-.5 4.75 1.95 7.3 2.3.01-.01.02-.01.02-.01z" class="s"/><path d="M39.82 60.3l-.46-.69.71-.91c1.85 1.14 3.58 2.45 5.04 4.07l.45.51.5.48c.12.72-.52.71-.91.93-1.69-1.55-2.99-3.6-5.33-4.39z" class="e"/><path d="M31.19 40.71c.87.61 1.4 1.77 2.7 1.68l-.19.95c-.06 0-.09.03-.09.09-.04.05-.09.1-.13.16l-.17.23-.98 1.18-.69.98c-.59.65-.34 1.15.28 1.58l-2.2 3.02c-1.87.11-3.7 2.83-3.03 4.52.13.29.26.25.38 0l.55.06c1.74.53-.23.93-.05 1.4l-5.47-4.11c-1.51-1.37-2.93-2.11-5.18-1.08-2.29 1.05-4.75-1-5.71-4.17.13-.1.37-.19.39-.31.48-2.68 1.95-4.85 3.62-6.86 2.51-3.03 6.19-4.97 8.04-8.63l1.22-.04c.15.09.31.17.46.26l.92.24 1.25.41a.83.83 0 0 0 .21.06c2.24 1.27 2.87 2.89 1.83 5.44-.51 1.28.9 2.25 2.04 2.94zm-16.3 5.94l.04.05a18.64 18.64 0 0 0 .19.71c.73 1.07 1.77 1.56 3 1.29 1.19-.26 2.03-1.13 2.21-2.34.17-1.21-.24-2.3-1.32-3.04l-.76-.36c-1.83-.46-2.69.66-3.38 2.07-.05.15-.09.3-.14.46l.05.83c.04.11.07.22.11.33zm6.43-6.87h0c.87 1.96 2.34 2.55 4.12 1.4 1.93-1.25 1.54-3.18.7-4.85-.71-1.42-1.99-1.76-3.38-.68-.87.48-1.69 1.01-1.65 2.18-.51.72-.01 1.32.21 1.95zm1.75 9.3c.65 1.02 1.54 1.64 2.77 1.43 1.39-.24.71-1.37.74-2.14.03-.71.53-.82 1-.94 1.23-.32 1.92-1.05 1.93-2.36.02-1.31-.84-1.75-1.92-1.96-4.63-.15-6.29 2.04-4.52 5.97z" class="AE"/><path d="M33.3 43.82l.17-.23c.07-.03.12-.08.13-.16 0-.06.03-.09.09-.09.82.16.79-2.16 2.06-.7l-1.65 2.17-.18.31-.06-.03.05.04c-.38-.1-.55.05-.52.44-.79-.72-.93 1.37-1.76.41l.69-.98c.66-.12 1.19-.35.98-1.18z" class="e"/><path d="M29.72 50.58l2.2-3.02c.96.09 1.32.61.51 1.22-.87.63-.78 2.79-2.71 1.8zm-2.64 4.51c-.13.25-.26.29-.38 0h.38z" class="l"/><path d="M67.35 78.9c-1.7-1.23-3.35-1.67-5.12 0-.39.36-1.32.15-2 .2l.02.02c.22-1.11-1.11-1.42-1.23-2.39-.06-.48-.34-.93-.53-1.39.25-.23.61-.42.74-.7 1.61-3.66 4.07-6.73 6.58-9.79 1.32-1.61 2.52-3.3 3.78-4.95.08-.04.17-.09.26-.14l-.01-.08h.47c.16.07.33.14.49.22.07.04.13.05.21.04l.77.18.03.02c.23.09.45.19.68.28l1.39.97.52.22c.54.46.29 1.43 1.1 1.72l-.37 1.62c-.08.16-.15.33-.23.49-.05.09-.1.16-.15.22l-.55 1.22.92 1.24L76.67 70l1.32 1.46c.01.07.02.14.04.21l-1.9 1.73c-.09.07-.17.14-.26.22-.4.2-.87.32-1.2.61-.93.81-1.75 1.79-3.13 1.81-.28-.81-.13-1.14.85-1.35 1.21-.26 2.22-1.02 1.53-2.58-.69-1.57-2.02-1.85-3.51-1.58-2.31.42-2.7 2.05-2.41 4.06 0 .15.01.31.01.46.3 1 .67 1.95 1.85 2.21-.47 1.11-1.44 1.44-2.51 1.64zm1.7-15.05c-1.28.29-2.51 1.08-2.5 2.68.01 1.51.68 3.1 2.51 3.12 1.71.03 3.3-.74 3.32-2.77.03-1.89-1.15-2.88-3.33-3.03zm-2.57 9.02c.16-1.51-.68-2.47-1.98-2.53-1.99-.1-3.65.92-3.75 3.02-.07 1.49 1.1 2.59 2.76 2.66 2.19.1 2.74-1.4 2.97-3.15z" class="x"/><g class="n"><path d="M67.35 78.9c1.07-.2 2.05-.53 2.49-1.66.93.1 1.48-.32 1.68-1.22 1.38-.02 2.2-1 3.13-1.81.33-.28.8-.41 1.2-.61.03 1.09 2.14 1.66.67 3.2-.57.6-3.35-.57-1.77 2.03.11.18-1.19 1.46-2.29.52-.19-.16-.57-.11-.86-.16.06.21.16.41.18.62.05.38.99.49.42.98-.51.44-1.2.92-1.94.47-.83-.5-1.59-1.1-2.39-1.66l-.52-.7zm10.71.2c-.24-.35-.83-.85-.73-1.11.27-.78.44-1.94 1.85-1.41.21.08.67-.18.85-.42.1-.14-.07-.69-.25-.78-1.07-.53-.53-1.28-.29-1.94.22-.61.61-.14.86-.01.68.36 1.3.71.83 1.75-1.16 2.6-2.55 5.02-4.76 6.88-.24.2-.4.56-.71.05-.07-.12-.56-.16-.63-.07-.34.43.3.32.32.45.12.81-.65.84-1.1 1.06-1.05.5-1.49-.68-2.26-.98-.06-.03-.09-.35-.08-.35.69-.2 1.21-.93 2.09-.58.34.14.9.23 1.12.05.42-.34-.4-.6-.29-.83.21-.45.62-.8.9-1.22.32-.5.66-.27 1.03-.09.49.24 1.04.56 1.25-.45z"/><path d="M76.11 73.39l1.9-1.73c.44.86.25 1.79-.32 2.34-.51.49-1.05-.36-1.58-.61z"/></g><path d="M57.38 72.82c-.04.48-.39.54-.76.55l-.19-.49c-.58-7.05 1.74-11.31 7.17-13.2.26.13.47.16.47-.24l.73-.25 1.66-.42.51.12c.87.41.87.41.02 1.04v-.01c-.08.04-.17.08-.25.12l-1.14.13c-.38.01-.85-.21-1.04.37-.04.08-.1.11-.19.1l-.75.29c-2.64 1.33-4.91 2.95-5.87 6.02-.64 1.99-.25 3.92-.37 5.87z" class="AD"/><g class="h"><path d="M66.98 59.95c.86-.63.86-.63-.02-1.04 1.16-.53 2.35-.55 3.56-.18-.42.18-.78.4-.7.95l.01.08-.27.15c-.85-.57-1.7.22-2.58.04zm-.52-1.17l-1.66.42 1.66-.42zm-2.39.66c0 .4-.21.36-.47.24l.47-.24zm-7.64 13.44l.19.49-.19-.49zm15.34-12.77l-.77-.18c.25.07.63-.38.77.18z"/><path d="M72.47 60.41l-.68-.28c.34-.18.56-.07.68.28zm1.92 1.19l-.52-.22c.25-.11.51-.24.52.22zm-3.6-1.71l-.49-.22.49.22zm4.09 5.54l.23-.49-.23.49zm-.15.22l.15-.2-.15.2z"/></g><path d="M75.41 62.7c-.06-.03-.16-.04-.18-.09s.04-.12.07-.18c.06.03.16.04.18.08.02.05-.04.12-.07.19z" class="AB"/><path d="M77 24.94l1.06.86-6.48 5.21c-.54.43-1.03.92-1.55 1.38l-1.92-1.02-.44-.19-.48-.02c-.06.07-.13.13-.19.2l.17.48.27.18 1.19 1.05c-1.79 1.51-3.54 3.07-5.94 3.61-.57.13-1.08.13-1.36-.38-.28-.5-.22-1.06.16-1.56l3.29-4.3c.42-.09.69-.32.75-.77 1.41-.13 2.2-1.29 3.07-2.11 1.6-1.51 3.83-2.39 4.81-4.56l.71.23L77 24.94z" class="i"/><path d="M67.18 31.84l-.17-.48c.06-.07.13-.13.19-.2l.48.02.44.19 1.92 1.02c.37.6 1.47 1.31.83 1.84-1.15.95-1.28-1.09-2.23-1.15l-1.19-1.05-.27-.19zm6.22 4.61l-.63-.72 1.15-.29c1.11.44 1.86 1.18 2.06 2.4l-.15.21-.02.02-.48.03-1.2-1.14-.41-.34-.33-.21c-.01-.01.01.04.01.04z" class="e"/><g class="j"><path d="M73.91 35.43l-1.15.29c-.26-.15-.75-.34-.36-.63.5-.37 1.11-.21 1.51.34zm4.87-9.37c.55.06 1.39-.19.98.91-.27-.37-.96-.27-.98-.91zm-5.07 10.55l.41.34-.41-.34zm1.61 1.48l.48-.03c-.14.35-.3.27-.48.03z"/><path d="M75.82 38.04l.15-.21-.15.21zm-2.42-1.59l-.02-.05.02.05z"/></g><path d="M77.51 19.61l.3.15a2.1 2.1 0 0 1-.3-.15z" class="i"/><path d="M77 24.94l-2.88-1.71.76-1.02c1.16.46 2.38.81 3.12 1.95l-1.28-.23.28 1.01z" class="j"/><path d="M79.88 21.09l-1.52-.93.59-1.04 1.99 1.16c-.55.01-1.02.13-1.06.81z" class="g"/><path d="M50.84 48.62l2.84-1.06c.16-.06.5-.02.52.05.1.32.26.75.13.98-.89 1.55-1.31 3.47-3.44 4.07-.52.15-.44 1.77-1.66.98-.27-.18-.55-.76-.46-1 .36-.9.85-1.76 1.35-2.6.18-.3.77-.42.28-.92l.44-.5zm7.4-3.32c-2.16-.01-3.63-1.31-4.92-2.87-.18-.22-.18-.67-.09-.97.03-.11.6-.21.82-.11 1.59.79 3.67-.09 5.03 1.52.48.57 1.01 1.13.83 1.86-.21.89-1.06.41-1.67.57z" class="s"/><path d="M55.9 51.75c-1.08.4-.03 1.09-.22 1.62-1.82-1.42-.69-3.04-.15-4.47.46-1.24 1.91-1.68 3.04-1.53.56.07 1.43-.29 1.92.4l.21.15.34.25.14.18-.5 1.06c-1.28-.56-2.57-1.29-3.76.18-.97.41-1.21 1.19-1.02 2.16z" class="g"/><path d="M50.84 48.62l-.45.49c-1.25.72-1.79 2.34-3.36 2.65l-.15-.92c-.03-.07-.01-.11.05-.15.25.15.54.41.56-.17l.39-.7c.08-.01.12-.06.13-.14l.05-.07h.09l.08-.03c1.05-1.4 2.09-2.81 3.52-3.88.37-.28.71-.45 1.03-.12.35.36.05.74-.2 1.04l-1.74 2zm-2.31 7.46c.39.24 1.63-.87 1.16.73h.01l-.25.25c-.02.06-.03.11-.04.17-1.31.47-1.98 1.33-1.6 2.75.4 1.46 1.41 1.89 2.82 1.54l.45-.03c.02.73-1.14.75-.95 1.58l-1.17-.31c-.18-.91-.98-.78-1.6-.95l-.08-.23-.24-.47-.28-1.12-.04-.7.63-1.77.42-.71.76-.73z" class="e"/><path d="M43.35 56.77c-1.08-.29-2.39-.14-2.63-1.35-.1-.5.77-1.01 1.53-.89.93.15 1.84.39 1.86 1.58.02.57-.4.71-.76.66z" class="s"/><g class="j"><path d="M46.89 50.85l.15.92c-.11.34-.35.66-.65.3-.51-.62.21-.86.5-1.22zm.47 10.97c.62.17 1.42.04 1.6.95-.74.02-1.25-.33-1.6-.95zm.4-5.01l-.42.71.42-.71zm-2.19 6.47l-.45-.51.45.51zm1.93-12.75c-.02.58-.31.33-.56.17l.56-.17z"/><path d="M47.03 61.11l.24.47-.24-.47zm-.32-1.82l.04.7-.04-.7zm13.98-11.37l-.21-.15.21.15zm.35.25l-.33-.24.33.24zm-12.8 1.42l-.08.03h-.09l.17-.03zm-.22.1c0 .08-.05.13-.13.14-.01-.09.04-.14.13-.14z"/></g><path d="M51.08 61.49l-.45.03c.36-1.65.36-3.19-1.23-4.29a.47.47 0 0 1 .04-.17l.25-.25c1.19-.11 2.49-.44 3.1 1.07.75 1.8-.34 2.78-1.71 3.61z" class="m"/><path d="M55.9 51.75c-.19-.97.04-1.75 1.02-2.17 1.66.52 3.2 1.12 2.1 3.36l-.72.28c-1.27.29-1.74-.75-2.4-1.47z" class="i"/><path d="M59.03 52.95c1.1-2.24-.44-2.84-2.1-3.36 1.18-1.47 2.47-.74 3.76-.18.27 1.56.39 3.06-1.66 3.54z" class="m"/><path d="M8.97 40.74l-.01.91.01-.91zm.38-1.47l-.16.47.16-.47z" class="h"/><path d="M23.26 31.39c-1.84 3.66-5.52 5.61-8.04 8.63-1.68 2.02-3.14 4.19-3.62 6.86-.02.12-.26.21-.39.31-1-.71-.26-2.12-1.14-2.88.05-.08.09-.15.12-.22-.03-.19-.05-.38-.08-.57l.02-.08-.07-.06c-.23-5.78 3.12-9.06 7.94-11.31l.71-.24.23-.06 1.43-.42c.09-.02.17-.03.26-.05l.12.02.12-.02.97.01 1.17-.07c.08.05.17.1.25.15z" class="r"/><g class="h"><path d="M20.38 31.35l-1.43.42c.3-.73.95-.3 1.43-.42zm6.73.92l-1.25-.41c.44.05 1.02-.29 1.25.41zM23 31.24l-1.17.07c.38-.3.75-.64 1.17-.07z"/><path d="M18.72 31.83l-.71.24.71-.24zm6.22-.22l-.46-.26.46.26zM9.71 39.67c.02.03.05.06.05.09s-.04.05-.06.07c0-.05.01-.1.01-.16zm.48 4.42l-.11.21.11-.21zm-.12-.71l.07.06-.02.08c-.03-.04-.05-.09-.05-.14zm10.8-12.08l-.12.02-.12-.02h.24z"/></g><path d="M24.48 30.38l-.22.19c.01-.07 0-.13-.05-.19a1.22 1.22 0 0 0 .27 0z" class="AA"/><path d="M36.39 42.01c-.11.03-.22.08-.32.07-.03 0-.05-.15-.08-.23a1.73 1.73 0 0 1 .31-.07c.02 0 .05.13.09.23z" class="e"/><path d="M44.26 34.38l-.36.29.36-.29z" class="g"/><path d="M24.4 86.12l-2.83-1.93c.06-.47.58-.7.72-.42.5.99 2.79.36 2.11 2.35z" class="e"/><path d="M66.98 59.95c.87.18 1.72-.61 2.6-.05l-3.78 4.95c-2.5 3.06-4.97 6.13-6.58 9.79-.13.29-.49.47-.74.7l-1.11-2.52c.12-1.95-.26-3.88.36-5.86.97-3.07 3.23-4.68 5.87-6.02l.75-.29c.09.01.15-.02.19-.1l1.04-.37 1.14-.13c.08-.04.17-.08.25-.12l.01.02z" class="r"/><path d="M60.23 79.1l-.12.17c.05-.05.09-.1.14-.14-.01-.01-.02-.03-.02-.03z" class="x"/><path d="M19.43 86.81c.05-.87.73-.71 1.28-.77l1.84 1.76c-.07.74-.62.69-1.14.67l-1.98-1.66z" class="e"/><path d="M46.6 40.22c-.09 2.53-1.72 3.82-3.03 5.17-2.08 2.14-3.99 4.5-6.58 6.1-.52.32-1.08.92-1.68.5-.19-.14-.02-1.07.23-1.5 1.7-2.9 3.82-5.48 5.95-8.06 1.04-1.26 2.09-2.39 3.86-2.57.7-.08 1.1.12 1.25.36z" class="i"/><path d="M33.4 45.57c-.03-.39.14-.54.52-.44l-.52.44zm.53-.45l.18-.31-.18.31z" class="g"/><path d="M22.75 35.65c1.39-1.08 2.67-.74 3.38.68.84 1.67 1.23 3.6-.7 4.85-1.78 1.16-3.25.56-4.12-1.39 1.2.31 2.6 1.46 3.3-.65.6-1.79-.79-2.56-1.86-3.49zm.32 13.43c-1.77-3.93-.12-6.12 4.52-5.96.23 2.84-1.66 5.33-4.52 5.96zm-.14-2.5c-.18.72-.05 1.57.76 1.49 1.51-.14 1.06-1.69 1.47-2.62.15-.34.06-1.16-.43-1-.91.32-1.97.76-1.8 2.13zm-8.06-1.55c.68-1.41 1.54-2.53 3.37-2.07l.76.36c1.08.73 1.5 1.83 1.32 3.04-.17 1.21-1.01 2.08-2.21 2.34-1.23.27-2.28-.23-3-1.29l-.19-.71-.04-.05-.11-.33-.05-.83c.06-.15.1-.31.15-.46zm2.66 2.67c1.37.19 1.21-1.18 1.27-1.92.08-1.04-.55-1.92-1.79-1.93-1.1-.01-1.48.8-1.39 1.68.12.99.2 2.19 1.91 2.17z" class="AD"/><path d="M23.07 49.08c2.85-.62 4.74-3.11 4.52-5.96 1.09.22 1.94.65 1.92 1.96s-.7 2.04-1.93 2.36c-.47.12-.97.23-1 .94-.03.77.65 1.89-.74 2.14-1.22.2-2.12-.43-2.77-1.44z" class="AC"/><path d="M22.75 35.65c1.07.93 2.46 1.7 1.86 3.49-.71 2.11-2.1.96-3.3.65l-.21-1.96c-.04-1.17.78-1.7 1.65-2.18z" class="AF"/><path d="M21.1 37.83l.22 1.95c-.22-.63-.72-1.23-.22-1.95z" class="AD"/><path d="M33.3 43.82c.2.83-.32 1.06-.98 1.18l.98-1.18z" class="g"/><path d="M19.01 43.33l-.76-.36.76.36zm-4.08 3.37l.19.71-.19-.71zm-.06-1.67l-.14.46.14-.46zm-.09 1.29l.11.33-.11-.33z" class="h"/><path d="M33.61 43.43c-.02.08-.06.13-.13.16.04-.05.09-.1.13-.16z" class="g"/><path d="M71.52 76.01c-.2.9-.75 1.32-1.68 1.22-1.18-.27-1.55-1.21-1.85-2.21.32.22.91.46.9.66-.05.94.57.94 1.06.72.68-.3.89-.99.62-1.69-.23-.59-.45-1.15-.32-1.81.08-.45.35-1.16-.47-1.2-.72-.04-1.27.29-1.4 1.14-.08.58.38 1.29-.39 1.71-.29-2.01.1-3.64 2.41-4.06 1.49-.27 2.82.01 3.51 1.58.69 1.56-.32 2.32-1.53 2.58-.99.22-1.14.55-.86 1.36zm-2.47-12.16c2.19.15 3.36 1.15 3.33 3.03-.03 2.03-1.61 2.8-3.32 2.77-1.84-.03-2.5-1.62-2.51-3.12-.01-1.61 1.22-2.39 2.5-2.68zm1.48 3.07c.11-1.54-.95-1.85-1.77-1.87-.99-.03-1.22.99-1.31 1.82-.14 1.24.9 1.48 1.71 1.53 1.05.06 1.23-.9 1.37-1.48zm-4.05 5.95c-.23 1.75-.78 3.25-2.96 3.15-1.66-.07-2.83-1.17-2.76-2.66.1-2.1 1.76-3.11 3.75-3.02 1.29.06 2.13 1.02 1.97 2.53zm-3.52 2.18c1.25.01 1.58-.83 1.52-1.56-.07-.9-.54-1.96-1.61-1.93-.98.03-1.41.98-1.41 1.92 0 1.04.77 1.4 1.5 1.57z" class="AB"/><path d="M67.98 74.56c.77-.42.31-1.14.39-1.71.12-.85.68-1.18 1.4-1.14.83.04.56.75.47 1.2-.12.67.09 1.22.32 1.81.27.7.06 1.39-.62 1.69-.49.22-1.11.22-1.06-.72.01-.2-.58-.44-.9-.66.01-.16 0-.32 0-.47z" class="AF"/><path d="M69.58 59.9l.27-.15-.27.15z" class="r"/><path d="M65.58 60.18l-1.04.37c.19-.58.66-.35 1.04-.37zm-1.22.47l-.75.29.75-.29zm2.62-.72l-.25.12.25-.12z" class="h"/><path d="M68.11 31.36l-.44-.19.44.19zm-.93.48l.27.18-.27-.18zm.02-.69c-.06.07-.13.13-.19.2l.19-.2z" class="j"/><path d="M49.41 57.23c1.59 1.09 1.59 2.64 1.23 4.29-1.41.35-2.43-.07-2.82-1.54-.39-1.42.28-2.28 1.59-2.75z" class="i"/><path d="M49.7 56.81l-.25.25.25-.25z" class="j"/><path d="M22.93 46.58c-.16-1.37.89-1.81 1.8-2.13.49-.17.58.65.43 1-.41.93.04 2.49-1.47 2.62-.81.08-.95-.77-.76-1.49zm-5.4 1.12c-1.71.03-1.8-1.18-1.9-2.17-.09-.88.29-1.69 1.39-1.68 1.23.01 1.87.89 1.79 1.93-.07.74.09 2.11-1.28 1.92zm53 19.22c-.14.58-.32 1.54-1.37 1.48-.82-.05-1.86-.29-1.71-1.53.1-.82.32-1.85 1.31-1.82.82.02 1.88.33 1.77 1.87zm-7.57 8.13c-.72-.18-1.5-.54-1.5-1.57 0-.93.43-1.89 1.41-1.92 1.07-.03 1.54 1.03 1.61 1.93.06.74-.28 1.58-1.52 1.56z" class="AF"/></svg>